STARTFONT 2.1
COMMENT Font converted from OTF to BDF.
FONT -FreeType-Nimbus Sans-Medium-R-Normal--32-240-96-96-P-168-ISO10646-1
SIZE 24 96 96
FONTBOUNDINGBOX 40 44 -7 -10
STARTPROPERTIES 19
POINT_SIZE 240
PIXEL_SIZE 32
RESOLUTION_X 96
RESOLUTION_Y 96
FONT_ASCENT 23
FONT_DESCENT 8
AVERAGE_WIDTH 168
SPACING "P"
FOUNDRY "FreeType"
FAMILY_NAME "Nimbus Sans"
CHARSET_REGISTRY "ISO10646"
CHARSET_ENCODING "1"
WEIGHT_NAME "Medium"
SLANT "R"
SETWIDTH_NAME "Normal"
COPYRIGHT "(URW)++,Copyright 2014 by (URW)++ Design & Development"
_TTF_PSNAME "NimbusSans-Regular"
_OTF_FONTFILE "NimbusSans-Regular.otf"
_GBDFED_INFO "Edited with gbdfed 1.6."
ENDPROPERTIES
CHARS 854
STARTCHAR char32
ENCODING 32
SWIDTH 25 0
DWIDTH 9 0
BBX 0 0 0 0
BITMAP
ENDCHAR
STARTCHAR char33
ENCODING 33
SWIDTH 25 0
DWIDTH 9 0
BBX 3 23 4 0
BITMAP
E0
E0
E0
E0
E0
E0
E0
E0
E0
E0
E0
E0
C0
C0
C0
C0
40
40
00
00
E0
E0
E0
ENDCHAR
STARTCHAR char34
ENCODING 34
SWIDTH 2 0
DWIDTH 11 0
BBX 8 8 2 15
BITMAP
E7
E7
E7
E7
E7
C6
C6
C6
ENDCHAR
STARTCHAR char35
ENCODING 35
SWIDTH 22 0
DWIDTH 18 0
BBX 17 23 0 0
BITMAP
038600
038600
038600
030E00
030E00
030C00
3FFF80
3FFF80
061C00
061C00
061C00
061800
0E1800
0E1800
FFFF00
FFFF00
0C3800
1C3000
1C3000
1C3000
187000
187000
186000
ENDCHAR
STARTCHAR char36
ENCODING 36
SWIDTH 22 0
DWIDTH 18 0
BBX 16 29 1 -4
BITMAP
0180
0180
07E0
1FF8
3FBC
719C
718E
618E
6180
7180
7180
7980
3F80
1FF0
03FC
01BE
018E
0187
E187
E187
E187
618E
718E
3FFC
1FF8
07C0
0180
0180
0180
ENDCHAR
STARTCHAR char37
ENCODING 37
SWIDTH 21 0
DWIDTH 28 0
BBX 26 23 1 0
BITMAP
00003000
1F003000
7F806000
71C06000
E0E0C000
C061C000
C0618000
E0E30000
71C30000
7F860000
1F060000
000C0000
000C1E00
00187F80
0018F3C0
0030C0C0
0070C0C0
0060C0C0
00C0C0C0
00C0C0C0
0180F3C0
01807F80
03001E00
ENDCHAR
STARTCHAR char38
ENCODING 38
SWIDTH 2 0
DWIDTH 21 0
BBX 18 23 2 0
BITMAP
07C000
0FF000
1C7000
383800
383800
383800
383800
1C7000
0EE000
0FC000
0F8000
1F8000
79C300
F0E300
E07700
C07F00
C03E00
C01E00
E01E00
F03F00
7DF700
3FE380
1F81C0
ENDCHAR
STARTCHAR char39
ENCODING 39
SWIDTH 16 0
DWIDTH 6 0
BBX 3 8 2 15
BITMAP
E0
E0
E0
E0
C0
C0
C0
C0
ENDCHAR
STARTCHAR char40
ENCODING 40
SWIDTH 2 0
DWIDTH 11 0
BBX 7 30 2 -7
BITMAP
06
0C
0C
18
18
38
30
30
70
60
60
60
E0
E0
E0
E0
E0
E0
60
60
60
70
30
30
38
18
18
0C
0C
06
ENDCHAR
STARTCHAR char41
ENCODING 41
SWIDTH 2 0
DWIDTH 11 0
BBX 7 30 1 -7
BITMAP
C0
60
30
30
38
18
18
1C
0C
0C
0E
0E
0E
06
06
06
06
0E
0E
0E
0C
0C
0C
1C
18
38
30
30
60
40
ENDCHAR
STARTCHAR char42
ENCODING 42
SWIDTH 5 0
DWIDTH 12 0
BBX 9 9 2 14
BITMAP
1800
1800
1800
FF80
FF00
1C00
3E00
6600
6200
ENDCHAR
STARTCHAR char43
ENCODING 43
SWIDTH 24 0
DWIDTH 19 0
BBX 15 16 2 0
BITMAP
0300
0300
0300
0300
0300
0300
0300
FFFE
FFFE
0300
0300
0300
0300
0300
0300
0300
ENDCHAR
STARTCHAR char44
ENCODING 44
SWIDTH 25 0
DWIDTH 9 0
BBX 3 8 3 -5
BITMAP
E0
E0
E0
20
20
60
C0
80
ENDCHAR
STARTCHAR char45
ENCODING 45
SWIDTH 2 0
DWIDTH 11 0
BBX 8 2 1 8
BITMAP
FF
FF
ENDCHAR
STARTCHAR char46
ENCODING 46
SWIDTH 25 0
DWIDTH 9 0
BBX 3 3 3 0
BITMAP
E0
E0
E0
ENDCHAR
STARTCHAR char47
ENCODING 47
SWIDTH 25 0
DWIDTH 9 0
BBX 9 23 0 0
BITMAP
0180
0180
0300
0300
0300
0600
0600
0600
0400
0C00
0C00
0800
1800
1800
1000
3000
3000
2000
6000
6000
4000
C000
C000
ENDCHAR
STARTCHAR char48
ENCODING 48
SWIDTH 22 0
DWIDTH 18 0
BBX 15 23 1 0
BITMAP
07C0
0FF0
1FF8
383C
781C
701C
700E
700E
600E
E00E
E00E
E00E
E00E
E00E
E00E
700E
700E
700C
701C
383C
1E78
1FF0
07E0
ENDCHAR
STARTCHAR char49
ENCODING 49
SWIDTH 22 0
DWIDTH 18 0
BBX 8 23 3 0
BITMAP
03
03
07
0F
FF
FF
FF
07
07
07
07
07
07
07
07
07
07
07
07
07
07
07
07
ENDCHAR
STARTCHAR char50
ENCODING 50
SWIDTH 22 0
DWIDTH 18 0
BBX 15 23 1 0
BITMAP
07E0
1FF8
3FFC
381E
700E
700E
700E
600E
000E
000E
001C
0078
01F0
03E0
0F80
1E00
3C00
7800
7000
6000
FFFE
FFFE
FFFE
ENDCHAR
STARTCHAR char51
ENCODING 51
SWIDTH 22 0
DWIDTH 18 0
BBX 15 23 1 0
BITMAP
0FE0
1FF0
3EF8
781C
701C
600C
600C
001C
001C
00F8
03F0
03F8
003C
001E
000E
000E
E00E
E00E
E00E
701C
7FFC
3FF8
0FE0
ENDCHAR
STARTCHAR char52
ENCODING 52
SWIDTH 22 0
DWIDTH 18 0
BBX 16 23 1 0
BITMAP
0030
0070
00F0
00F0
01F0
03F0
0370
0770
0E70
1C70
1870
3870
7070
6070
E070
FFFF
FFFF
FFFF
0070
0070
0070
0070
0070
ENDCHAR
STARTCHAR char53
ENCODING 53
SWIDTH 22 0
DWIDTH 18 0
BBX 15 23 1 0
BITMAP
3FFC
3FFC
3FFC
3800
3800
3000
3000
7000
7FF0
7FF8
783C
701E
000E
000E
000E
0006
000E
E00E
700E
701C
3EF8
1FF0
07C0
ENDCHAR
STARTCHAR char54
ENCODING 54
SWIDTH 22 0
DWIDTH 18 0
BBX 15 23 1 0
BITMAP
03E0
0FF8
1FFC
3C1C
380E
700E
7000
7000
6000
E7F0
EFF8
FC3C
F80E
F00E
F00E
6006
600E
700E
700E
381C
1FFC
1FF8
07E0
ENDCHAR
STARTCHAR char55
ENCODING 55
SWIDTH 22 0
DWIDTH 18 0
BBX 16 23 1 0
BITMAP
FFFF
FFFF
FFFF
000E
000C
0018
0038
0030
0070
00E0
00E0
01C0
01C0
0380
0380
0300
0700
0700
0600
0E00
0E00
0E00
1C00
ENDCHAR
STARTCHAR char56
ENCODING 56
SWIDTH 22 0
DWIDTH 18 0
BBX 15 23 1 0
BITMAP
07E0
1FF0
3FF8
381C
701C
700E
700E
701C
381C
3E78
0FF0
1FF8
383C
701E
E00E
E00E
E006
E00E
700E
781E
3FFC
1FF8
07E0
ENDCHAR
STARTCHAR char57
ENCODING 57
SWIDTH 22 0
DWIDTH 18 0
BBX 15 23 1 0
BITMAP
07C0
1FF0
3EF8
783C
701C
E00E
E00E
E00E
E00E
F00E
701E
783E
3FFE
1FEE
010E
000E
000E
701C
701C
7838
3FF8
1FF0
0FC0
ENDCHAR
STARTCHAR char58
ENCODING 58
SWIDTH 25 0
DWIDTH 9 0
BBX 3 17 4 0
BITMAP
E0
E0
E0
00
00
00
00
00
00
00
00
00
00
00
E0
E0
E0
ENDCHAR
STARTCHAR char59
ENCODING 59
SWIDTH 25 0
DWIDTH 9 0
BBX 3 22 4 -5
BITMAP
E0
E0
E0
00
00
00
00
00
00
00
00
00
00
00
E0
E0
E0
60
60
60
C0
80
ENDCHAR
STARTCHAR char60
ENCODING 60
SWIDTH 24 0
DWIDTH 19 0
BBX 16 15 1 0
BITMAP
0003
001F
007E
01F8
0FC0
3F00
F800
F000
7E00
1F80
07E0
00FC
003F
0007
0001
ENDCHAR
STARTCHAR char61
ENCODING 61
SWIDTH 24 0
DWIDTH 19 0
BBX 15 7 2 4
BITMAP
FFFE
FFFE
0000
0000
0000
FFFE
FFFE
ENDCHAR
STARTCHAR char62
ENCODING 62
SWIDTH 24 0
DWIDTH 19 0
BBX 15 15 2 0
BITMAP
C000
F000
7E00
1F80
07E0
00FC
003E
000E
007E
01F8
0FC0
3F00
FC00
E000
8000
ENDCHAR
STARTCHAR char63
ENCODING 63
SWIDTH 22 0
DWIDTH 18 0
BBX 14 23 2 0
BITMAP
0FC0
1FF0
3FF8
703C
701C
601C
E01C
001C
003C
0038
00F0
01E0
03C0
0380
0380
0380
0380
0000
0000
0000
0380
0380
0380
ENDCHAR
STARTCHAR char64
ENCODING 64
SWIDTH 4 0
DWIDTH 32 0
BBX 29 27 1 -4
BITMAP
000FF000
007FFC00
01FEFF00
03E00F80
078003C0
0E0001E0
1C0000F0
3807C070
381FEE38
703C6C38
70703C38
60E03C18
E0E03818
E0E03838
E1C03838
E1C03038
E0C07070
E0E0F0E0
70F1F1E0
707F7FC0
783E3F00
3C000000
1E000000
0F000000
07E01800
01FFFC00
007FF800
ENDCHAR
STARTCHAR char65
ENCODING 65
SWIDTH 2 0
DWIDTH 21 0
BBX 20 23 1 0
BITMAP
00F000
01F000
01F800
01F800
03B800
039C00
071C00
071C00
070E00
0E0E00
0E0E00
0E0700
1C0700
1C0780
1FFF80
3FFF80
3803C0
3801C0
7001C0
7001E0
F000E0
E000E0
E000F0
ENDCHAR
STARTCHAR char66
ENCODING 66
SWIDTH 2 0
DWIDTH 21 0
BBX 17 23 3 0
BITMAP
FFF000
FFFC00
FFFE00
E00E00
E00F00
E00700
E00700
E00700
E00E00
E01E00
FFFC00
FFFC00
FFFE00
E00700
E00780
E00380
E00380
E00380
E00780
E00700
FFFF00
FFFE00
FFF800
ENDCHAR
STARTCHAR char67
ENCODING 67
SWIDTH 7 0
DWIDTH 23 0
BBX 20 23 2 0
BITMAP
01FC00
0FFF00
1FFF80
3C03C0
7801C0
7000E0
F000E0
E00000
E00000
E00000
E00000
E00000
E00000
E00000
E00070
E000E0
F000E0
7000E0
7801C0
3C03C0
1FFF80
0FFF00
01FC00
ENDCHAR
STARTCHAR char68
ENCODING 68
SWIDTH 7 0
DWIDTH 23 0
BBX 18 23 3 0
BITMAP
FFF000
FFFC00
FFFE00
E00F00
E00780
E00380
E003C0
E001C0
E001C0
E001C0
E001C0
E001C0
E001C0
E001C0
E001C0
E001C0
E003C0
E00380
E00780
E00F00
FFFE00
FFFC00
FFF000
ENDCHAR
STARTCHAR char69
ENCODING 69
SWIDTH 2 0
DWIDTH 21 0
BBX 17 23 3 0
BITMAP
FFFF00
FFFF00
FFFF00
E00000
E00000
E00000
E00000
E00000
E00000
E00000
FFFF00
FFFF00
FFFF00
E00000
E00000
E00000
E00000
E00000
E00000
E00000
FFFF80
FFFF80
FFFF80
ENDCHAR
STARTCHAR char70
ENCODING 70
SWIDTH 27 0
DWIDTH 20 0
BBX 16 23 3 0
BITMAP
FFFF
FFFF
FFFF
E000
E000
E000
E000
E000
E000
E000
FFFC
FFFC
FFFC
E000
E000
E000
E000
E000
E000
E000
E000
E000
E000
ENDCHAR
STARTCHAR char71
ENCODING 71
SWIDTH 13 0
DWIDTH 25 0
BBX 22 23 1 0
BITMAP
00FE00
03FFC0
0FFFE0
1F01F0
3C0070
380038
700038
700000
700000
700000
E00FFC
E00FFC
E00FFC
70001C
70001C
70001C
78003C
38003C
3C007C
1F01FC
0FFFDC
07FF8C
00FC00
ENDCHAR
STARTCHAR char72
ENCODING 72
SWIDTH 7 0
DWIDTH 23 0
BBX 18 23 3 0
BITMAP
E001C0
E001C0
E001C0
E001C0
E001C0
E001C0
E001C0
E001C0
E001C0
E001C0
FFFFC0
FFFFC0
FFFFC0
E001C0
E001C0
E001C0
E001C0
E001C0
E001C0
E001C0
E001C0
E001C0
E001C0
ENDCHAR
STARTCHAR char73
ENCODING 73
SWIDTH 25 0
DWIDTH 9 0
BBX 3 23 3 0
BITMAP
E0
E0
E0
E0
E0
E0
E0
E0
E0
E0
E0
E0
E0
E0
E0
E0
E0
E0
E0
E0
E0
E0
E0
ENDCHAR
STARTCHAR char74
ENCODING 74
SWIDTH 16 0
DWIDTH 16 0
BBX 13 23 1 0
BITMAP
0038
0038
0038
0038
0038
0038
0038
0038
0038
0038
0038
0038
0038
0038
0038
E038
E038
E038
E070
F070
7FF0
7FE0
1F80
ENDCHAR
STARTCHAR char75
ENCODING 75
SWIDTH 2 0
DWIDTH 21 0
BBX 18 23 3 0
BITMAP
E00380
E00700
E00E00
E01C00
E03800
E07000
E0E000
E1C000
E38000
E78000
EF8000
FFC000
F9E000
F0E000
E07000
E07800
E03800
E01C00
E01E00
E00F00
E00700
E00780
E003C0
ENDCHAR
STARTCHAR char76
ENCODING 76
SWIDTH 22 0
DWIDTH 18 0
BBX 14 23 3 0
BITMAP
E000
E000
E000
E000
E000
E000
E000
E000
E000
E000
E000
E000
E000
E000
E000
E000
E000
E000
E000
E000
FFFC
FFFC
FFFC
ENDCHAR
STARTCHAR char77
ENCODING 77
SWIDTH 18 0
DWIDTH 27 0
BBX 22 23 2 0
BITMAP
F8003C
F8003C
F8007C
FC007C
FC006C
EC00EC
EE00EC
EE00CC
E601CC
E701CC
E3018C
E3838C
E3838C
E1830C
E1C70C
E1C70C
E0C60C
E0EE0C
E0EE0C
E06C0C
E07C0C
E0780C
E0380C
ENDCHAR
STARTCHAR char78
ENCODING 78
SWIDTH 7 0
DWIDTH 23 0
BBX 19 23 2 0
BITMAP
F000E0
F800E0
F800E0
FC00E0
FE00E0
EE00E0
E700E0
E780E0
E380E0
E1C0E0
E1C0E0
E0E0E0
E0F0E0
E070E0
E038E0
E03CE0
E01CE0
E00EE0
E00FE0
E007E0
E003E0
E003E0
E001E0
ENDCHAR
STARTCHAR char79
ENCODING 79
SWIDTH 13 0
DWIDTH 25 0
BBX 23 23 1 0
BITMAP
00FE00
07FF80
0FFFE0
1F01F0
3C0078
380038
70001C
70001C
F0001C
E0000E
E0000E
E0000E
E0000E
E0000E
F0001C
70001C
70001C
380038
3C0078
1F01F0
0FFFE0
03FF80
00FE00
ENDCHAR
STARTCHAR char80
ENCODING 80
SWIDTH 2 0
DWIDTH 21 0
BBX 17 23 3 0
BITMAP
FFF800
FFFE00
FFFF00
E00F00
E00700
E00780
E00380
E00780
E00780
E00F00
FFFF00
FFFE00
FFF800
E00000
E00000
E00000
E00000
E00000
E00000
E00000
E00000
E00000
E00000
ENDCHAR
STARTCHAR char81
ENCODING 81
SWIDTH 13 0
DWIDTH 25 0
BBX 23 24 1 -1
BITMAP
00FE00
07FF80
0FFFE0
1F01F0
3C0078
380038
70001C
70001C
F0001C
E0000E
E0000E
E0000E
E0000E
E0000E
F0001C
70001C
70021C
380738
3C03F8
1F01F0
0FFFF0
03FFB8
00FE1C
000008
ENDCHAR
STARTCHAR char82
ENCODING 82
SWIDTH 7 0
DWIDTH 23 0
BBX 19 23 3 0
BITMAP
FFFC00
FFFF00
FFFF80
E00780
E003C0
E001C0
E001C0
E001C0
E00380
E00380
FFFF00
FFFC00
FFFF00
E00780
E00380
E00380
E00380
E00380
E00380
E00380
E003C0
E001C0
E001E0
ENDCHAR
STARTCHAR char83
ENCODING 83
SWIDTH 2 0
DWIDTH 21 0
BBX 18 23 2 0
BITMAP
07F000
1FFC00
3FFE00
780F00
700380
E00380
E00380
F00000
780000
7F0000
3FF000
0FFE00
007F00
000F80
0003C0
C001C0
C001C0
E001C0
F00380
780780
3FFF00
1FFE00
07F800
ENDCHAR
STARTCHAR char84
ENCODING 84
SWIDTH 27 0
DWIDTH 20 0
BBX 18 23 1 0
BITMAP
FFFFC0
FFFFC0
FFFFC0
01C000
01C000
01C000
01C000
01C000
01C000
01C000
01C000
01C000
01C000
01C000
01C000
01C000
01C000
01C000
01C000
01C000
01C000
01C000
01C000
ENDCHAR
STARTCHAR char85
ENCODING 85
SWIDTH 7 0
DWIDTH 23 0
BBX 18 23 3 0
BITMAP
E001C0
E001C0
E001C0
E001C0
E001C0
E001C0
E001C0
E001C0
E001C0
E001C0
E001C0
E001C0
E001C0
E001C0
E001C0
E001C0
E001C0
E00380
F00380
780F00
3FFF00
1FFC00
07F000
ENDCHAR
STARTCHAR char86
ENCODING 86
SWIDTH 2 0
DWIDTH 21 0
BBX 19 23 1 0
BITMAP
E000E0
F000E0
7000E0
7001C0
3801C0
3801C0
380380
1C0380
1C0380
1E0700
0E0700
0E0700
0F0E00
070E00
070E00
039C00
039C00
039800
01F800
01F800
01F000
00F000
00F000
ENDCHAR
STARTCHAR char87
ENCODING 87
SWIDTH 27 0
DWIDTH 30 0
BBX 29 23 1 0
BITMAP
E00F0078
E00F0070
F00F8070
700F8070
701F80F0
701D80E0
781DC0E0
3819C0E0
3839C1E0
3838E1C0
3C30E1C0
1C70E1C0
1C7061C0
1C707380
1C607380
0EE07380
0EE03B00
0EC03F00
0FC03F00
07C01F00
07C01E00
07801E00
03801E00
ENDCHAR
STARTCHAR char88
ENCODING 88
SWIDTH 2 0
DWIDTH 21 0
BBX 19 23 1 0
BITMAP
7001E0
7801C0
3803C0
1C0780
1E0700
0E0F00
071E00
079C00
03B800
01F800
01F000
00F000
01F000
03F800
03BC00
071E00
0F0E00
0E0F00
1C0780
3C0380
7803C0
7001E0
F000E0
ENDCHAR
STARTCHAR char89
ENCODING 89
SWIDTH 2 0
DWIDTH 21 0
BBX 20 23 1 0
BITMAP
E000F0
F000E0
7801E0
3801C0
3C0380
1C0780
0E0700
0F0E00
070E00
039C00
03FC00
01F800
01F000
00F000
00E000
00E000
00E000
00E000
00E000
00E000
00E000
00E000
00E000
ENDCHAR
STARTCHAR char90
ENCODING 90
SWIDTH 27 0
DWIDTH 20 0
BBX 18 23 1 0
BITMAP
7FFFC0
7FFFC0
7FFFC0
000780
000F00
000E00
001E00
003C00
007800
00F000
00E000
01E000
03C000
078000
070000
0E0000
1E0000
3C0000
780000
700000
FFFFC0
FFFFC0
FFFFC0
ENDCHAR
STARTCHAR char91
ENCODING 91
SWIDTH 25 0
DWIDTH 9 0
BBX 6 30 2 -7
BITMAP
FC
FC
E0
E0
E0
E0
E0
E0
E0
E0
E0
E0
E0
E0
E0
E0
E0
E0
E0
E0
E0
E0
E0
E0
E0
E0
E0
E0
FC
FC
ENDCHAR
STARTCHAR char92
ENCODING 92
SWIDTH 25 0
DWIDTH 9 0
BBX 9 23 0 0
BITMAP
C000
C000
4000
6000
6000
2000
3000
3000
1000
1800
1800
0800
0C00
0C00
0400
0600
0600
0600
0300
0300
0300
0180
0180
ENDCHAR
STARTCHAR char93
ENCODING 93
SWIDTH 25 0
DWIDTH 9 0
BBX 6 30 1 -7
BITMAP
FC
FC
1C
1C
1C
1C
1C
1C
1C
1C
1C
1C
1C
1C
1C
1C
1C
1C
1C
1C
1C
1C
1C
1C
1C
1C
1C
1C
FC
FC
ENDCHAR
STARTCHAR char94
ENCODING 94
SWIDTH 13 0
DWIDTH 15 0
BBX 11 12 2 11
BITMAP
0E00
0E00
1F00
1B00
1B00
3180
3180
71C0
60C0
60C0
C060
C060
ENDCHAR
STARTCHAR char95
ENCODING 95
SWIDTH 22 0
DWIDTH 18 0
BBX 19 2 -1 -6
BITMAP
FFFFE0
FFFFE0
ENDCHAR
STARTCHAR char96
ENCODING 96
SWIDTH 2 0
DWIDTH 11 0
BBX 6 5 1 18
BITMAP
F0
70
38
1C
0C
ENDCHAR
STARTCHAR char97
ENCODING 97
SWIDTH 22 0
DWIDTH 18 0
BBX 16 17 1 0
BITMAP
07E0
1FF8
3EFC
701C
701C
001C
001C
03FC
3FFC
7C1C
701C
E01C
E01C
F03C
79FE
3FCF
1F8F
ENDCHAR
STARTCHAR char98
ENCODING 98
SWIDTH 22 0
DWIDTH 18 0
BBX 15 23 2 0
BITMAP
C000
C000
C000
C000
C000
C000
C7C0
DFF0
DFF8
F03C
E01C
E01C
E00E
C00E
C00E
C00E
E00E
E01C
E01C
F038
FFF8
DFF0
C7C0
ENDCHAR
STARTCHAR char99
ENCODING 99
SWIDTH 16 0
DWIDTH 16 0
BBX 14 17 1 0
BITMAP
07C0
1FF0
3EF8
783C
701C
E01C
E000
E000
E000
E000
E000
E01C
701C
783C
3EF8
1FF0
07C0
ENDCHAR
STARTCHAR char100
ENCODING 100
SWIDTH 22 0
DWIDTH 18 0
BBX 15 23 1 0
BITMAP
000E
000E
000E
000E
000E
000E
0FCE
1FEE
3FFE
783E
F01E
E00E
E00E
E00E
E00E
E00E
E00E
E00E
701E
783E
3EFE
1FEE
0FCE
ENDCHAR
STARTCHAR char101
ENCODING 101
SWIDTH 22 0
DWIDTH 18 0
BBX 15 17 1 0
BITMAP
07E0
1FF8
3FFC
781C
700E
600E
E00E
FFFE
FFFE
E000
E000
600E
700E
781C
3FFC
1FF8
07E0
ENDCHAR
STARTCHAR char102
ENCODING 102
SWIDTH 25 0
DWIDTH 9 0
BBX 7 23 1 0
BITMAP
0E
3E
3C
30
30
30
FE
FE
30
30
30
30
30
30
30
30
30
30
30
30
30
30
30
ENDCHAR
STARTCHAR char103
ENCODING 103
SWIDTH 22 0
DWIDTH 18 0
BBX 14 23 1 -6
BITMAP
078C
1FEC
3FFC
783C
701C
E01C
E01C
E00C
E00C
E00C
E01C
E01C
701C
703C
3FEC
1FCC
078C
001C
601C
701C
7878
3FF0
1FE0
ENDCHAR
STARTCHAR char104
ENCODING 104
SWIDTH 22 0
DWIDTH 18 0
BBX 14 23 2 0
BITMAP
E000
E000
E000
E000
E000
E000
E3E0
EFF0
FE78
F038
F01C
E01C
E01C
E01C
E01C
E01C
E01C
E01C
E01C
E01C
E01C
E01C
E01C
ENDCHAR
STARTCHAR char105
ENCODING 105
SWIDTH 19 0
DWIDTH 7 0
BBX 3 23 2 0
BITMAP
E0
E0
E0
00
00
00
E0
E0
E0
E0
E0
E0
E0
E0
E0
E0
E0
E0
E0
E0
E0
E0
E0
ENDCHAR
STARTCHAR char106
ENCODING 106
SWIDTH 19 0
DWIDTH 7 0
BBX 6 30 -1 -7
BITMAP
1C
1C
1C
00
00
00
1C
1C
1C
1C
1C
1C
1C
1C
1C
1C
1C
1C
1C
1C
1C
1C
1C
1C
1C
1C
1C
3C
F8
F0
ENDCHAR
STARTCHAR char107
ENCODING 107
SWIDTH 16 0
DWIDTH 16 0
BBX 14 23 2 0
BITMAP
E000
E000
E000
E000
E000
E000
E078
E0F0
E1E0
E3C0
E780
EF00
FF00
FF00
F380
E380
E1C0
E1E0
E0E0
E070
E078
E038
E03C
ENDCHAR
STARTCHAR char108
ENCODING 108
SWIDTH 19 0
DWIDTH 7 0
BBX 3 23 2 0
BITMAP
E0
E0
E0
E0
E0
E0
E0
E0
E0
E0
E0
E0
E0
E0
E0
E0
E0
E0
E0
E0
E0
E0
E0
ENDCHAR
STARTCHAR char109
ENCODING 109
SWIDTH 18 0
DWIDTH 27 0
BBX 22 17 2 0
BITMAP
E7C1F0
FFF7F8
FCFF7C
F07C1C
E0380C
E0380C
E0380C
E0380C
E0380C
E0380C
E0380C
E0380C
E0380C
E0380C
E0380C
E0380C
E0380C
ENDCHAR
STARTCHAR char110
ENCODING 110
SWIDTH 22 0
DWIDTH 18 0
BBX 14 17 2 0
BITMAP
E7E0
EFF0
FEF8
F038
F01C
E01C
E01C
E01C
E01C
E01C
E01C
E01C
E01C
E01C
E01C
E01C
E01C
ENDCHAR
STARTCHAR char111
ENCODING 111
SWIDTH 22 0
DWIDTH 18 0
BBX 15 17 1 0
BITMAP
07E0
1FF0
3FFC
781C
700E
E00E
E00E
E00E
E006
E00E
E00E
E00E
700E
781C
3FF8
1FF8
07E0
ENDCHAR
STARTCHAR char112
ENCODING 112
SWIDTH 22 0
DWIDTH 18 0
BBX 15 23 2 -6
BITMAP
CFC0
DFF0
FFF8
F03C
E01C
E01C
E00E
C00E
C00E
C00E
E00E
E01C
E01C
F03C
FFF8
DFF0
C7C0
C000
C000
C000
C000
C000
C000
ENDCHAR
STARTCHAR char113
ENCODING 113
SWIDTH 22 0
DWIDTH 18 0
BBX 15 24 1 -7
BITMAP
0FCE
1FFE
3FFE
783E
701E
E00E
E00E
E00E
E00E
E00E
E00E
E00E
F01E
783E
3EFE
1FEE
0FCE
000E
000E
000E
000E
000E
000E
0006
ENDCHAR
STARTCHAR char114
ENCODING 114
SWIDTH 2 0
DWIDTH 11 0
BBX 8 17 2 0
BITMAP
E7
EF
FE
F0
F0
E0
E0
E0
E0
E0
E0
E0
E0
E0
E0
E0
E0
ENDCHAR
STARTCHAR char115
ENCODING 115
SWIDTH 16 0
DWIDTH 16 0
BBX 14 17 1 0
BITMAP
0FC0
3FF0
7FF0
7038
6038
6000
7800
7F80
1FF0
03F8
0038
001C
E01C
F038
7FF8
3FF0
1FC0
ENDCHAR
STARTCHAR char116
ENCODING 116
SWIDTH 25 0
DWIDTH 9 0
BBX 8 22 0 0
BITMAP
18
18
18
18
18
FF
FF
18
18
18
18
18
18
18
18
18
18
18
18
1C
1F
0F
ENDCHAR
STARTCHAR char117
ENCODING 117
SWIDTH 22 0
DWIDTH 18 0
BBX 13 17 2 -1
BITMAP
E018
E018
E018
E018
E018
E018
E018
E018
E018
E018
E018
E038
E038
E078
79F8
7FD8
1F98
ENDCHAR
STARTCHAR char118
ENCODING 118
SWIDTH 16 0
DWIDTH 16 0
BBX 15 17 0 0
BITMAP
E00E
700E
700E
301C
381C
3818
1838
1C38
1C30
0C70
0E70
0E60
06E0
07C0
07C0
03C0
0380
ENDCHAR
STARTCHAR char119
ENCODING 119
SWIDTH 7 0
DWIDTH 23 0
BBX 22 17 0 0
BITMAP
E0380C
70781C
707C1C
707C1C
707C18
38EC38
38EE38
38CE30
18CE30
1DC670
1DC770
1D8760
0D83E0
0F83E0
0F83C0
0703C0
0701C0
ENDCHAR
STARTCHAR char120
ENCODING 120
SWIDTH 16 0
DWIDTH 16 0
BBX 14 17 1 0
BITMAP
E01C
7038
3870
3870
1CE0
0DC0
0FC0
0780
0780
0780
0FC0
1DE0
1CE0
3870
7070
7038
E01C
ENDCHAR
STARTCHAR char121
ENCODING 121
SWIDTH 16 0
DWIDTH 16 0
BBX 14 24 1 -7
BITMAP
E01C
E01C
E018
7038
7038
7070
3870
3870
38E0
1CE0
1CC0
1DC0
0FC0
0F80
0F80
0780
0700
0700
0700
0E00
0E00
7C00
7C00
7800
ENDCHAR
STARTCHAR char122
ENCODING 122
SWIDTH 16 0
DWIDTH 16 0
BBX 14 17 1 0
BITMAP
7FF8
7FF8
0038
0070
00E0
01E0
01C0
0380
0700
0E00
1E00
1C00
3800
7000
E000
FFFC
FFFC
ENDCHAR
STARTCHAR char123
ENCODING 123
SWIDTH 2 0
DWIDTH 11 0
BBX 8 30 1 -7
BITMAP
07
1F
1C
18
18
18
18
18
18
18
18
18
38
38
F0
E0
70
38
18
18
18
18
18
18
18
18
18
1C
1F
0F
ENDCHAR
STARTCHAR char124
ENCODING 124
SWIDTH 22 0
DWIDTH 8 0
BBX 2 30 3 -7
BITMAP
C0
C0
C0
C0
C0
C0
C0
C0
C0
C0
C0
C0
C0
C0
C0
C0
C0
C0
C0
C0
C0
C0
C0
C0
C0
C0
C0
C0
C0
C0
ENDCHAR
STARTCHAR char125
ENCODING 125
SWIDTH 2 0
DWIDTH 11 0
BBX 7 30 1 -7
BITMAP
E0
F0
38
38
38
38
38
38
38
38
38
18
18
1C
0E
0E
1E
18
18
38
38
38
38
38
38
38
38
38
F0
E0
ENDCHAR
STARTCHAR char126
ENCODING 126
SWIDTH 24 0
DWIDTH 19 0
BBX 14 5 2 9
BITMAP
3C00
7E04
678C
C1FC
0078
ENDCHAR
STARTCHAR char160
ENCODING 160
SWIDTH 25 0
DWIDTH 9 0
BBX 0 0 0 0
BITMAP
ENDCHAR
STARTCHAR char161
ENCODING 161
SWIDTH 2 0
DWIDTH 11 0
BBX 3 23 4 -6
BITMAP
E0
E0
E0
00
00
40
C0
C0
C0
C0
C0
C0
E0
E0
E0
E0
E0
E0
E0
E0
E0
E0
E0
ENDCHAR
STARTCHAR char162
ENCODING 162
SWIDTH 22 0
DWIDTH 18 0
BBX 14 24 2 -4
BITMAP
0100
0100
0100
0FE0
3FF0
3D78
711C
E11C
E11C
E100
E100
C100
C100
E100
E10C
E11C
711C
7938
3FF8
1FF0
07C0
0100
0100
0100
ENDCHAR
STARTCHAR char163
ENCODING 163
SWIDTH 22 0
DWIDTH 18 0
BBX 16 23 1 0
BITMAP
07E0
1FF8
3FFC
381E
700E
700E
700E
7000
7000
7800
3800
FFE0
FFE0
0E00
0E00
0E00
0C00
1C00
3800
7F82
FFFF
7FFF
007C
ENDCHAR
STARTCHAR char164
ENCODING 164
SWIDTH 22 0
DWIDTH 18 0
BBX 14 13 2 4
BITMAP
6018
FFFC
7FF8
3870
7030
6038
6038
7038
7070
3FF0
7FF8
6FB8
0010
ENDCHAR
STARTCHAR char165
ENCODING 165
SWIDTH 22 0
DWIDTH 18 0
BBX 16 23 1 0
BITMAP
C007
E007
700E
700C
381C
3818
1C38
0C30
0E70
07E0
07E0
7FFE
7FFE
0180
0180
0180
7FFE
7FFE
0180
0180
0180
0180
0180
ENDCHAR
STARTCHAR char166
ENCODING 166
SWIDTH 22 0
DWIDTH 8 0
BBX 2 30 3 -7
BITMAP
C0
C0
C0
C0
C0
C0
C0
C0
C0
C0
C0
C0
C0
00
00
00
00
C0
C0
C0
C0
C0
C0
C0
C0
C0
C0
C0
C0
C0
ENDCHAR
STARTCHAR char167
ENCODING 167
SWIDTH 22 0
DWIDTH 18 0
BBX 15 30 1 -7
BITMAP
03E0
0FF0
1FF8
1C1C
381C
381C
1C00
1F00
1F80
3BE0
71F0
6078
E03C
E01E
700E
7806
3C06
1F0E
0F8C
07DC
01F0
00F0
0038
0038
7038
3838
3838
3EF8
1FF0
07C0
ENDCHAR
STARTCHAR char168
ENCODING 168
SWIDTH 2 0
DWIDTH 11 0
BBX 8 3 1 20
BITMAP
E7
E7
E7
ENDCHAR
STARTCHAR char169
ENCODING 169
SWIDTH 10 0
DWIDTH 24 0
BBX 24 23 0 0
BITMAP
00FE00
03FFC0
0F81E0
1E0070
380038
303C1C
60FF0E
E1C386
C38186
C30187
C30003
C30003
C30003
C301C3
C30187
E38186
61C386
70FF0C
387C1C
1C0078
0F01F0
07FFC0
00FE00
ENDCHAR
STARTCHAR char170
ENCODING 170
SWIDTH 5 0
DWIDTH 12 0
BBX 10 14 1 9
BITMAP
3E00
7F00
6180
0180
0F80
7D80
C180
C180
C380
7FC0
3000
0000
FF80
FF80
ENDCHAR
STARTCHAR char171
ENCODING 171
SWIDTH 22 0
DWIDTH 18 0
BBX 12 11 3 3
BITMAP
0810
1830
38F0
71C0
E180
C100
E1C0
70E0
3870
0830
0010
ENDCHAR
STARTCHAR char172
ENCODING 172
SWIDTH 24 0
DWIDTH 19 0
BBX 16 9 1 3
BITMAP
FFFF
FFFF
0003
0003
0003
0003
0003
0003
0003
ENDCHAR
STARTCHAR char173
ENCODING 173
SWIDTH 2 0
DWIDTH 11 0
BBX 8 2 1 8
BITMAP
FF
FF
ENDCHAR
STARTCHAR char174
ENCODING 174
SWIDTH 10 0
DWIDTH 24 0
BBX 24 23 0 0
BITMAP
00FE00
03FFC0
0F81E0
1E0070
380038
73FF1C
63FF8E
E38186
C381C6
C381C3
C38183
C3FF03
C3FF83
C38183
C38187
E38186
63818E
7381CC
38001C
1C0078
0F01F0
03FFC0
00FE00
ENDCHAR
STARTCHAR char175
ENCODING 175
SWIDTH 2 0
DWIDTH 11 0
BBX 9 2 1 20
BITMAP
FF80
FF80
ENDCHAR
STARTCHAR char176
ENCODING 176
SWIDTH 8 0
DWIDTH 13 0
BBX 9 10 2 12
BITMAP
3E00
7F00
E380
C180
8180
8180
C180
E300
7F00
1C00
ENDCHAR
STARTCHAR char177
ENCODING 177
SWIDTH 24 0
DWIDTH 19 0
BBX 15 21 2 0
BITMAP
0300
0300
0300
0300
0300
0300
0300
FFFE
FFFE
0300
0300
0300
0300
0300
0300
0300
0000
0000
0000
FFFE
FFFE
ENDCHAR
STARTCHAR char178
ENCODING 178
SWIDTH 2 0
DWIDTH 11 0
BBX 10 14 0 9
BITMAP
1F00
3F80
61C0
60C0
60C0
00C0
0180
0700
1E00
3800
7000
6000
FFC0
FFC0
ENDCHAR
STARTCHAR char179
ENCODING 179
SWIDTH 2 0
DWIDTH 11 0
BBX 10 14 0 9
BITMAP
1F00
7F80
6180
60C0
E180
0380
0F00
0380
00C0
C0C0
C0C0
61C0
7F80
1F00
ENDCHAR
STARTCHAR char180
ENCODING 180
SWIDTH 2 0
DWIDTH 11 0
BBX 6 5 3 18
BITMAP
1C
38
70
60
C0
ENDCHAR
STARTCHAR char181
ENCODING 181
SWIDTH 22 0
DWIDTH 18 0
BBX 15 23 2 -6
BITMAP
E018
E018
E018
E018
E018
E018
E018
E018
E018
E018
E018
E038
E038
E078
F9FC
FFDE
FF0E
E000
E000
E000
E000
E000
E000
ENDCHAR
STARTCHAR char182
ENCODING 182
SWIDTH 19 0
DWIDTH 17 0
BBX 15 29 2 -6
BITMAP
0FFE
3FFE
7F18
7F18
FF18
FF18
FF18
FF18
FF18
FF18
FF18
FF18
7F18
3F18
1F18
0318
0318
0318
0318
0318
0318
0318
0318
0318
0318
0318
0318
0318
0318
ENDCHAR
STARTCHAR char183
ENCODING 183
SWIDTH 25 0
DWIDTH 9 0
BBX 3 3 4 7
BITMAP
E0
E0
E0
ENDCHAR
STARTCHAR char184
ENCODING 184
SWIDTH 2 0
DWIDTH 11 0
BBX 8 7 1 -7
BITMAP
08
08
1F
03
03
E7
3E
ENDCHAR
STARTCHAR char185
ENCODING 185
SWIDTH 2 0
DWIDTH 11 0
BBX 5 14 2 9
BITMAP
18
18
38
F8
18
18
18
18
18
18
18
18
18
18
ENDCHAR
STARTCHAR char186
ENCODING 186
SWIDTH 5 0
DWIDTH 12 0
BBX 9 14 1 9
BITMAP
1E00
7F00
6180
C180
C180
C180
C180
6180
6380
3F00
0C00
0000
7F80
7F80
ENDCHAR
STARTCHAR char187
ENCODING 187
SWIDTH 22 0
DWIDTH 18 0
BBX 11 11 3 3
BITMAP
8200
C300
E3C0
78E0
1860
1820
38E0
71C0
E380
C300
0200
ENDCHAR
STARTCHAR char188
ENCODING 188
SWIDTH 18 0
DWIDTH 27 0
BBX 25 23 1 0
BITMAP
18003000
18006000
F8004000
F800C000
18018000
18018000
18030000
18020000
18060000
180C0600
180C0E00
18181E00
18303600
00303600
00606600
0040C600
00C18600
0181FF80
0181FF80
03000600
02000600
06000600
0C000000
ENDCHAR
STARTCHAR char189
ENCODING 189
SWIDTH 18 0
DWIDTH 27 0
BBX 25 23 1 0
BITMAP
18006000
18006000
7800C000
F8018000
18018000
18030000
18020000
18060000
180C0000
180C3C00
1818FF00
1830C380
18318180
00618180
00C00380
00C00700
01801E00
01807800
0300E000
0600C000
06018000
0C01FF80
08000000
ENDCHAR
STARTCHAR char190
ENCODING 190
SWIDTH 18 0
DWIDTH 27 0
BBX 25 23 1 0
BITMAP
3E001800
7F003000
E1803000
C1806000
C1804000
0380C000
0E018000
07810000
01830000
C0C60600
C1C60E00
C18C1E00
7F981E00
3E183600
00306600
0020C600
00618600
00C1FF80
00C1FF80
01800600
03000600
03000600
06000000
ENDCHAR
STARTCHAR char191
ENCODING 191
SWIDTH 27 0
DWIDTH 20 0
BBX 14 24 3 -7
BITMAP
0380
0380
0380
0000
0000
0000
0380
0380
0380
0780
0700
0E00
1C00
3800
7000
F000
E01C
E01C
E01C
E01C
7038
7FF8
3FF0
0FC0
ENDCHAR
STARTCHAR char192
ENCODING 192
SWIDTH 2 0
DWIDTH 21 0
BBX 20 30 1 0
BITMAP
078000
03C000
01C000
00E000
006000
000000
000000
00F000
01F000
01F800
01F800
03B800
039C00
071C00
071C00
070E00
0E0E00
0E0E00
0E0700
1C0700
1C0780
1FFF80
3FFF80
3803C0
3801C0
7001C0
7001E0
F000E0
E000E0
E000F0
ENDCHAR
STARTCHAR char193
ENCODING 193
SWIDTH 2 0
DWIDTH 21 0
BBX 20 30 1 0
BITMAP
001C00
003800
007000
006000
00C000
000000
000000
00F000
01F000
01F800
01F800
03B800
039C00
071C00
071C00
070E00
0E0E00
0E0E00
0E0700
1C0700
1C0780
1FFF80
3FFF80
3803C0
3801C0
7001C0
7001E0
F000E0
E000E0
E000F0
ENDCHAR
STARTCHAR char194
ENCODING 194
SWIDTH 2 0
DWIDTH 21 0
BBX 20 30 1 0
BITMAP
00E000
01F000
01B800
031800
070C00
000000
000000
00F000
01F000
01F800
01F800
03B800
039C00
071C00
071C00
070E00
0E0E00
0E0E00
0E0700
1C0700
1C0780
1FFF80
3FFF80
3803C0
3801C0
7001C0
7001E0
F000E0
E000E0
E000F0
ENDCHAR
STARTCHAR char195
ENCODING 195
SWIDTH 2 0
DWIDTH 21 0
BBX 20 29 1 0
BITMAP
03C600
07FC00
067C00
000000
000000
000000
00F000
01F000
01F800
01F800
03B800
039C00
071C00
071C00
070E00
0E0E00
0E0E00
0E0700
1C0700
1C0780
1FFF80
3FFF80
3803C0
3801C0
7001C0
7001E0
F000E0
E000E0
E000F0
ENDCHAR
STARTCHAR char196
ENCODING 196
SWIDTH 2 0
DWIDTH 21 0
BBX 20 29 1 0
BITMAP
079C00
079C00
079C00
000000
000000
000000
00F000
01F000
01F800
01F800
03B800
039C00
071C00
071C00
070E00
0E0E00
0E0E00
0E0700
1C0700
1C0780
1FFF80
3FFF80
3803C0
3801C0
7001C0
7001E0
F000E0
E000E0
E000F0
ENDCHAR
STARTCHAR char197
ENCODING 197
SWIDTH 2 0
DWIDTH 21 0
BBX 20 30 1 0
BITMAP
00E000
01F000
011800
019000
00F000
000000
000000
00F000
01F000
01F800
01F800
03B800
039C00
071C00
071C00
070E00
0E0E00
0E0E00
0E0700
1C0700
1C0780
1FFF80
3FFF80
3803C0
3801C0
7001C0
7001E0
F000E0
E000E0
E000F0
ENDCHAR
STARTCHAR char198
ENCODING 198
SWIDTH 4 0
DWIDTH 32 0
BBX 29 23 1 0
BITMAP
007FFFF8
00FFFFF8
00FFFFF8
01C38000
01C38000
01C38000
03838000
03838000
07038000
07038000
0703FFF0
0E03FFF0
0E03FFF0
1FFF8000
1FFF8000
3FFF8000
38038000
38038000
70038000
70038000
F003FFF8
E003FFF8
E003FFF8
ENDCHAR
STARTCHAR char199
ENCODING 199
SWIDTH 7 0
DWIDTH 23 0
BBX 20 30 2 -7
BITMAP
01FC00
0FFF00
1FFF80
3C03C0
3801C0
7001E0
7000E0
E00000
E00000
E00000
E00000
E00000
E00000
E00000
E00000
E000F0
E000E0
7000E0
7001E0
3801C0
3E07C0
1FFF80
07FF00
01F800
004000
00F800
003800
001800
073800
03F000
ENDCHAR
STARTCHAR char200
ENCODING 200
SWIDTH 2 0
DWIDTH 21 0
BBX 17 30 3 0
BITMAP
0E0000
070000
038000
018000
00C000
000000
000000
FFFF00
FFFF00
FFFF00
E00000
E00000
E00000
E00000
E00000
E00000
E00000
FFFF00
FFFF00
FFFF00
E00000
E00000
E00000
E00000
E00000
E00000
E00000
FFFF80
FFFF80
FFFF80
ENDCHAR
STARTCHAR char201
ENCODING 201
SWIDTH 2 0
DWIDTH 21 0
BBX 17 30 3 0
BITMAP
007000
00E000
01C000
018000
030000
000000
000000
FFFF00
FFFF00
FFFF00
E00000
E00000
E00000
E00000
E00000
E00000
E00000
FFFF00
FFFF00
FFFF00
E00000
E00000
E00000
E00000
E00000
E00000
E00000
FFFF80
FFFF80
FFFF80
ENDCHAR
STARTCHAR char202
ENCODING 202
SWIDTH 2 0
DWIDTH 21 0
BBX 17 30 3 0
BITMAP
03C000
03C000
07E000
0E7000
0C3000
000000
000000
FFFF00
FFFF00
FFFF00
E00000
E00000
E00000
E00000
E00000
E00000
E00000
FFFF00
FFFF00
FFFF00
E00000
E00000
E00000
E00000
E00000
E00000
E00000
FFFF80
FFFF80
FFFF80
ENDCHAR
STARTCHAR char203
ENCODING 203
SWIDTH 2 0
DWIDTH 21 0
BBX 17 29 3 0
BITMAP
0E7000
0E7000
0E7000
000000
000000
000000
FFFF00
FFFF00
FFFF00
E00000
E00000
E00000
E00000
E00000
E00000
E00000
FFFF00
FFFF00
FFFF00
E00000
E00000
E00000
E00000
E00000
E00000
E00000
FFFF80
FFFF80
FFFF80
ENDCHAR
STARTCHAR char204
ENCODING 204
SWIDTH 25 0
DWIDTH 9 0
BBX 6 30 0 0
BITMAP
F0
70
38
1C
0C
00
00
1C
1C
1C
1C
1C
1C
1C
1C
1C
1C
1C
1C
1C
1C
1C
1C
1C
1C
1C
1C
1C
1C
1C
ENDCHAR
STARTCHAR char205
ENCODING 205
SWIDTH 25 0
DWIDTH 9 0
BBX 6 30 3 0
BITMAP
3C
38
70
E0
C0
00
00
E0
E0
E0
E0
E0
E0
E0
E0
E0
E0
E0
E0
E0
E0
E0
E0
E0
E0
E0
E0
E0
E0
E0
ENDCHAR
STARTCHAR char206
ENCODING 206
SWIDTH 25 0
DWIDTH 9 0
BBX 9 30 0 0
BITMAP
1C00
3E00
3700
6300
C180
0000
0000
1C00
1C00
1C00
1C00
1C00
1C00
1C00
1C00
1C00
1C00
1C00
1C00
1C00
1C00
1C00
1C00
1C00
1C00
1C00
1C00
1C00
1C00
1C00
ENDCHAR
STARTCHAR char207
ENCODING 207
SWIDTH 25 0
DWIDTH 9 0
BBX 9 29 0 0
BITMAP
F780
F780
F780
0000
0000
0000
1C00
1C00
1C00
1C00
1C00
1C00
1C00
1C00
1C00
1C00
1C00
1C00
1C00
1C00
1C00
1C00
1C00
1C00
1C00
1C00
1C00
1C00
1C00
ENDCHAR
STARTCHAR char208
ENCODING 208
SWIDTH 7 0
DWIDTH 23 0
BBX 20 23 1 0
BITMAP
3FFC00
3FFF00
3FFF80
3803C0
3801E0
3800E0
380070
380070
380070
380070
FFC070
FFC070
380070
380070
380070
380070
3800F0
3800E0
3801E0
3803C0
3FFF80
3FFF00
3FFC00
ENDCHAR
STARTCHAR char209
ENCODING 209
SWIDTH 7 0
DWIDTH 23 0
BBX 19 29 2 0
BITMAP
03C600
07FC00
067C00
000000
000000
000000
F000E0
F800E0
F800E0
FC00E0
FE00E0
EE00E0
E700E0
E780E0
E380E0
E1C0E0
E1C0E0
E0E0E0
E0F0E0
E070E0
E038E0
E03CE0
E01CE0
E00EE0
E00FE0
E007E0
E003E0
E003E0
E001E0
ENDCHAR
STARTCHAR char210
ENCODING 210
SWIDTH 13 0
DWIDTH 25 0
BBX 23 29 1 0
BITMAP
01E000
007000
003000
001800
000000
000000
00FE00
07FF80
0FFFE0
1F01F0
3C0078
380038
70001C
70001C
F0001C
E0000E
E0000E
E0000E
E0000E
E0000E
F0001C
70001C
70001C
380038
3C0078
1F01F0
0FFFE0
03FF80
00FE00
ENDCHAR
STARTCHAR char211
ENCODING 211
SWIDTH 13 0
DWIDTH 25 0
BBX 23 29 1 0
BITMAP
000E00
001C00
001800
003000
000000
000000
00FE00
07FF80
0FFFE0
1F01F0
3C0078
380038
70001C
70001C
F0001C
E0000E
E0000E
E0000E
E0000E
E0000E
F0001C
70001C
70001C
380038
3C0078
1F01F0
0FFFE0
03FF80
00FE00
ENDCHAR
STARTCHAR char212
ENCODING 212
SWIDTH 13 0
DWIDTH 25 0
BBX 23 29 1 0
BITMAP
007C00
006C00
00EE00
01C600
000100
000000
00FE00
07FF80
0FFFE0
1F01F0
3C0078
380038
70001C
70001C
F0001C
E0000E
E0000E
E0000E
E0000E
E0000E
F0001C
70001C
70001C
380038
3C0078
1F01F0
0FFFE0
03FF80
00FE00
ENDCHAR
STARTCHAR char213
ENCODING 213
SWIDTH 13 0
DWIDTH 25 0
BBX 23 29 1 0
BITMAP
00E100
01F300
019F00
000E00
000000
000000
00FE00
07FF80
0FFFE0
1F01F0
3C0078
380038
70001C
70001C
F0001C
E0000E
E0000E
E0000E
E0000E
E0000E
F0001C
70001C
70001C
380038
3C0078
1F01F0
0FFFE0
03FF80
00FE00
ENDCHAR
STARTCHAR char214
ENCODING 214
SWIDTH 13 0
DWIDTH 25 0
BBX 23 28 1 0
BITMAP
01EF00
01EF00
01EF00
000000
000000
00FE00
07FF80
0FFFE0
1F01F0
3C0078
380038
70001C
70001C
F0001C
E0000E
E0000E
E0000E
E0000E
E0000E
F0001C
70001C
70001C
380038
3C0078
1F01F0
0FFFE0
03FF80
00FE00
ENDCHAR
STARTCHAR char215
ENCODING 215
SWIDTH 24 0
DWIDTH 19 0
BBX 12 13 3 1
BITMAP
4000
E030
7070
38E0
1DC0
0F80
0700
0F80
1DC0
38E0
7070
E030
4000
ENDCHAR
STARTCHAR char216
ENCODING 216
SWIDTH 13 0
DWIDTH 25 0
BBX 23 23 1 0
BITMAP
00FE06
07FF8C
0FFFF8
1F01F0
3C0078
3800F8
7001BC
70031C
E0061C
E00C1C
E0180E
E0300E
E0600E
E0C01C
E1801C
73001C
76003C
3C0038
3C0078
3E01F0
6FFFE0
C7FF80
00FE00
ENDCHAR
STARTCHAR char217
ENCODING 217
SWIDTH 7 0
DWIDTH 23 0
BBX 18 30 3 0
BITMAP
0F0000
070000
038000
01C000
00C000
000000
000000
E001C0
E001C0
E001C0
E001C0
E001C0
E001C0
E001C0
E001C0
E001C0
E001C0
E001C0
E001C0
E001C0
E001C0
E001C0
E001C0
E001C0
E00380
F00380
780F00
3FFF00
1FFC00
07F000
ENDCHAR
STARTCHAR char218
ENCODING 218
SWIDTH 7 0
DWIDTH 23 0
BBX 18 30 3 0
BITMAP
007800
007000
00E000
01C000
018000
000000
000000
E001C0
E001C0
E001C0
E001C0
E001C0
E001C0
E001C0
E001C0
E001C0
E001C0
E001C0
E001C0
E001C0
E001C0
E001C0
E001C0
E001C0
E00380
F00380
780F00
3FFF00
1FFC00
07F000
ENDCHAR
STARTCHAR char219
ENCODING 219
SWIDTH 7 0
DWIDTH 23 0
BBX 18 30 3 0
BITMAP
01C000
03E000
037000
063000
0E1800
000000
000000
E001C0
E001C0
E001C0
E001C0
E001C0
E001C0
E001C0
E001C0
E001C0
E001C0
E001C0
E001C0
E001C0
E001C0
E001C0
E001C0
E001C0
E00380
F00380
780F00
3FFF00
1FFC00
07F000
ENDCHAR
STARTCHAR char220
ENCODING 220
SWIDTH 7 0
DWIDTH 23 0
BBX 18 29 3 0
BITMAP
0F3800
0F3800
0F3800
000000
000000
000000
E001C0
E001C0
E001C0
E001C0
E001C0
E001C0
E001C0
E001C0
E001C0
E001C0
E001C0
E001C0
E001C0
E001C0
E001C0
E001C0
E001C0
E00380
F00380
780F00
3FFF00
1FFC00
07F000
ENDCHAR
STARTCHAR char221
ENCODING 221
SWIDTH 2 0
DWIDTH 21 0
BBX 20 30 1 0
BITMAP
001C00
003800
007000
006000
00C000
000000
000000
E000F0
F000E0
7801E0
3803C0
3C0380
1C0780
0E0700
0F0E00
070E00
079C00
03BC00
01F800
01F000
00F000
00E000
00E000
00E000
00E000
00E000
00E000
00E000
00E000
00E000
ENDCHAR
STARTCHAR char222
ENCODING 222
SWIDTH 2 0
DWIDTH 21 0
BBX 17 23 3 0
BITMAP
E00000
E00000
E00000
E00000
FFF800
FFFC00
FFFE00
E00F00
E00700
E00780
E00780
E00780
E00700
E00F00
FFFE00
FFFE00
FFF800
E00000
E00000
E00000
E00000
E00000
E00000
ENDCHAR
STARTCHAR char223
ENCODING 223
SWIDTH 27 0
DWIDTH 20 0
BBX 16 23 2 0
BITMAP
0FE0
3FF8
7FFC
701C
E01C
E00E
E00E
E01C
E03C
E1F0
E1F0
E1FC
E01E
E00E
E007
E007
E007
E007
E00E
E01E
E3FC
E3F8
E3E0
ENDCHAR
STARTCHAR char224
ENCODING 224
SWIDTH 22 0
DWIDTH 18 0
BBX 16 23 1 0
BITMAP
0E00
0700
0380
0180
0040
0000
07E0
1FF8
3EFC
701C
701C
001C
001C
03FC
3FFC
7C1C
701C
E01C
E01C
F03C
79FE
3FCF
1F8F
ENDCHAR
STARTCHAR char225
ENCODING 225
SWIDTH 22 0
DWIDTH 18 0
BBX 16 23 1 0
BITMAP
00F0
00E0
01C0
0380
0000
0000
07E0
1FF8
3EFC
701C
701C
001C
001C
03FC
3FFC
7C1C
701C
E01C
E01C
F03C
79FE
3FCF
1F8F
ENDCHAR
STARTCHAR char226
ENCODING 226
SWIDTH 22 0
DWIDTH 18 0
BBX 16 23 1 0
BITMAP
03C0
07C0
0660
0C70
0000
0000
07E0
1FF8
3EFC
701C
701C
001C
001C
03FC
3FFC
7C1C
701C
E01C
E01C
F03C
79FE
3FCF
1F8F
ENDCHAR
STARTCHAR char227
ENCODING 227
SWIDTH 22 0
DWIDTH 18 0
BBX 16 23 1 0
BITMAP
0F18
1FF0
19F0
0000
0000
0000
07E0
1FF8
3EFC
701C
701C
001C
001C
03FC
3FFC
7C1C
701C
E01C
E01C
F03C
79FE
3FCF
1F8F
ENDCHAR
STARTCHAR char228
ENCODING 228
SWIDTH 22 0
DWIDTH 18 0
BBX 16 23 1 0
BITMAP
1E70
1E70
1E70
0000
0000
0000
07E0
1FF8
3EFC
701C
701C
001C
001C
03FC
3FFC
7C1C
701C
E01C
E01C
F03C
79FE
3FCF
1F8F
ENDCHAR
STARTCHAR char229
ENCODING 229
SWIDTH 22 0
DWIDTH 18 0
BBX 16 24 1 0
BITMAP
0380
07C0
0460
0460
07C0
0380
0000
07E0
1FF8
3EFC
701C
701C
001C
001C
03FC
3FFC
7C1C
701C
E01C
E01C
F03C
79FE
3FCF
1F8F
ENDCHAR
STARTCHAR char230
ENCODING 230
SWIDTH 21 0
DWIDTH 28 0
BBX 26 17 1 0
BITMAP
0FE0F800
3FF3FE00
3EFFDF00
701E0380
701E0380
001C01C0
001C01C0
07FFFFC0
3FFFFFC0
7C1C0000
F01C0000
E01C01C0
E01E0380
E03E0380
79E7DF00
7FC3FE00
1F00FC00
ENDCHAR
STARTCHAR char231
ENCODING 231
SWIDTH 16 0
DWIDTH 16 0
BBX 14 24 1 -7
BITMAP
07C0
1FF0
3EF8
7838
701C
E01C
E000
E000
E000
E000
E000
E00C
E01C
701C
7838
3FF8
1FF0
0780
0200
07C0
00C0
00C0
19C0
0F80
ENDCHAR
STARTCHAR char232
ENCODING 232
SWIDTH 22 0
DWIDTH 18 0
BBX 15 23 1 0
BITMAP
0E00
0700
0380
0180
0040
0000
07E0
1FF8
3FFC
781C
700E
600E
E00E
FFFE
FFFE
E000
E000
600E
700E
781C
3FFC
1FF8
07E0
ENDCHAR
STARTCHAR char233
ENCODING 233
SWIDTH 22 0
DWIDTH 18 0
BBX 15 23 1 0
BITMAP
00F0
00E0
01C0
0380
0000
0000
07E0
1FF8
3FFC
781C
700E
600E
E00E
FFFE
FFFE
E000
E000
600E
700E
781C
3FFC
1FF8
07E0
ENDCHAR
STARTCHAR char234
ENCODING 234
SWIDTH 22 0
DWIDTH 18 0
BBX 15 23 1 0
BITMAP
03C0
03E0
0660
0C30
0000
0000
07E0
1FF8
3FFC
781C
700E
600E
E00E
FFFE
FFFE
E000
E000
600E
700E
781C
3FFC
1FF8
07E0
ENDCHAR
STARTCHAR char235
ENCODING 235
SWIDTH 22 0
DWIDTH 18 0
BBX 15 23 1 0
BITMAP
0E70
0E70
0E70
0000
0000
0000
07E0
1FF8
3FFC
781C
700E
600E
E00E
FFFE
FFFE
E000
E000
600E
700E
781C
3FFC
1FF8
07E0
ENDCHAR
STARTCHAR char236
ENCODING 236
SWIDTH 25 0
DWIDTH 9 0
BBX 6 23 0 0
BITMAP
F0
38
18
0C
00
00
1C
1C
1C
1C
1C
1C
1C
1C
1C
1C
1C
1C
1C
1C
1C
1C
1C
ENDCHAR
STARTCHAR char237
ENCODING 237
SWIDTH 25 0
DWIDTH 9 0
BBX 5 23 3 0
BITMAP
38
70
E0
C0
00
00
E0
E0
E0
E0
E0
E0
E0
E0
E0
E0
E0
E0
E0
E0
E0
E0
E0
ENDCHAR
STARTCHAR char238
ENCODING 238
SWIDTH 25 0
DWIDTH 9 0
BBX 8 23 0 0
BITMAP
3C
3E
67
C3
00
00
1C
1C
1C
1C
1C
1C
1C
1C
1C
1C
1C
1C
1C
1C
1C
1C
1C
ENDCHAR
STARTCHAR char239
ENCODING 239
SWIDTH 25 0
DWIDTH 9 0
BBX 9 23 0 0
BITMAP
E780
E780
E780
0000
0000
0000
1C00
1C00
1C00
1C00
1C00
1C00
1C00
1C00
1C00
1C00
1C00
1C00
1C00
1C00
1C00
1C00
1C00
ENDCHAR
STARTCHAR char240
ENCODING 240
SWIDTH 22 0
DWIDTH 18 0
BBX 15 24 1 0
BITMAP
1000
3860
1FC0
0F00
3FC0
31E0
00F0
07F0
1FF8
3EFC
781C
700E
E00E
E00E
E00E
E006
E00E
E00E
E00E
700E
781C
3FFC
1FF8
07E0
ENDCHAR
STARTCHAR char241
ENCODING 241
SWIDTH 22 0
DWIDTH 18 0
BBX 14 23 2 0
BITMAP
1E30
3FF0
33E0
0000
0000
0000
E7E0
EFF0
FEF8
F038
F01C
E01C
E01C
E01C
E01C
E01C
E01C
E01C
E01C
E01C
E01C
E01C
E01C
ENDCHAR
STARTCHAR char242
ENCODING 242
SWIDTH 22 0
DWIDTH 18 0
BBX 15 23 1 0
BITMAP
0E00
0700
0380
0180
0000
0000
07E0
1FF0
3FFC
781C
700E
E00E
E00E
E00E
E006
E00E
E00E
E00E
700E
781C
3FF8
1FF8
07E0
ENDCHAR
STARTCHAR char243
ENCODING 243
SWIDTH 22 0
DWIDTH 18 0
BBX 15 23 1 0
BITMAP
00F0
01E0
0180
0300
0000
0000
07E0
1FF0
3FFC
781C
700E
E00E
E00E
E00E
E006
E00E
E00E
E00E
700E
781C
3FF8
1FF8
07E0
ENDCHAR
STARTCHAR char244
ENCODING 244
SWIDTH 22 0
DWIDTH 18 0
BBX 15 23 1 0
BITMAP
03C0
07C0
0EE0
0C70
0000
0000
07E0
1FF0
3FFC
781C
700E
E00E
E00E
E00E
E006
E00E
E00E
E00E
700E
781C
3FF8
1FF8
07E0
ENDCHAR
STARTCHAR char245
ENCODING 245
SWIDTH 22 0
DWIDTH 18 0
BBX 15 23 1 0
BITMAP
0F18
1FF0
19F0
0000
0000
0000
07E0
1FF0
3FFC
781C
700E
E00E
E00E
E00E
E006
E00E
E00E
E00E
700E
781C
3FF8
1FF8
07E0
ENDCHAR
STARTCHAR char246
ENCODING 246
SWIDTH 22 0
DWIDTH 18 0
BBX 15 23 1 0
BITMAP
1E70
1E70
1E70
0000
0000
0000
07E0
1FF0
3FFC
781C
700E
E00E
E00E
E00E
E006
E00E
E00E
E00E
700E
781C
3FF8
1FF8
07E0
ENDCHAR
STARTCHAR char247
ENCODING 247
SWIDTH 24 0
DWIDTH 19 0
BBX 15 15 2 0
BITMAP
0380
0380
0380
0000
0000
0000
FFFE
FFFE
0000
0000
0000
0000
0380
0380
0380
ENDCHAR
STARTCHAR char248
ENCODING 248
SWIDTH 27 0
DWIDTH 20 0
BBX 15 17 1 0
BITMAP
07E2
1FF2
3FFC
781C
701E
E03E
E06E
E0CE
E186
E30E
E60E
EC0E
780E
781C
7EF8
DFF8
87E0
ENDCHAR
STARTCHAR char249
ENCODING 249
SWIDTH 22 0
DWIDTH 18 0
BBX 13 23 2 -1
BITMAP
1C00
0E00
0600
0300
0180
0000
E018
E018
E018
E018
E018
E018
E018
E018
E018
E018
E018
E038
E038
E078
79F8
7FD8
1F98
ENDCHAR
STARTCHAR char250
ENCODING 250
SWIDTH 22 0
DWIDTH 18 0
BBX 13 23 2 -1
BITMAP
01E0
03C0
0380
0600
0C00
0000
E018
E018
E018
E018
E018
E018
E018
E018
E018
E018
E018
E038
E038
E078
79F8
7FD8
1F98
ENDCHAR
STARTCHAR char251
ENCODING 251
SWIDTH 22 0
DWIDTH 18 0
BBX 13 23 2 -1
BITMAP
0780
0F80
0DC0
18E0
3060
0000
E018
E018
E018
E018
E018
E018
E018
E018
E018
E018
E018
E038
E038
E078
79F8
7FD8
1F98
ENDCHAR
STARTCHAR char252
ENCODING 252
SWIDTH 22 0
DWIDTH 18 0
BBX 13 23 2 -1
BITMAP
3CE0
3CE0
3CE0
0000
0000
0000
E018
E018
E018
E018
E018
E018
E018
E018
E018
E018
E018
E038
E038
E078
79F8
7FD8
1F98
ENDCHAR
STARTCHAR char253
ENCODING 253
SWIDTH 16 0
DWIDTH 16 0
BBX 14 30 1 -7
BITMAP
01E0
01C0
0300
0600
0000
0000
E01C
E01C
E018
7038
7038
7070
3870
3870
38E0
1CE0
1CC0
1DC0
0FC0
0F80
0F80
0780
0700
0700
0700
0E00
0E00
7C00
7C00
7800
ENDCHAR
STARTCHAR char254
ENCODING 254
SWIDTH 22 0
DWIDTH 18 0
BBX 15 29 2 -6
BITMAP
C000
C000
C000
C000
C000
C000
C7C0
DFF0
FFF8
F038
E01C
E01C
E00C
C00E
C00E
C00E
E00E
E01C
E01C
F03C
FFF8
DFF0
C7C0
C000
C000
C000
C000
C000
C000
ENDCHAR
STARTCHAR char255
ENCODING 255
SWIDTH 16 0
DWIDTH 16 0
BBX 14 30 1 -7
BITMAP
1CE0
1CE0
1CE0
0000
0000
0000
E01C
E01C
E018
7038
7038
7070
3870
3870
38E0
1CE0
1CC0
1DC0
0FC0
0F80
0F80
0780
0700
0700
0700
0E00
0E00
7C00
7C00
7800
ENDCHAR
STARTCHAR char256
ENCODING 256
SWIDTH 2 0
DWIDTH 21 0
BBX 20 28 1 0
BITMAP
07FC00
07FC00
000000
000000
000000
00F000
01F000
01F800
01F800
03B800
039C00
071C00
071C00
070E00
0E0E00
0E0E00
0E0700
1C0700
1C0780
1FFF80
3FFF80
3803C0
3801C0
7001C0
7001E0
F000E0
E000E0
E000F0
ENDCHAR
STARTCHAR char257
ENCODING 257
SWIDTH 22 0
DWIDTH 18 0
BBX 16 22 1 0
BITMAP
1FF0
1FF0
0000
0000
0000
07E0
1FF8
3EFC
701C
701C
001C
001C
03FC
3FFC
7C1C
701C
E01C
E01C
F03C
79FE
3FCF
1F8F
ENDCHAR
STARTCHAR char258
ENCODING 258
SWIDTH 2 0
DWIDTH 21 0
BBX 20 29 1 0
BITMAP
060C00
071C00
03FC00
01F000
000000
000000
00F000
01F000
01F800
01F800
03B800
039C00
071C00
071C00
070E00
0E0E00
0E0E00
0E0700
1C0700
1C0780
1FFF80
3FFF80
3803C0
3801C0
7001C0
7001E0
F000E0
E000E0
E000F0
ENDCHAR
STARTCHAR char259
ENCODING 259
SWIDTH 22 0
DWIDTH 18 0
BBX 16 23 1 0
BITMAP
1818
1C30
0FF0
07E0
0000
0000
07E0
1FF8
3EFC
701C
701C
001C
001C
03FC
3FFC
7C1C
701C
E01C
E01C
F03C
79FE
3FCF
1F8F
ENDCHAR
STARTCHAR char260
ENCODING 260
SWIDTH 2 0
DWIDTH 21 0
BBX 21 29 1 -6
BITMAP
00F000
01F000
01F800
01F800
03B800
039C00
071C00
071C00
070E00
0E0E00
0E0E00
0E0700
1C0700
1C0780
1FFF80
3FFF80
3803C0
3801C0
7001C0
7001E0
F000E0
E000E0
E000F0
000060
0001C0
000180
000380
000180
0001F8
ENDCHAR
STARTCHAR char261
ENCODING 261
SWIDTH 22 0
DWIDTH 18 0
BBX 18 23 1 -6
BITMAP
07E000
1FF800
3EFC00
781C00
701C00
001C00
001C00
03FC00
3FFC00
7C1C00
701C00
E01C00
E01C00
703C00
79FE00
3FCF00
1F8F00
000600
000C00
001C00
001C00
000FC0
0007C0
ENDCHAR
STARTCHAR char262
ENCODING 262
SWIDTH 7 0
DWIDTH 23 0
BBX 20 29 2 0
BITMAP
003C00
003800
007000
006000
000000
000000
01FC00
0FFF00
1FFF80
3C03C0
7801C0
7000E0
F000E0
E00000
E00000
E00000
E00000
E00000
E00000
E00000
E00070
E000E0
F000E0
7000E0
7801C0
3C03C0
1FFF80
0FFF00
01FC00
ENDCHAR
STARTCHAR char263
ENCODING 263
SWIDTH 16 0
DWIDTH 16 0
BBX 14 23 1 0
BITMAP
00F0
00E0
0180
0300
0000
0000
07C0
1FF0
3EF8
783C
701C
E01C
E000
E000
E000
E000
E000
E01C
701C
783C
3EF8
1FF0
07C0
ENDCHAR
STARTCHAR char264
ENCODING 264
SWIDTH 7 0
DWIDTH 23 0
BBX 20 29 2 0
BITMAP
00F000
01F800
019800
030C00
000000
000000
01FC00
0FFF00
1FFF80
3C03C0
7801C0
7000E0
F000E0
E00000
E00000
E00000
E00000
E00000
E00000
E00000
E00070
E000E0
F000E0
7000E0
7801C0
3C03C0
1FFF80
0FFF00
01FC00
ENDCHAR
STARTCHAR char265
ENCODING 265
SWIDTH 16 0
DWIDTH 16 0
BBX 14 23 1 0
BITMAP
0380
07C0
0EE0
0C60
1010
0000
07C0
1FF0
3EF8
783C
701C
E01C
E000
E000
E000
E000
E000
E01C
701C
783C
3EF8
1FF0
07C0
ENDCHAR
STARTCHAR char266
ENCODING 266
SWIDTH 7 0
DWIDTH 23 0
BBX 20 28 2 0
BITMAP
007000
007000
007000
000000
000000
01FC00
0FFF00
1FFF80
3C03C0
7801C0
7000E0
F000E0
E00000
E00000
E00000
E00000
E00000
E00000
E00000
E00070
E000E0
F000E0
7000E0
7801C0
3C03C0
1FFF80
0FFF00
01FC00
ENDCHAR
STARTCHAR char267
ENCODING 267
SWIDTH 16 0
DWIDTH 16 0
BBX 14 23 1 0
BITMAP
0380
0380
0380
0000
0000
0000
07C0
1FF0
3EF8
783C
701C
E01C
E000
E000
E000
E000
E000
E01C
701C
783C
3EF8
1FF0
07C0
ENDCHAR
STARTCHAR char268
ENCODING 268
SWIDTH 7 0
DWIDTH 23 0
BBX 20 29 2 0
BITMAP
030C00
019C00
01F800
00F000
000000
000000
01FC00
0FFF00
1FFF80
3C03C0
7801C0
7000E0
F000E0
E00000
E00000
E00000
E00000
E00000
E00000
E00000
E00070
E000E0
F000E0
7000E0
7801C0
3C03C0
1FFF80
0FFF00
01FC00
ENDCHAR
STARTCHAR char269
ENCODING 269
SWIDTH 16 0
DWIDTH 16 0
BBX 14 23 1 0
BITMAP
1830
0C60
06C0
07C0
0000
0000
07C0
1FF0
3EF8
783C
701C
E01C
E000
E000
E000
E000
E000
E01C
701C
783C
3EF8
1FF0
07C0
ENDCHAR
STARTCHAR char270
ENCODING 270
SWIDTH 7 0
DWIDTH 23 0
BBX 18 30 3 0
BITMAP
183000
0C7000
06E000
07C000
03C000
000000
000000
FFF000
FFFC00
FFFE00
E00F00
E00780
E00380
E003C0
E001C0
E001C0
E001C0
E001C0
E001C0
E001C0
E001C0
E001C0
E001C0
E003C0
E00380
E00780
E00F00
FFFE00
FFFC00
FFF000
ENDCHAR
STARTCHAR char271
ENCODING 271
SWIDTH 2 0
DWIDTH 21 0
BBX 20 23 1 0
BITMAP
000E70
000E70
000E70
000E30
000E30
000E20
0FCE40
1FEE00
3FFE00
783E00
F01E00
E00E00
E00E00
E00E00
E00E00
E00E00
E00E00
E00E00
701E00
783E00
3EFE00
1FEE00
0FCE00
ENDCHAR
STARTCHAR char272
ENCODING 272
SWIDTH 7 0
DWIDTH 23 0
BBX 20 23 1 0
BITMAP
3FFC00
3FFF00
3FFF80
3803C0
3801E0
3800E0
380070
380070
380070
380070
FFC070
FFC070
380070
380070
380070
380070
3800F0
3800E0
3801E0
3803C0
3FFF80
3FFF00
3FFC00
ENDCHAR
STARTCHAR char273
ENCODING 273
SWIDTH 22 0
DWIDTH 18 0
BBX 17 23 1 0
BITMAP
000E00
000E00
01FF80
01FF80
000E00
000E00
0FCE00
1FEE00
3FFE00
783E00
F01E00
E01E00
E00E00
E00E00
E00E00
E00E00
E00E00
E00E00
701E00
783E00
3FFE00
1FEE00
0FCE00
ENDCHAR
STARTCHAR char274
ENCODING 274
SWIDTH 2 0
DWIDTH 21 0
BBX 17 28 3 0
BITMAP
0FF000
0FF000
000000
000000
000000
FFFF00
FFFF00
FFFF00
E00000
E00000
E00000
E00000
E00000
E00000
E00000
FFFF00
FFFF00
FFFF00
E00000
E00000
E00000
E00000
E00000
E00000
E00000
FFFF80
FFFF80
FFFF80
ENDCHAR
STARTCHAR char275
ENCODING 275
SWIDTH 22 0
DWIDTH 18 0
BBX 15 22 1 0
BITMAP
0FF8
0FF8
0000
0000
0000
07E0
1FF8
3FFC
781C
700E
600E
E00E
FFFE
FFFE
E000
E000
600E
700E
781C
3FFC
1FF8
07E0
ENDCHAR
STARTCHAR char276
ENCODING 276
SWIDTH 2 0
DWIDTH 21 0
BBX 17 29 3 0
BITMAP
181800
1C3000
0FF000
07E000
000000
000000
FFFF00
FFFF00
FFFF00
E00000
E00000
E00000
E00000
E00000
E00000
E00000
FFFF00
FFFF00
FFFF00
E00000
E00000
E00000
E00000
E00000
E00000
E00000
FFFF80
FFFF80
FFFF80
ENDCHAR
STARTCHAR char277
ENCODING 277
SWIDTH 22 0
DWIDTH 18 0
BBX 15 23 1 0
BITMAP
1818
0C38
0FF0
07E0
0000
0000
07E0
1FF8
3FFC
781C
700E
600E
E00E
FFFE
FFFE
E000
E000
600E
700E
781C
3FFC
1FF8
07E0
ENDCHAR
STARTCHAR char278
ENCODING 278
SWIDTH 2 0
DWIDTH 21 0
BBX 17 29 3 0
BITMAP
03C000
03C000
03C000
000000
000000
000000
FFFF00
FFFF00
FFFF00
E00000
E00000
E00000
E00000
E00000
E00000
E00000
FFFF00
FFFF00
FFFF00
E00000
E00000
E00000
E00000
E00000
E00000
E00000
FFFF80
FFFF80
FFFF80
ENDCHAR
STARTCHAR char279
ENCODING 279
SWIDTH 22 0
DWIDTH 18 0
BBX 15 23 1 0
BITMAP
03C0
03C0
03C0
0000
0000
0000
07E0
1FF8
3FFC
781C
700E
600E
E00E
FFFE
FFFE
E000
E000
600E
700E
781C
3FFC
1FF8
07E0
ENDCHAR
STARTCHAR char280
ENCODING 280
SWIDTH 2 0
DWIDTH 21 0
BBX 18 29 3 -6
BITMAP
FFFF00
FFFF00
FFFF00
E00000
E00000
E00000
E00000
E00000
E00000
E00000
FFFF00
FFFF00
FFFF00
E00000
E00000
E00000
E00000
E00000
E00000
E00000
FFFF80
FFFF80
FFFF80
000700
000C00
001C00
001C00
001C00
000FC0
ENDCHAR
STARTCHAR char281
ENCODING 281
SWIDTH 22 0
DWIDTH 18 0
BBX 15 23 1 -6
BITMAP
07E0
1FF8
3FFC
781C
700E
600E
E006
FFFE
FFFE
E000
E000
600E
700E
781C
3E7C
1FF8
07F0
0060
00C0
00C0
00C0
00F6
003E
ENDCHAR
STARTCHAR char282
ENCODING 282
SWIDTH 2 0
DWIDTH 21 0
BBX 17 30 3 0
BITMAP
0C3000
0E3000
066000
03E000
03C000
000000
000000
FFFF00
FFFF00
FFFF00
E00000
E00000
E00000
E00000
E00000
E00000
E00000
FFFF00
FFFF00
FFFF00
E00000
E00000
E00000
E00000
E00000
E00000
E00000
FFFF80
FFFF80
FFFF80
ENDCHAR
STARTCHAR char283
ENCODING 283
SWIDTH 22 0
DWIDTH 18 0
BBX 15 23 1 0
BITMAP
0C30
0670
0760
03C0
0000
0000
07E0
1FF8
3FFC
781C
700E
600E
E00E
FFFE
FFFE
E000
E000
600E
700E
781C
3FFC
1FF8
07E0
ENDCHAR
STARTCHAR char284
ENCODING 284
SWIDTH 13 0
DWIDTH 25 0
BBX 22 29 1 0
BITMAP
007800
007C00
00CE00
01C600
000000
000000
00FE00
03FFC0
0FFFE0
1F01F0
3C0070
380038
700038
700000
700000
700000
E00FFC
E00FFC
E00FFC
70001C
70001C
70001C
78003C
38003C
3C007C
1F01FC
0FFFDC
07FF8C
00FC00
ENDCHAR
STARTCHAR char285
ENCODING 285
SWIDTH 22 0
DWIDTH 18 0
BBX 14 29 1 -6
BITMAP
03C0
07C0
0E60
0C30
0000
0000
078C
1FEC
3FFC
783C
701C
E01C
E01C
E00C
E00C
E00C
E01C
E01C
701C
703C
3FEC
1FCC
078C
001C
601C
701C
7878
3FF0
1FE0
ENDCHAR
STARTCHAR char286
ENCODING 286
SWIDTH 13 0
DWIDTH 25 0
BBX 22 29 1 0
BITMAP
018180
01C300
00FF00
007E00
000000
000000
00FE00
03FFC0
0FFFE0
1F01F0
3C0070
380038
700038
700000
700000
700000
E00FFC
E00FFC
E00FFC
70001C
70001C
70001C
78003C
38003C
3C007C
1F01FC
0FFFDC
07FF8C
00FC00
ENDCHAR
STARTCHAR char287
ENCODING 287
SWIDTH 22 0
DWIDTH 18 0
BBX 14 29 1 -6
BITMAP
1830
1C30
0FF0
07E0
0000
0000
078C
1FEC
3FFC
783C
701C
E01C
E01C
E00C
E00C
E00C
E01C
E01C
701C
703C
3FEC
1FCC
078C
001C
601C
701C
7878
3FF0
1FE0
ENDCHAR
STARTCHAR char288
ENCODING 288
SWIDTH 13 0
DWIDTH 25 0
BBX 22 28 1 0
BITMAP
003800
003800
003800
000000
000000
00FE00
03FFC0
0FFFE0
1F01F0
3C0070
380038
700038
700000
700000
700000
E00FFC
E00FFC
E00FFC
70001C
70001C
70001C
78003C
38003C
3C007C
1F01FC
0FFFDC
07FF8C
00FC00
ENDCHAR
STARTCHAR char289
ENCODING 289
SWIDTH 22 0
DWIDTH 18 0
BBX 14 29 1 -6
BITMAP
0380
0380
0380
0000
0000
0000
078C
1FEC
3FFC
783C
701C
E01C
E01C
E00C
E00C
E00C
E01C
E01C
701C
703C
3FEC
1FCC
078C
001C
601C
701C
7878
3FF0
1FE0
ENDCHAR
STARTCHAR char290
ENCODING 290
SWIDTH 13 0
DWIDTH 25 0
BBX 22 31 1 -8
BITMAP
00FE00
03FFC0
0FFFE0
1F01F0
3C0070
380038
700038
700000
700000
700000
E00FFC
E00FFC
E00FFC
70001C
70001C
70001C
78003C
38003C
3C007C
1F01FC
0FFFDC
07FF8C
00FC00
000000
003800
003800
003800
000800
001800
001000
003000
ENDCHAR
STARTCHAR char291
ENCODING 291
SWIDTH 22 0
DWIDTH 18 0
BBX 14 32 1 -6
BITMAP
0180
0300
0200
0200
0380
0380
0380
0000
0000
078C
1FEC
3FFC
783C
701C
E01C
E01C
E00C
E00C
E00C
E01C
E01C
701C
703C
3FEC
1FCC
078C
001C
601C
701C
7878
3FF0
1FE0
ENDCHAR
STARTCHAR char292
ENCODING 292
SWIDTH 7 0
DWIDTH 23 0
BBX 18 30 3 0
BITMAP
01E000
01E000
037000
073000
061800
000000
000000
E001C0
E001C0
E001C0
E001C0
E001C0
E001C0
E001C0
E001C0
E001C0
E001C0
FFFFC0
FFFFC0
FFFFC0
E001C0
E001C0
E001C0
E001C0
E001C0
E001C0
E001C0
E001C0
E001C0
E001C0
ENDCHAR
STARTCHAR char293
ENCODING 293
SWIDTH 22 0
DWIDTH 18 0
BBX 17 30 -1 0
BITMAP
1C0000
3E0000
370000
630000
E18000
000000
000000
1C0000
1C0000
1C0000
1C0000
1C0000
1C0000
1C7C00
1DFE00
1FCF00
1E0700
1E0380
1C0380
1C0380
1C0380
1C0380
1C0380
1C0380
1C0380
1C0380
1C0380
1C0380
1C0380
1C0380
ENDCHAR
STARTCHAR char294
ENCODING 294
SWIDTH 7 0
DWIDTH 23 0
BBX 23 23 0 0
BITMAP
1C0038
1C0038
1C0038
1C0038
1C0038
FFFFFE
FFFFFE
1C0038
1C0038
1C0038
1FFFF8
1FFFF8
1FFFF8
1C0038
1C0038
1C0038
1C0038
1C0038
1C0038
1C0038
1C0038
1C0038
1C0038
ENDCHAR
STARTCHAR char295
ENCODING 295
SWIDTH 22 0
DWIDTH 18 0
BBX 16 23 0 0
BITMAP
3800
3800
FFF0
FFF0
3800
3800
38F8
3BFC
3F9E
3C0E
3C07
3807
3807
3807
3807
3807
3807
3807
3807
3807
3807
3807
3807
ENDCHAR
STARTCHAR char296
ENCODING 296
SWIDTH 25 0
DWIDTH 9 0
BBX 10 29 -1 0
BITMAP
38C0
7FC0
EF80
0000
0000
0000
0E00
0E00
0E00
0E00
0E00
0E00
0E00
0E00
0E00
0E00
0E00
0E00
0E00
0E00
0E00
0E00
0E00
0E00
0E00
0E00
0E00
0E00
0E00
ENDCHAR
STARTCHAR char297
ENCODING 297
SWIDTH 25 0
DWIDTH 9 0
BBX 10 23 -1 0
BITMAP
38C0
7FC0
EF80
0000
0000
0000
0E00
0E00
0E00
0E00
0E00
0E00
0E00
0E00
0E00
0E00
0E00
0E00
0E00
0E00
0E00
0E00
0E00
ENDCHAR
STARTCHAR char298
ENCODING 298
SWIDTH 25 0
DWIDTH 9 0
BBX 8 28 1 0
BITMAP
FF
FF
00
00
00
38
38
38
38
38
38
38
38
38
38
38
38
38
38
38
38
38
38
38
38
38
38
38
ENDCHAR
STARTCHAR char299
ENCODING 299
SWIDTH 25 0
DWIDTH 9 0
BBX 8 23 0 0
BITMAP
FF
FF
00
00
00
00
1C
1C
1C
1C
1C
1C
1C
1C
1C
1C
1C
1C
1C
1C
1C
1C
1C
ENDCHAR
STARTCHAR char300
ENCODING 300
SWIDTH 25 0
DWIDTH 9 0
BBX 9 29 0 0
BITMAP
C180
E380
7F00
3E00
0000
0000
1C00
1C00
1C00
1C00
1C00
1C00
1C00
1C00
1C00
1C00
1C00
1C00
1C00
1C00
1C00
1C00
1C00
1C00
1C00
1C00
1C00
1C00
1C00
ENDCHAR
STARTCHAR char301
ENCODING 301
SWIDTH 25 0
DWIDTH 9 0
BBX 9 23 0 0
BITMAP
C180
E380
7F00
3E00
0000
0000
1C00
1C00
1C00
1C00
1C00
1C00
1C00
1C00
1C00
1C00
1C00
1C00
1C00
1C00
1C00
1C00
1C00
ENDCHAR
STARTCHAR char302
ENCODING 302
SWIDTH 25 0
DWIDTH 9 0
BBX 5 29 2 -6
BITMAP
70
70
70
70
70
70
70
70
70
70
70
70
70
70
70
70
70
70
70
70
70
70
70
30
60
E0
C0
E0
78
ENDCHAR
STARTCHAR char303
ENCODING 303
SWIDTH 19 0
DWIDTH 7 0
BBX 5 29 1 -6
BITMAP
70
70
70
00
00
00
70
70
70
70
70
70
70
70
70
70
70
70
70
70
70
70
70
20
60
C0
C0
E0
78
ENDCHAR
STARTCHAR char304
ENCODING 304
SWIDTH 25 0
DWIDTH 9 0
BBX 3 29 3 0
BITMAP
E0
E0
E0
00
00
00
E0
E0
E0
E0
E0
E0
E0
E0
E0
E0
E0
E0
E0
E0
E0
E0
E0
E0
E0
E0
E0
E0
E0
ENDCHAR
STARTCHAR char305
ENCODING 305
SWIDTH 25 0
DWIDTH 9 0
BBX 3 17 3 0
BITMAP
E0
E0
E0
E0
E0
E0
E0
E0
E0
E0
E0
E0
E0
E0
E0
E0
E0
ENDCHAR
STARTCHAR char306
ENCODING 306
SWIDTH 10 0
DWIDTH 24 0
BBX 18 23 3 0
BITMAP
E001C0
E001C0
E001C0
E001C0
E001C0
E001C0
E001C0
E001C0
E001C0
E001C0
E001C0
E001C0
E001C0
E001C0
E001C0
E701C0
E701C0
E701C0
E701C0
E78380
E3FF80
E1FF00
E07C00
ENDCHAR
STARTCHAR char307
ENCODING 307
SWIDTH 10 0
DWIDTH 14 0
BBX 9 30 3 -7
BITMAP
C380
C380
C380
0000
0000
0000
C380
C380
C380
C380
C380
C380
C380
C380
C380
C380
C380
C380
C380
C380
C380
C380
C380
0380
0380
0380
0380
0F00
1F00
1E00
ENDCHAR
STARTCHAR char308
ENCODING 308
SWIDTH 16 0
DWIDTH 16 0
BBX 15 30 1 0
BITMAP
0070
00F8
00DC
018C
0386
0000
0000
0038
0038
0038
0038
0038
0038
0038
0038
0038
0038
0038
0038
0038
0038
0038
E038
E038
E038
E070
F070
7FF0
7FE0
1F80
ENDCHAR
STARTCHAR char309
ENCODING 309
SWIDTH 19 0
DWIDTH 7 0
BBX 9 30 -1 -7
BITMAP
1C00
3E00
7700
E380
0000
0000
1C00
1C00
1C00
1C00
1C00
1C00
1C00
1C00
1C00
1C00
1C00
1C00
1C00
1C00
1C00
1C00
1C00
1C00
1C00
1C00
1C00
3C00
F800
F000
ENDCHAR
STARTCHAR char310
ENCODING 310
SWIDTH 2 0
DWIDTH 21 0
BBX 18 32 3 -9
BITMAP
E00380
E00700
E00E00
E01C00
E03800
E07000
E0E000
E1C000
E38000
E78000
EF8000
FFC000
F9E000
F0E000
E07000
E07800
E03800
E01C00
E01E00
E00F00
E00700
E00780
E003C0
000000
000000
01C000
01C000
01C000
00C000
00C000
008000
018000
ENDCHAR
STARTCHAR char311
ENCODING 311
SWIDTH 16 0
DWIDTH 16 0
BBX 14 32 2 -9
BITMAP
E000
E000
E000
E000
E000
E000
E078
E0F0
E1E0
E3C0
E780
EF00
FF00
FF00
F380
E380
E1C0
E1E0
E0E0
E070
E078
E038
E03C
0000
0000
0700
0700
0700
0100
0100
0300
0600
ENDCHAR
STARTCHAR char312
ENCODING 312
SWIDTH 16 0
DWIDTH 16 0
BBX 13 16 1 0
BITMAP
C038
C060
C0C0
C180
C300
C600
CE00
DE00
F300
E380
C180
C0C0
C0E0
C070
C030
C038
ENDCHAR
STARTCHAR char313
ENCODING 313
SWIDTH 22 0
DWIDTH 18 0
BBX 14 30 3 0
BITMAP
3C00
3800
7000
E000
C000
0000
0000
E000
E000
E000
E000
E000
E000
E000
E000
E000
E000
E000
E000
E000
E000
E000
E000
E000
E000
E000
E000
FFFC
FFFC
FFFC
ENDCHAR
STARTCHAR char314
ENCODING 314
SWIDTH 19 0
DWIDTH 7 0
BBX 6 30 2 0
BITMAP
1C
38
30
60
C0
00
00
E0
E0
E0
E0
E0
E0
E0
E0
E0
E0
E0
E0
E0
E0
E0
E0
E0
E0
E0
E0
E0
E0
E0
ENDCHAR
STARTCHAR char315
ENCODING 315
SWIDTH 22 0
DWIDTH 18 0
BBX 14 32 3 -9
BITMAP
E000
E000
E000
E000
E000
E000
E000
E000
E000
E000
E000
E000
E000
E000
E000
E000
E000
E000
E000
E000
FFFC
FFFC
FFFC
0000
0000
0700
0700
0700
0100
0100
0300
0600
ENDCHAR
STARTCHAR char316
ENCODING 316
SWIDTH 19 0
DWIDTH 7 0
BBX 3 32 2 -9
BITMAP
E0
E0
E0
E0
E0
E0
E0
E0
E0
E0
E0
E0
E0
E0
E0
E0
E0
E0
E0
E0
E0
E0
E0
00
00
E0
E0
E0
20
20
60
C0
ENDCHAR
STARTCHAR char317
ENCODING 317
SWIDTH 22 0
DWIDTH 18 0
BBX 14 23 3 0
BITMAP
E380
E380
E380
E180
E180
E100
E300
E000
E000
E000
E000
E000
E000
E000
E000
E000
E000
E000
E000
E000
FFFC
FFFC
FFFC
ENDCHAR
STARTCHAR char318
ENCODING 318
SWIDTH 28 0
DWIDTH 10 0
BBX 8 23 2 0
BITMAP
E7
E7
E7
E3
E3
E2
E4
E0
E0
E0
E0
E0
E0
E0
E0
E0
E0
E0
E0
E0
E0
E0
E0
ENDCHAR
STARTCHAR char319
ENCODING 319
SWIDTH 22 0
DWIDTH 18 0
BBX 14 23 3 0
BITMAP
E000
E000
E000
E000
E000
E000
E000
E000
E000
E000
E0E0
E0E0
E0E0
E000
E000
E000
E000
E000
E000
E000
FFFC
FFFC
FFFC
ENDCHAR
STARTCHAR char320
ENCODING 320
SWIDTH 2 0
DWIDTH 11 0
BBX 8 23 2 0
BITMAP
E0
E0
E0
E0
E0
E0
E0
E0
E0
E0
E7
E7
E7
E0
E0
E0
E0
E0
E0
E0
E0
E0
E0
ENDCHAR
STARTCHAR char321
ENCODING 321
SWIDTH 22 0
DWIDTH 18 0
BBX 18 23 0 0
BITMAP
1C0000
1C0000
1C0000
1C0000
1C0000
1C0000
1C0000
1C6000
1CE000
1FC000
1F8000
1E0000
7C0000
FC0000
DC0000
9C0000
1C0000
1C0000
1C0000
1C0000
1FFFC0
1FFFC0
1FFFC0
ENDCHAR
STARTCHAR char322
ENCODING 322
SWIDTH 19 0
DWIDTH 7 0
BBX 7 23 0 0
BITMAP
38
38
38
38
38
38
38
38
3A
3E
3C
38
F8
F8
38
38
38
38
38
38
38
38
38
ENDCHAR
STARTCHAR char323
ENCODING 323
SWIDTH 7 0
DWIDTH 23 0
BBX 19 30 2 0
BITMAP
003C00
003800
007000
00E000
00C000
000000
000000
F000E0
F800E0
F800E0
FC00E0
FE00E0
EE00E0
E700E0
E780E0
E380E0
E1C0E0
E1C0E0
E0E0E0
E0F0E0
E070E0
E038E0
E03CE0
E01CE0
E00EE0
E00FE0
E007E0
E003E0
E003E0
E001E0
ENDCHAR
STARTCHAR char324
ENCODING 324
SWIDTH 22 0
DWIDTH 18 0
BBX 14 23 2 0
BITMAP
00E0
01C0
0380
0700
0000
0000
E7E0
EFF0
FEF8
F038
F01C
E01C
E01C
E01C
E01C
E01C
E01C
E01C
E01C
E01C
E01C
E01C
E01C
ENDCHAR
STARTCHAR char325
ENCODING 325
SWIDTH 7 0
DWIDTH 23 0
BBX 19 32 2 -9
BITMAP
F000E0
F800E0
F800E0
FC00E0
FE00E0
EE00E0
E700E0
E780E0
E380E0
E1C0E0
E1C0E0
E0E0E0
E0F0E0
E070E0
E038E0
E03CE0
E01CE0
E00EE0
E00FE0
E007E0
E003E0
E003E0
E001E0
000000
000000
00E000
00E000
00E000
006000
006000
004000
00C000
ENDCHAR
STARTCHAR char326
ENCODING 326
SWIDTH 22 0
DWIDTH 18 0
BBX 14 26 2 -9
BITMAP
E7E0
EFF0
FEF8
F038
F01C
E01C
E01C
E01C
E01C
E01C
E01C
E01C
E01C
E01C
E01C
E01C
E01C
0000
0000
0780
0780
0780
0180
0100
0300
0600
ENDCHAR
STARTCHAR char327
ENCODING 327
SWIDTH 7 0
DWIDTH 23 0
BBX 19 30 2 0
BITMAP
060C00
031800
03B800
01F000
00E000
000000
000000
F000E0
F800E0
F800E0
FC00E0
FE00E0
EE00E0
E700E0
E780E0
E380E0
E1C0E0
E1C0E0
E0E0E0
E0F0E0
E070E0
E038E0
E03CE0
E01CE0
E00EE0
E00FE0
E007E0
E003E0
E003E0
E001E0
ENDCHAR
STARTCHAR char328
ENCODING 328
SWIDTH 22 0
DWIDTH 18 0
BBX 14 23 2 0
BITMAP
1860
1CC0
0FC0
0780
0000
0000
E7E0
EFF0
FEF8
F038
F01C
E01C
E01C
E01C
E01C
E01C
E01C
E01C
E01C
E01C
E01C
E01C
E01C
ENDCHAR
STARTCHAR char329
ENCODING 329
SWIDTH 24 0
DWIDTH 19 0
BBX 17 24 0 0
BITMAP
F00000
F00000
F00000
200000
200000
E00000
C00000
0CFC00
0DFF00
0FCF80
0F0380
0E0380
0E0380
0E0380
0C0380
0C0380
0C0380
0C0380
0C0380
0C0380
0C0380
0C0380
0C0380
0C0380
ENDCHAR
STARTCHAR char330
ENCODING 330
SWIDTH 7 0
DWIDTH 23 0
BBX 17 33 3 -10
BITMAP
01F800
E7FE00
EFFF00
FC0780
F80380
F00380
F00380
E00380
E00380
E00380
E00380
E00380
E00380
E00380
E00380
E00380
E00380
E00380
E00380
E00380
E00380
E00380
E00380
000380
000380
000380
000380
000380
000380
000780
003F80
003F00
003C00
ENDCHAR
STARTCHAR char331
ENCODING 331
SWIDTH 22 0
DWIDTH 18 0
BBX 14 24 2 -7
BITMAP
E3E0
EFF0
FE78
F838
F01C
E01C
E01C
E01C
E01C
E01C
E01C
E01C
E01C
E01C
E01C
E01C
E01C
001C
001C
001C
001C
0038
00F8
00F0
ENDCHAR
STARTCHAR char332
ENCODING 332
SWIDTH 13 0
DWIDTH 25 0
BBX 23 28 1 0
BITMAP
01FF00
01FF00
000000
000000
000000
00FE00
07FF80
0FFFE0
1F01F0
3C0078
380038
70001C
70001C
F0001C
E0000E
E0000E
E0000E
E0000E
E0000E
F0001C
70001C
70001C
380038
3C0078
1F01F0
0FFFE0
03FF80
00FE00
ENDCHAR
STARTCHAR char333
ENCODING 333
SWIDTH 22 0
DWIDTH 18 0
BBX 15 22 1 0
BITMAP
1FF0
1FF0
0000
0000
0000
07E0
1FF0
3FFC
781C
700E
E00E
E00E
E00E
E006
E00E
E00E
E00E
700E
781C
3FF8
1FF8
07E0
ENDCHAR
STARTCHAR char334
ENCODING 334
SWIDTH 13 0
DWIDTH 25 0
BBX 23 29 1 0
BITMAP
018300
018700
01FE00
00FC00
000000
000000
00FE00
07FF80
0FFFE0
1F01F0
3C0078
380038
70001C
70001C
F0001C
E0000E
E0000E
E0000E
E0000E
E0000E
F0001C
70001C
70001C
380038
3C0078
1F01F0
0FFFE0
03FF80
00FE00
ENDCHAR
STARTCHAR char335
ENCODING 335
SWIDTH 22 0
DWIDTH 18 0
BBX 15 23 1 0
BITMAP
1810
1C30
0FF0
07E0
0000
0000
07E0
1FF0
3FFC
781C
700E
E00E
E00E
E00E
E006
E00E
E00E
E00E
700E
781C
3FF8
1FF8
07E0
ENDCHAR
STARTCHAR char336
ENCODING 336
SWIDTH 13 0
DWIDTH 25 0
BBX 23 29 1 0
BITMAP
003CE0
0071C0
006380
00C300
000000
000000
00FE00
07FF80
0FFFE0
1F01F0
3C0078
380038
70001C
70001C
F0001C
E0000E
E0000E
E0000E
E0000E
E0000E
F0001C
70001C
70001C
380038
3C0078
1F01F0
0FFFE0
03FF80
00FE00
ENDCHAR
STARTCHAR char337
ENCODING 337
SWIDTH 22 0
DWIDTH 18 0
BBX 15 23 1 0
BITMAP
03CE
039C
0718
0E30
0860
0000
07E0
1FF0
3FFC
781C
700E
E00E
E00E
E00E
E006
E00E
E00E
E00E
700E
781C
3FF8
1FF8
07E0
ENDCHAR
STARTCHAR char338
ENCODING 338
SWIDTH 4 0
DWIDTH 32 0
BBX 30 23 1 0
BITMAP
01F8FFFC
07FEFFFC
0FFFFFFC
1E07E000
3801E000
7801E000
7000E000
7000E000
7000E000
E000E000
E000FFF8
E000FFF8
E000FFF8
E000E000
7000E000
7000E000
7000E000
7801E000
3801E000
1E07E000
0FFEFFFC
07FCFFFC
01F8FFFC
ENDCHAR
STARTCHAR char339
ENCODING 339
SWIDTH 27 0
DWIDTH 30 0
BBX 28 17 1 0
BITMAP
07E03E00
1FF8FF80
3FFDFFC0
781F81E0
700F00E0
700F0060
E00F0070
E007FFF0
E007FFF0
E0060000
E00F0000
700F0060
700F00E0
781F81E0
3FFDF7C0
1FF8FF80
07E07E00
ENDCHAR
STARTCHAR char340
ENCODING 340
SWIDTH 7 0
DWIDTH 23 0
BBX 19 30 3 0
BITMAP
007800
00F000
00E000
01C000
018000
000000
000000
FFFC00
FFFF00
FFFF80
E00780
E003C0
E001C0
E001C0
E001C0
E00380
E00380
FFFF00
FFFC00
FFFF00
E00780
E00380
E00380
E00380
E00380
E00380
E00380
E003C0
E001C0
E001E0
ENDCHAR
STARTCHAR char341
ENCODING 341
SWIDTH 2 0
DWIDTH 11 0
BBX 8 23 2 0
BITMAP
07
0E
1C
38
00
00
E7
EF
FE
F0
F0
E0
E0
E0
E0
E0
E0
E0
E0
E0
E0
E0
E0
ENDCHAR
STARTCHAR char342
ENCODING 342
SWIDTH 7 0
DWIDTH 23 0
BBX 19 32 3 -9
BITMAP
FFFC00
FFFF00
FFFF80
E00780
E003C0
E001C0
E001C0
E001C0
E00380
E00380
FFFF00
FFFC00
FFFF00
E00780
E00380
E00380
E00380
E00380
E00380
E00380
E003C0
E001C0
E001E0
000000
000000
01C000
01C000
01C000
004000
004000
00C000
018000
ENDCHAR
STARTCHAR char343
ENCODING 343
SWIDTH 2 0
DWIDTH 11 0
BBX 8 26 2 -9
BITMAP
E7
EF
FE
F0
F0
E0
E0
E0
E0
E0
E0
E0
E0
E0
E0
E0
E0
00
00
E0
E0
E0
20
20
60
C0
ENDCHAR
STARTCHAR char344
ENCODING 344
SWIDTH 7 0
DWIDTH 23 0
BBX 19 30 3 0
BITMAP
0C1800
063000
077000
03E000
03C000
000000
000000
FFFC00
FFFF00
FFFF80
E00780
E003C0
E001C0
E001C0
E001C0
E00380
E00380
FFFF00
FFFC00
FFFF00
E00780
E00380
E00380
E00380
E00380
E00380
E00380
E003C0
E001C0
E001E0
ENDCHAR
STARTCHAR char345
ENCODING 345
SWIDTH 2 0
DWIDTH 11 0
BBX 8 23 2 0
BITMAP
C3
67
7E
3C
00
00
E7
EF
FE
F0
F0
E0
E0
E0
E0
E0
E0
E0
E0
E0
E0
E0
E0
ENDCHAR
STARTCHAR char346
ENCODING 346
SWIDTH 2 0
DWIDTH 21 0
BBX 18 29 2 0
BITMAP
007800
00E000
00C000
018000
000000
000000
07F000
1FFC00
3FFE00
780F00
700380
E00380
E00380
F00000
780000
7F0000
3FF000
0FFE00
007F00
000F80
0003C0
C001C0
C001C0
E001C0
F00380
780780
3FFF00
1FFE00
07F800
ENDCHAR
STARTCHAR char347
ENCODING 347
SWIDTH 16 0
DWIDTH 16 0
BBX 14 23 1 0
BITMAP
01E0
01C0
0380
0700
0000
0000
0FC0
3FF0
7FF0
7038
6038
6000
7800
7F80
1FF0
03F8
0038
001C
E01C
F038
7FF8
3FF0
1FC0
ENDCHAR
STARTCHAR char348
ENCODING 348
SWIDTH 2 0
DWIDTH 21 0
BBX 18 29 2 0
BITMAP
03E000
036000
077000
063800
080000
000000
07F000
1FFC00
3FFE00
780F00
700380
E00380
E00380
F00000
780000
7F0000
3FF000
0FFE00
007F00
000F80
0003C0
C001C0
C001C0
E001C0
F00380
780780
3FFF00
1FFE00
07F800
ENDCHAR
STARTCHAR char349
ENCODING 349
SWIDTH 16 0
DWIDTH 16 0
BBX 14 23 1 0
BITMAP
0780
0FC0
0CC0
1860
0000
0000
0FC0
3FF0
7FF0
7038
6038
6000
7800
7F80
1FF0
03F8
0038
001C
E01C
F038
7FF8
3FF0
1FC0
ENDCHAR
STARTCHAR char350
ENCODING 350
SWIDTH 2 0
DWIDTH 21 0
BBX 18 30 2 -7
BITMAP
07F000
1FFC00
3FFF00
780700
700380
E00380
E00380
F00000
700000
7E0000
3FC000
1FFC00
01FF00
001F80
000780
0003C0
C001C0
E001C0
E001C0
F00380
780780
3FFF00
1FFE00
03F000
018000
01E000
007000
007000
0CE000
07C000
ENDCHAR
STARTCHAR char351
ENCODING 351
SWIDTH 16 0
DWIDTH 16 0
BBX 14 24 1 -7
BITMAP
0FC0
3FF0
7FF0
7038
6038
E000
7000
7E00
3FE0
0FF0
00F8
003C
E01C
E01C
F038
7FF8
3FF0
0F80
0600
0780
01C0
01C0
3380
1F00
ENDCHAR
STARTCHAR char352
ENCODING 352
SWIDTH 2 0
DWIDTH 21 0
BBX 18 29 2 0
BITMAP
063800
073000
036000
01E000
000000
000000
07F000
1FFC00
3FFE00
780F00
700380
E00380
E00380
F00000
780000
7F0000
3FF000
0FFE00
007F00
000F80
0003C0
C001C0
C001C0
E001C0
F00380
780780
3FFF00
1FFE00
07F800
ENDCHAR
STARTCHAR char353
ENCODING 353
SWIDTH 16 0
DWIDTH 16 0
BBX 14 23 1 0
BITMAP
1860
1CC0
0FC0
0780
0000
0000
0FC0
3FF0
7FF0
7038
6038
6000
7800
7F80
1FF0
03F8
0038
001C
E01C
F038
7FF8
3FF0
1FC0
ENDCHAR
STARTCHAR char354
ENCODING 354
SWIDTH 27 0
DWIDTH 20 0
BBX 18 30 1 -7
BITMAP
FFFFC0
FFFFC0
FFFFC0
01C000
01C000
01C000
01C000
01C000
01C000
01C000
01C000
01C000
01C000
01C000
01C000
01C000
01C000
01C000
01C000
01C000
01C000
01C000
01C000
004000
00C000
00F000
003800
003800
067000
03E000
ENDCHAR
STARTCHAR char355
ENCODING 355
SWIDTH 25 0
DWIDTH 9 0
BBX 8 28 0 -6
BITMAP
18
18
18
18
18
FF
FF
18
18
18
18
18
18
18
18
18
18
18
18
1C
1F
0F
08
1F
07
03
67
3E
ENDCHAR
STARTCHAR char356
ENCODING 356
SWIDTH 27 0
DWIDTH 20 0
BBX 18 30 1 0
BITMAP
0C1800
063800
037000
03E000
01E000
000000
000000
FFFFC0
FFFFC0
FFFFC0
01C000
01C000
01C000
01C000
01C000
01C000
01C000
01C000
01C000
01C000
01C000
01C000
01C000
01C000
01C000
01C000
01C000
01C000
01C000
01C000
ENDCHAR
STARTCHAR char357
ENCODING 357
SWIDTH 28 0
DWIDTH 10 0
BBX 10 26 0 0
BITMAP
01C0
01C0
01C0
0040
1840
18C0
1980
1800
1800
FF00
FF00
1800
1800
1800
1800
1800
1800
1800
1800
1800
1800
1800
1800
1C00
1F00
0F00
ENDCHAR
STARTCHAR char358
ENCODING 358
SWIDTH 27 0
DWIDTH 20 0
BBX 18 23 1 0
BITMAP
FFFFC0
FFFFC0
FFFFC0
01C000
01C000
01C000
01C000
01C000
3FFE00
3FFE00
01C000
01C000
01C000
01C000
01C000
01C000
01C000
01C000
01C000
01C000
01C000
01C000
01C000
ENDCHAR
STARTCHAR char359
ENCODING 359
SWIDTH 25 0
DWIDTH 9 0
BBX 8 22 0 0
BITMAP
18
18
18
18
18
FF
FF
18
18
18
7F
7F
18
18
18
18
18
18
18
1C
1F
0F
ENDCHAR
STARTCHAR char360
ENCODING 360
SWIDTH 7 0
DWIDTH 23 0
BBX 18 29 3 0
BITMAP
071800
0FF800
0CF000
000000
000000
000000
E001C0
E001C0
E001C0
E001C0
E001C0
E001C0
E001C0
E001C0
E001C0
E001C0
E001C0
E001C0
E001C0
E001C0
E001C0
E001C0
E001C0
E00380
F00380
780F00
3FFF00
1FFC00
07F000
ENDCHAR
STARTCHAR char361
ENCODING 361
SWIDTH 22 0
DWIDTH 18 0
BBX 13 23 2 -1
BITMAP
1E30
3FE0
33E0
0000
0000
0000
E018
E018
E018
E018
E018
E018
E018
E018
E018
E018
E018
E038
E038
E078
79F8
7FD8
1F98
ENDCHAR
STARTCHAR char362
ENCODING 362
SWIDTH 7 0
DWIDTH 23 0
BBX 18 28 3 0
BITMAP
0FF800
0FF800
000000
000000
000000
E001C0
E001C0
E001C0
E001C0
E001C0
E001C0
E001C0
E001C0
E001C0
E001C0
E001C0
E001C0
E001C0
E001C0
E001C0
E001C0
E001C0
E00380
F00380
780F00
3FFF00
1FFC00
07F000
ENDCHAR
STARTCHAR char363
ENCODING 363
SWIDTH 22 0
DWIDTH 18 0
BBX 13 23 2 -1
BITMAP
3FE0
3FE0
0000
0000
0000
0000
E018
E018
E018
E018
E018
E018
E018
E018
E018
E018
E018
E038
E038
E078
79F8
7FD8
1F98
ENDCHAR
STARTCHAR char364
ENCODING 364
SWIDTH 7 0
DWIDTH 23 0
BBX 18 29 3 0
BITMAP
0C1800
0E3800
07F000
03E000
000000
000000
E001C0
E001C0
E001C0
E001C0
E001C0
E001C0
E001C0
E001C0
E001C0
E001C0
E001C0
E001C0
E001C0
E001C0
E001C0
E001C0
E001C0
E00380
F00380
780F00
3FFF00
1FFC00
07F000
ENDCHAR
STARTCHAR char365
ENCODING 365
SWIDTH 22 0
DWIDTH 18 0
BBX 13 23 2 -1
BITMAP
3030
38E0
1FE0
0F80
0000
0000
E018
E018
E018
E018
E018
E018
E018
E018
E018
E018
E018
E038
E038
E078
79F8
7FD8
1F98
ENDCHAR
STARTCHAR char366
ENCODING 366
SWIDTH 7 0
DWIDTH 23 0
BBX 18 30 3 0
BITMAP
01C000
036000
022000
032000
01E000
000000
000000
E001C0
E001C0
E001C0
E001C0
E001C0
E001C0
E001C0
E001C0
E001C0
E001C0
E001C0
E001C0
E001C0
E001C0
E001C0
E001C0
E001C0
E00380
F00380
780F00
3FFF00
1FFC00
07F000
ENDCHAR
STARTCHAR char367
ENCODING 367
SWIDTH 22 0
DWIDTH 18 0
BBX 13 24 2 -1
BITMAP
0780
0C80
08C0
0C80
0780
0000
0000
E018
E018
E018
E018
E018
E018
E018
E018
E018
E018
E018
E038
E038
E078
79F8
7FD8
1F98
ENDCHAR
STARTCHAR char368
ENCODING 368
SWIDTH 7 0
DWIDTH 23 0
BBX 18 30 3 0
BITMAP
01E780
01CF00
038E00
071C00
063800
000000
000000
E001C0
E001C0
E001C0
E001C0
E001C0
E001C0
E001C0
E001C0
E001C0
E001C0
E001C0
E001C0
E001C0
E001C0
E001C0
E001C0
E001C0
E00380
F00380
780F00
3FFF00
1FFC00
07F000
ENDCHAR
STARTCHAR char369
ENCODING 369
SWIDTH 22 0
DWIDTH 18 0
BBX 14 23 2 -1
BITMAP
079C
0738
0E30
1C60
18C0
0000
E018
E018
E018
E018
E018
E018
E018
E018
E018
E018
E018
E038
E038
E078
79F8
7FD8
1F98
ENDCHAR
STARTCHAR char370
ENCODING 370
SWIDTH 7 0
DWIDTH 23 0
BBX 18 29 3 -6
BITMAP
E001C0
E001C0
E001C0
E001C0
E001C0
E001C0
E001C0
E001C0
E001C0
E001C0
E001C0
E001C0
E001C0
E001C0
E001C0
E001C0
E001C0
E00380
F00380
780F80
3FFF00
1FFF00
07FE00
001800
003800
003000
003000
003D00
001F00
ENDCHAR
STARTCHAR char371
ENCODING 371
SWIDTH 22 0
DWIDTH 18 0
BBX 15 23 2 -6
BITMAP
E018
E018
E018
E018
E018
E018
E018
E018
E018
E018
E018
E038
E038
E078
79F8
7FD8
1F18
0018
0070
0060
0060
007A
003E
ENDCHAR
STARTCHAR char372
ENCODING 372
SWIDTH 27 0
DWIDTH 30 0
BBX 29 30 1 0
BITMAP
000F0000
000F0000
001F8000
0039C000
0030C000
00000000
00000000
E00F0078
E00F0070
F00F8070
700F8070
701F80F0
701D80E0
781DC0E0
3819C0E0
3839C1E0
3838E1C0
3C30E1C0
1C70E1C0
1C7061C0
1C707380
1C607380
0EE07380
0EE03B00
0EC03F00
0FC03F00
07C01F00
07C01E00
07801E00
03801E00
ENDCHAR
STARTCHAR char373
ENCODING 373
SWIDTH 7 0
DWIDTH 23 0
BBX 22 23 0 0
BITMAP
007800
007C00
00EE00
01C600
000000
000000
E0380C
70781C
707C1C
707C1C
707C18
38EC38
38EE38
38CE30
18CE30
1DC670
1DC770
1D8760
0D83E0
0F83E0
0F83C0
0703C0
0701C0
ENDCHAR
STARTCHAR char374
ENCODING 374
SWIDTH 2 0
DWIDTH 21 0
BBX 20 30 1 0
BITMAP
00F000
00F000
01F800
039C00
030C00
000000
000000
E000F0
F000E0
7801E0
3801C0
3C0380
1C0780
0E0700
0F0E00
070E00
039C00
03FC00
01F800
01F000
00F000
00E000
00E000
00E000
00E000
00E000
00E000
00E000
00E000
00E000
ENDCHAR
STARTCHAR char375
ENCODING 375
SWIDTH 16 0
DWIDTH 16 0
BBX 14 30 1 -7
BITMAP
0780
0FC0
0CC0
1860
0000
0000
E01C
E01C
E018
7038
7038
7070
3870
3870
38E0
1CE0
1CC0
1DC0
0FC0
0F80
0F80
0780
0700
0700
0700
0E00
0E00
7C00
7C00
7800
ENDCHAR
STARTCHAR char376
ENCODING 376
SWIDTH 2 0
DWIDTH 21 0
BBX 20 29 1 0
BITMAP
039C00
039C00
039C00
000000
000000
000000
E000F0
F000E0
7801E0
3801C0
3C0380
1C0780
0E0700
0F0E00
070E00
039C00
03FC00
01F800
01F000
00F000
00E000
00E000
00E000
00E000
00E000
00E000
00E000
00E000
00E000
ENDCHAR
STARTCHAR char377
ENCODING 377
SWIDTH 27 0
DWIDTH 20 0
BBX 18 30 1 0
BITMAP
003C00
007800
006000
00C000
018000
000000
000000
7FFFC0
7FFFC0
7FFFC0
000780
000F00
000E00
001E00
003C00
007800
00F000
00E000
01E000
03C000
078000
070000
0E0000
1E0000
3C0000
780000
700000
FFFFC0
FFFFC0
FFFFC0
ENDCHAR
STARTCHAR char378
ENCODING 378
SWIDTH 16 0
DWIDTH 16 0
BBX 14 23 1 0
BITMAP
00E0
01C0
0380
0600
0000
0000
7FF8
7FF8
0038
0070
00E0
01E0
01C0
0380
0700
0E00
1E00
1C00
3800
7000
E000
FFFC
FFFC
ENDCHAR
STARTCHAR char379
ENCODING 379
SWIDTH 27 0
DWIDTH 20 0
BBX 18 29 1 0
BITMAP
00E000
00E000
00E000
000000
000000
000000
7FFFC0
7FFFC0
7FFFC0
000780
000F00
000E00
001E00
003C00
007800
00F000
00E000
01E000
03C000
078000
070000
0E0000
1E0000
3C0000
780000
700000
FFFFC0
FFFFC0
FFFFC0
ENDCHAR
STARTCHAR char380
ENCODING 380
SWIDTH 16 0
DWIDTH 16 0
BBX 14 23 1 0
BITMAP
0780
0780
0780
0000
0000
0000
7FF8
7FF8
0038
0070
00E0
01E0
01C0
0380
0700
0E00
1E00
1C00
3800
7000
E000
FFFC
FFFC
ENDCHAR
STARTCHAR char381
ENCODING 381
SWIDTH 27 0
DWIDTH 20 0
BBX 18 30 1 0
BITMAP
060C00
071800
03B000
01F000
01E000
000000
000000
7FFFC0
7FFFC0
7FFFC0
000780
000F00
000E00
001E00
003C00
007800
00F000
00E000
01E000
03C000
078000
070000
0E0000
1E0000
3C0000
780000
700000
FFFFC0
FFFFC0
FFFFC0
ENDCHAR
STARTCHAR char382
ENCODING 382
SWIDTH 16 0
DWIDTH 16 0
BBX 14 23 1 0
BITMAP
1860
0CE0
0FC0
0780
0000
0000
7FF8
7FF8
0038
0070
00E0
01E0
01C0
0380
0700
0E00
1E00
1C00
3800
7000
E000
FFFC
FFFC
ENDCHAR
STARTCHAR char383
ENCODING 383
SWIDTH 19 0
DWIDTH 7 0
BBX 7 23 0 0
BITMAP
0E
3E
3C
38
38
38
F8
F8
38
38
38
38
38
38
38
38
38
38
38
38
38
38
38
ENDCHAR
STARTCHAR char402
ENCODING 402
SWIDTH 22 0
DWIDTH 18 0
BBX 17 30 0 -7
BITMAP
000780
001F80
003F80
003800
007000
007000
007000
007000
006000
0FFE00
0FFE00
00E000
00E000
00C000
01C000
01C000
01C000
01C000
018000
038000
038000
038000
038000
030000
070000
070000
070000
5E0000
7C0000
F80000
ENDCHAR
STARTCHAR char506
ENCODING 506
SWIDTH 2 0
DWIDTH 21 0
BBX 20 34 1 0
BITMAP
00E000
01C000
038000
030000
06E000
01B000
011000
019000
00F000
000000
000000
00F000
01F000
01F800
01F800
03B800
039C00
071C00
071C00
070E00
0E0E00
0E0E00
0E0700
1C0700
1C0780
1FFF80
3FFF80
3803C0
3801C0
7001C0
7001E0
F000E0
E000E0
E000F0
ENDCHAR
STARTCHAR char507
ENCODING 507
SWIDTH 22 0
DWIDTH 18 0
BBX 16 29 1 0
BITMAP
03C0
0380
0700
0E00
0C00
03C0
07C0
0660
0660
07C0
03C0
0000
07E0
1FF8
3EFC
701C
701C
001C
001C
03FC
3FFC
7C1C
701C
E01C
E01C
F03C
79FE
3FCF
1F8F
ENDCHAR
STARTCHAR char508
ENCODING 508
SWIDTH 4 0
DWIDTH 32 0
BBX 29 30 1 0
BITMAP
00003C00
00003800
00007000
0000E000
0000C000
00000000
00000000
007FFFF8
00FFFFF8
00FFFFF8
01C38000
01C38000
01C38000
03838000
03838000
07038000
07038000
0703FFF0
0E03FFF0
0E03FFF0
1FFF8000
1FFF8000
3FFF8000
38038000
38038000
70038000
70038000
F003FFF8
E003FFF8
E003FFF8
ENDCHAR
STARTCHAR char509
ENCODING 509
SWIDTH 21 0
DWIDTH 28 0
BBX 26 23 1 0
BITMAP
00038000
00070000
000E0000
001C0000
00000000
00000000
0FE0F800
3FF3FE00
3EFFDF00
701E0380
701E0380
001C01C0
001C01C0
07FFFFC0
3FFFFFC0
7C1C0000
F01C0000
E01C01C0
E01E0380
E03E0380
79E7DF00
7FC3FE00
1F00FC00
ENDCHAR
STARTCHAR char510
ENCODING 510
SWIDTH 13 0
DWIDTH 25 0
BBX 23 29 1 0
BITMAP
001E00
003800
003000
006000
000000
000000
00FE06
07FF8C
0FFFF8
1F01F0
3C0078
3800F8
7001BC
70031C
E0061C
E00C1C
E0180E
E0300E
E0600E
E0C01C
E1801C
73001C
76003C
3C0038
3C0078
3E01F0
6FFFE0
C7FF80
00FE00
ENDCHAR
STARTCHAR char511
ENCODING 511
SWIDTH 27 0
DWIDTH 20 0
BBX 15 24 1 0
BITMAP
00E0
01C0
0180
0300
0600
0000
0000
07E2
1FF2
3FFC
781C
701E
E03E
E06E
E0CE
E186
E30E
E60E
EC0E
780E
781C
7EF8
DFF8
87E0
ENDCHAR
STARTCHAR char536
ENCODING 536
SWIDTH 2 0
DWIDTH 21 0
BBX 18 31 2 -8
BITMAP
07F000
1FFC00
3FFE00
780F00
700380
E00380
E00380
F00000
780000
7F0000
3FF000
0FFE00
007F00
000F80
0003C0
C001C0
C001C0
E001C0
F00380
780780
3FFF00
1FFE00
07F800
000000
01E000
01E000
01E000
004000
004000
00C000
018000
ENDCHAR
STARTCHAR char537
ENCODING 537
SWIDTH 16 0
DWIDTH 16 0
BBX 14 25 1 -8
BITMAP
0FC0
3FF0
7FF0
7038
6038
6000
7800
7F80
1FF0
03F8
0038
001C
E01C
F038
7FF8
3FF0
1FC0
0000
0780
0780
0780
0100
0100
0300
0600
ENDCHAR
STARTCHAR char538
ENCODING 538
SWIDTH 27 0
DWIDTH 20 0
BBX 18 32 1 -9
BITMAP
FFFFC0
FFFFC0
FFFFC0
01C000
01C000
01C000
01C000
01C000
01C000
01C000
01C000
01C000
01C000
01C000
01C000
01C000
01C000
01C000
01C000
01C000
01C000
01C000
01C000
000000
000000
01E000
01E000
01E000
006000
004000
00C000
018000
ENDCHAR
STARTCHAR char539
ENCODING 539
SWIDTH 25 0
DWIDTH 9 0
BBX 8 30 0 -8
BITMAP
18
18
18
18
18
FF
FF
18
18
18
18
18
18
18
18
18
18
18
18
1C
1F
0F
00
0E
0E
0E
06
06
04
0C
ENDCHAR
STARTCHAR char710
ENCODING 710
SWIDTH 2 0
DWIDTH 11 0
BBX 9 5 1 18
BITMAP
3C00
3E00
7600
E300
C180
ENDCHAR
STARTCHAR char711
ENCODING 711
SWIDTH 2 0
DWIDTH 11 0
BBX 8 5 1 18
BITMAP
C3
63
76
3E
3C
ENDCHAR
STARTCHAR char713
ENCODING 713
SWIDTH 2 0
DWIDTH 11 0
BBX 9 2 1 20
BITMAP
FF80
FF80
ENDCHAR
STARTCHAR char728
ENCODING 728
SWIDTH 2 0
DWIDTH 11 0
BBX 10 4 0 19
BITMAP
C0C0
61C0
7F80
3F00
ENDCHAR
STARTCHAR char729
ENCODING 729
SWIDTH 2 0
DWIDTH 11 0
BBX 3 3 4 20
BITMAP
E0
E0
E0
ENDCHAR
STARTCHAR char730
ENCODING 730
SWIDTH 2 0
DWIDTH 11 0
BBX 5 5 3 19
BITMAP
70
D8
88
98
F0
ENDCHAR
STARTCHAR char731
ENCODING 731
SWIDTH 2 0
DWIDTH 11 0
BBX 6 6 2 -6
BITMAP
30
60
C0
C0
E0
7C
ENDCHAR
STARTCHAR char732
ENCODING 732
SWIDTH 2 0
DWIDTH 11 0
BBX 10 3 0 20
BITMAP
78C0
7FC0
CF80
ENDCHAR
STARTCHAR char733
ENCODING 733
SWIDTH 2 0
DWIDTH 11 0
BBX 12 5 -1 18
BITMAP
1CF0
38E0
71C0
6380
C300
ENDCHAR
STARTCHAR char900
ENCODING 900
SWIDTH 2 0
DWIDTH 11 0
BBX 3 6 4 19
BITMAP
E0
E0
E0
E0
C0
40
ENDCHAR
STARTCHAR char901
ENCODING 901
SWIDTH 2 0
DWIDTH 11 0
BBX 9 8 1 20
BITMAP
1C00
1C00
1C00
1C00
1800
EB80
E380
E380
ENDCHAR
STARTCHAR char902
ENCODING 902
SWIDTH 2 0
DWIDTH 21 0
BBX 20 23 1 0
BITMAP
60F000
61F000
61F800
61F800
63B800
639C00
071C00
071C00
070E00
0E0E00
0E0E00
0E0700
1C0700
1C0780
1FFF80
3FFF80
3803C0
3801C0
7001C0
7001E0
F000E0
E000E0
E000F0
ENDCHAR
STARTCHAR char903
ENCODING 903
SWIDTH 25 0
DWIDTH 9 0
BBX 3 3 4 7
BITMAP
E0
E0
E0
ENDCHAR
STARTCHAR char904
ENCODING 904
SWIDTH 13 0
DWIDTH 25 0
BBX 21 23 1 0
BITMAP
CFFFF0
CFFFF0
CFFFF0
CE0000
CE0000
CE0000
0E0000
0E0000
0E0000
0E0000
0FFFF0
0FFFF0
0FFFF0
0E0000
0E0000
0E0000
0E0000
0E0000
0E0000
0E0000
0FFFF8
0FFFF8
0FFFF8
ENDCHAR
STARTCHAR char905
ENCODING 905
SWIDTH 18 0
DWIDTH 27 0
BBX 22 23 1 0
BITMAP
CE001C
CE001C
CE001C
CE001C
CE001C
CE001C
0E001C
0E001C
0E001C
0E001C
0FFFFC
0FFFFC
0FFFFC
0E001C
0E001C
0E001C
0E001C
0E001C
0E001C
0E001C
0E001C
0E001C
0E001C
ENDCHAR
STARTCHAR char906
ENCODING 906
SWIDTH 5 0
DWIDTH 12 0
BBX 7 23 1 0
BITMAP
CE
CE
CE
CE
CE
CE
0E
0E
0E
0E
0E
0E
0E
0E
0E
0E
0E
0E
0E
0E
0E
0E
0E
ENDCHAR
STARTCHAR char908
ENCODING 908
SWIDTH 13 0
DWIDTH 25 0
BBX 25 23 -1 0
BITMAP
E03F8000
E1FFE000
E3FFF800
E7C07C00
4F001E00
4E000E00
1C000F00
1C000700
38000700
38000700
38000380
38000380
38000380
38000700
38000700
1C000700
1C000F00
1E000E00
0F001E00
07807C00
03FFF800
01FFE000
003F8000
ENDCHAR
STARTCHAR char910
ENCODING 910
SWIDTH 18 0
DWIDTH 27 0
BBX 24 23 1 0
BITMAP
EF0007
E7000E
E7801E
E3801C
C1C03C
41E038
00E070
00F0F0
0078E0
0039C0
003DC0
001F80
000F80
000F00
000700
000700
000700
000700
000700
000700
000700
000700
000700
ENDCHAR
STARTCHAR char911
ENCODING 911
SWIDTH 10 0
DWIDTH 24 0
BBX 24 23 -1 0
BITMAP
E03F00
E1FFE0
E3FFF0
E78078
6F003C
5E001C
1C000E
1C000E
1C000E
380007
380007
380007
380006
1C000E
1C000E
1C000E
0E001C
0E001C
070038
01C0E0
3FE1FF
3FE1FF
3FE1FF
ENDCHAR
STARTCHAR char912
ENCODING 912
SWIDTH 19 0
DWIDTH 7 0
BBX 9 28 -1 0
BITMAP
1C00
1C00
1C00
1C00
0C00
EB80
E380
E380
0000
0000
0000
1C00
1C00
1C00
1C00
1C00
1C00
1C00
1C00
1C00
1C00
1C00
1C00
1C00
1C00
1C00
1C00
1C00
ENDCHAR
STARTCHAR char913
ENCODING 913
SWIDTH 2 0
DWIDTH 21 0
BBX 20 23 1 0
BITMAP
00F000
01F000
01F800
01F800
03B800
039C00
071C00
071C00
070E00
0E0E00
0E0E00
0E0700
1C0700
1C0780
1FFF80
3FFF80
3803C0
3801C0
7001C0
7001E0
F000E0
E000E0
E000F0
ENDCHAR
STARTCHAR char914
ENCODING 914
SWIDTH 2 0
DWIDTH 21 0
BBX 17 23 3 0
BITMAP
FFF000
FFFC00
FFFE00
E00E00
E00F00
E00700
E00700
E00700
E00E00
E01E00
FFFC00
FFFC00
FFFE00
E00700
E00780
E00380
E00380
E00380
E00780
E00700
FFFF00
FFFE00
FFF800
ENDCHAR
STARTCHAR char915
ENCODING 915
SWIDTH 22 0
DWIDTH 18 0
BBX 16 23 2 0
BITMAP
FFFF
FFFF
FFFF
E000
E000
E000
E000
E000
E000
E000
E000
E000
E000
E000
E000
E000
E000
E000
E000
E000
E000
E000
E000
ENDCHAR
STARTCHAR char916
ENCODING 916
SWIDTH 2 0
DWIDTH 21 0
BBX 22 23 0 0
BITMAP
007000
00F800
00F800
00FC00
01DC00
01DE00
038E00
038E00
038700
070700
070780
0E0380
0E0380
1E01C0
1C01C0
1C01E0
3800E0
3800E0
780070
700070
7FFFF8
FFFFF8
FFFFFC
ENDCHAR
STARTCHAR char917
ENCODING 917
SWIDTH 2 0
DWIDTH 21 0
BBX 17 23 3 0
BITMAP
FFFF00
FFFF00
FFFF00
E00000
E00000
E00000
E00000
E00000
E00000
E00000
FFFF00
FFFF00
FFFF00
E00000
E00000
E00000
E00000
E00000
E00000
E00000
FFFF80
FFFF80
FFFF80
ENDCHAR
STARTCHAR char918
ENCODING 918
SWIDTH 27 0
DWIDTH 20 0
BBX 18 23 1 0
BITMAP
7FFFC0
7FFFC0
7FFFC0
000780
000F00
000E00
001E00
003C00
007800
00F000
00E000
01E000
03C000
078000
070000
0E0000
1E0000
3C0000
780000
700000
FFFFC0
FFFFC0
FFFFC0
ENDCHAR
STARTCHAR char919
ENCODING 919
SWIDTH 7 0
DWIDTH 23 0
BBX 18 23 3 0
BITMAP
E001C0
E001C0
E001C0
E001C0
E001C0
E001C0
E001C0
E001C0
E001C0
E001C0
FFFFC0
FFFFC0
FFFFC0
E001C0
E001C0
E001C0
E001C0
E001C0
E001C0
E001C0
E001C0
E001C0
E001C0
ENDCHAR
STARTCHAR char920
ENCODING 920
SWIDTH 13 0
DWIDTH 25 0
BBX 23 23 1 0
BITMAP
00FE00
07FF80
0FFFE0
1E01F0
3C0078
380038
70001C
70001C
E0001C
E0000E
E1FF0E
E1FF0E
E0000E
E0000E
70001C
70001C
70003C
380038
3C0078
1F01F0
0FFFE0
03FF80
00FE00
ENDCHAR
STARTCHAR char921
ENCODING 921
SWIDTH 25 0
DWIDTH 9 0
BBX 3 23 3 0
BITMAP
E0
E0
E0
E0
E0
E0
E0
E0
E0
E0
E0
E0
E0
E0
E0
E0
E0
E0
E0
E0
E0
E0
E0
ENDCHAR
STARTCHAR char922
ENCODING 922
SWIDTH 2 0
DWIDTH 21 0
BBX 18 23 3 0
BITMAP
E00380
E00700
E00E00
E01C00
E03800
E07000
E0E000
E1C000
E38000
E78000
EF8000
FFC000
F9E000
F0E000
E07000
E07800
E03800
E01C00
E01E00
E00F00
E00700
E00780
E003C0
ENDCHAR
STARTCHAR char923
ENCODING 923
SWIDTH 2 0
DWIDTH 21 0
BBX 20 23 1 0
BITMAP
00F000
01F000
01F800
03F800
03B800
03BC00
079C00
071C00
071E00
0E0E00
0E0E00
0E0700
1C0700
1C0700
1C0380
380380
3803C0
7801C0
7001C0
7001E0
F000E0
E000E0
E000F0
ENDCHAR
STARTCHAR char924
ENCODING 924
SWIDTH 18 0
DWIDTH 27 0
BBX 22 23 2 0
BITMAP
F8003C
F8003C
F8007C
FC007C
FC006C
EC00EC
EE00EC
EE00CC
E601CC
E701CC
E3018C
E3838C
E3838C
E1830C
E1C70C
E1C70C
E0C60C
E0EE0C
E0EE0C
E06C0C
E07C0C
E0780C
E0380C
ENDCHAR
STARTCHAR char925
ENCODING 925
SWIDTH 7 0
DWIDTH 23 0
BBX 19 23 2 0
BITMAP
F000E0
F800E0
F800E0
FC00E0
FE00E0
EE00E0
E700E0
E780E0
E380E0
E1C0E0
E1C0E0
E0E0E0
E0F0E0
E070E0
E038E0
E03CE0
E01CE0
E00EE0
E00FE0
E007E0
E003E0
E003E0
E001E0
ENDCHAR
STARTCHAR char926
ENCODING 926
SWIDTH 2 0
DWIDTH 21 0
BBX 17 23 2 0
BITMAP
FFFF80
FFFF80
FFFF80
000000
000000
000000
000000
000000
000000
000000
7FFF00
7FFF00
7FFF00
000000
000000
000000
000000
000000
000000
000000
FFFF80
FFFF80
FFFF80
ENDCHAR
STARTCHAR char927
ENCODING 927
SWIDTH 13 0
DWIDTH 25 0
BBX 23 23 1 0
BITMAP
00FE00
07FF80
0FFFE0
1F01F0
3C0078
380038
70001C
70001C
F0001C
E0000E
E0000E
E0000E
E0000E
E0000E
F0001C
70001C
70001C
380038
3C0078
1F01F0
0FFFE0
03FF80
00FE00
ENDCHAR
STARTCHAR char928
ENCODING 928
SWIDTH 7 0
DWIDTH 23 0
BBX 18 23 3 0
BITMAP
FFFFC0
FFFFC0
FFFFC0
E001C0
E001C0
E001C0
E001C0
E001C0
E001C0
E001C0
E001C0
E001C0
E001C0
E001C0
E001C0
E001C0
E001C0
E001C0
E001C0
E001C0
E001C0
E001C0
E001C0
ENDCHAR
STARTCHAR char929
ENCODING 929
SWIDTH 2 0
DWIDTH 21 0
BBX 17 23 3 0
BITMAP
FFF800
FFFE00
FFFF00
E00F00
E00700
E00780
E00380
E00780
E00780
E00F00
FFFF00
FFFE00
FFF800
E00000
E00000
E00000
E00000
E00000
E00000
E00000
E00000
E00000
E00000
ENDCHAR
STARTCHAR char931
ENCODING 931
SWIDTH 27 0
DWIDTH 20 0
BBX 17 23 1 0
BITMAP
FFFF80
FFFF80
FFFF80
780000
3C0000
1E0000
0F0000
078000
03C000
00E000
007000
007800
00F000
01E000
03C000
078000
0F0000
1E0000
3C0000
780000
FFFF80
FFFF80
FFFF80
ENDCHAR
STARTCHAR char932
ENCODING 932
SWIDTH 27 0
DWIDTH 20 0
BBX 18 23 1 0
BITMAP
FFFFC0
FFFFC0
FFFFC0
01C000
01C000
01C000
01C000
01C000
01C000
01C000
01C000
01C000
01C000
01C000
01C000
01C000
01C000
01C000
01C000
01C000
01C000
01C000
01C000
ENDCHAR
STARTCHAR char933
ENCODING 933
SWIDTH 2 0
DWIDTH 21 0
BBX 20 23 1 0
BITMAP
E000F0
F000E0
7801E0
3801C0
3C0380
1C0780
0E0700
0F0E00
070E00
039C00
03FC00
01F800
01F000
00F000
00E000
00E000
00E000
00E000
00E000
00E000
00E000
00E000
00E000
ENDCHAR
STARTCHAR char934
ENCODING 934
SWIDTH 16 0
DWIDTH 26 0
BBX 21 23 2 0
BITMAP
007000
007000
007000
03FF00
0FFFC0
1F73E0
3C70F0
787070
707078
707038
E07038
E07038
E07038
707038
707078
787070
3C70F0
1F77E0
0FFFC0
03FF00
007000
007000
007000
ENDCHAR
STARTCHAR char935
ENCODING 935
SWIDTH 2 0
DWIDTH 21 0
BBX 19 23 1 0
BITMAP
7001E0
7801C0
3803C0
1C0780
1E0700
0E0F00
071E00
079C00
03B800
01F800
01F000
00F000
01F000
03F800
03BC00
071E00
0F0E00
0E0F00
1C0780
3C0380
7803C0
7001E0
F000E0
ENDCHAR
STARTCHAR char936
ENCODING 936
SWIDTH 18 0
DWIDTH 27 0
BBX 23 23 2 0
BITMAP
E0380E
E0380E
E0380E
E0380E
E0380E
E0380E
E0380E
E0380E
E0380E
E0380E
E0381C
E0381C
F0381C
70381C
783838
3E38F8
1FFFF0
07FFC0
00FE00
003800
003800
003800
003800
ENDCHAR
STARTCHAR char937
ENCODING 937
SWIDTH 10 0
DWIDTH 24 0
BBX 22 23 1 0
BITMAP
00FC00
07FF80
0FFFC0
1E01E0
3C00F0
780070
700038
700038
700038
E0001C
E0001C
E0001C
E00038
700038
700038
700038
380070
3800F0
1C00E0
070380
FF87FC
FF87FC
FF87FC
ENDCHAR
STARTCHAR char938
ENCODING 938
SWIDTH 25 0
DWIDTH 9 0
BBX 9 29 0 0
BITMAP
F780
F780
F780
0000
0000
0000
1C00
1C00
1C00
1C00
1C00
1C00
1C00
1C00
1C00
1C00
1C00
1C00
1C00
1C00
1C00
1C00
1C00
1C00
1C00
1C00
1C00
1C00
1C00
ENDCHAR
STARTCHAR char939
ENCODING 939
SWIDTH 2 0
DWIDTH 21 0
BBX 20 29 1 0
BITMAP
079C00
079C00
079C00
000000
000000
000000
E000F0
F000E0
7801E0
3801C0
3C0380
1C0780
0E0700
0F0E00
070E00
039C00
03FC00
01F800
01F000
00F000
00E000
00E000
00E000
00E000
00E000
00E000
00E000
00E000
00E000
ENDCHAR
STARTCHAR char940
ENCODING 940
SWIDTH 24 0
DWIDTH 19 0
BBX 19 25 0 0
BITMAP
038000
038000
038000
018000
018000
010000
010000
000000
07C0E0
1FF1C0
3EF9C0
383D80
701F80
600F80
E00F00
E00700
E00700
E00F00
E00F80
700F80
701D80
7839C0
3FF1C0
1FF0C0
07C0E0
ENDCHAR
STARTCHAR char941
ENCODING 941
SWIDTH 10 0
DWIDTH 14 0
BBX 13 25 1 0
BITMAP
0600
0600
0600
0600
0600
0600
0200
0000
1F80
7FE0
7DF0
E070
E038
E000
7000
3F00
3F00
F800
E000
C018
E038
E070
FDF0
7FE0
1F80
ENDCHAR
STARTCHAR char942
ENCODING 942
SWIDTH 22 0
DWIDTH 18 0
BBX 14 32 2 -7
BITMAP
0380
0380
0380
0380
0100
0100
0000
0000
E7E0
EFF0
FEF8
F038
F01C
E01C
E01C
E01C
E01C
E01C
E01C
E01C
E01C
E01C
E01C
E01C
E01C
001C
001C
001C
001C
001C
001C
001C
ENDCHAR
STARTCHAR char943
ENCODING 943
SWIDTH 19 0
DWIDTH 7 0
BBX 3 25 2 0
BITMAP
E0
E0
E0
E0
40
40
00
00
E0
E0
E0
E0
E0
E0
E0
E0
E0
E0
E0
E0
E0
E0
E0
E0
E0
ENDCHAR
STARTCHAR char944
ENCODING 944
SWIDTH 22 0
DWIDTH 18 0
BBX 13 28 2 0
BITMAP
0700
0700
0700
0300
0300
3AE0
38E0
38E0
0000
0000
0000
E018
E018
E018
E018
E018
E018
E018
E018
E018
E018
E018
E018
E038
F038
7DF8
3FF0
0FC0
ENDCHAR
STARTCHAR char945
ENCODING 945
SWIDTH 24 0
DWIDTH 19 0
BBX 18 17 1 0
BITMAP
0F81C0
1FE380
3FF380
707B80
703F00
E01F00
E01E00
E00E00
E00E00
E00E00
E01F00
E01F00
703B00
707380
3FE380
1FE1C0
0F81C0
ENDCHAR
STARTCHAR char946
ENCODING 946
SWIDTH 22 0
DWIDTH 18 0
BBX 14 29 3 -6
BITMAP
1F80
7FE0
F9E0
E070
C070
C030
C030
C070
C0F0
C7C0
C7E0
C0F0
C038
C038
C01C
C01C
C01C
C01C
C038
E078
FFF0
FFE0
CF80
C000
C000
C000
C000
C000
C000
ENDCHAR
STARTCHAR char947
ENCODING 947
SWIDTH 16 0
DWIDTH 16 0
BBX 14 24 1 -7
BITMAP
E01C
E01C
E01C
7038
7038
3838
3870
3870
1C60
1CE0
0CE0
0FC0
0FC0
07C0
0780
0780
0300
0300
0300
0300
0300
0300
0300
0300
ENDCHAR
STARTCHAR char948
ENCODING 948
SWIDTH 22 0
DWIDTH 18 0
BBX 15 23 1 0
BITMAP
3FFC
3FFC
3C00
0E00
0780
03C0
07F0
1FF8
3E7C
781C
700E
700E
E006
E006
E006
E006
E00E
700E
700E
781C
3FFC
1FF8
07E0
ENDCHAR
STARTCHAR char949
ENCODING 949
SWIDTH 10 0
DWIDTH 14 0
BBX 13 17 1 0
BITMAP
1F80
7FE0
7DF0
E070
E038
E000
7000
3F00
3F00
F800
E000
C018
E038
E070
FDF0
7FE0
1F80
ENDCHAR
STARTCHAR char950
ENCODING 950
SWIDTH 10 0
DWIDTH 14 0
BBX 13 30 1 -7
BITMAP
3FF8
3FF8
0078
01E0
03C0
0700
0E00
1E00
1C00
3800
3800
7000
7000
6000
E000
E000
E000
E000
E000
7000
7800
3FF0
1FF8
0078
0018
0018
0018
0038
0038
0070
ENDCHAR
STARTCHAR char951
ENCODING 951
SWIDTH 22 0
DWIDTH 18 0
BBX 14 24 2 -7
BITMAP
E7E0
EFF0
FEF8
F038
F01C
E01C
E01C
E01C
E01C
E01C
E01C
E01C
E01C
E01C
E01C
E01C
E01C
001C
001C
001C
001C
001C
001C
001C
ENDCHAR
STARTCHAR char952
ENCODING 952
SWIDTH 22 0
DWIDTH 18 0
BBX 14 24 2 0
BITMAP
1FE0
3FF0
7878
7038
E018
E01C
E01C
C01C
C01C
C00C
FFFC
FFFC
C00C
C00C
C01C
C01C
C01C
E01C
E01C
E038
7038
3DF0
3FE0
0FC0
ENDCHAR
STARTCHAR char953
ENCODING 953
SWIDTH 19 0
DWIDTH 7 0
BBX 3 17 2 0
BITMAP
E0
E0
E0
E0
E0
E0
E0
E0
E0
E0
E0
E0
E0
E0
E0
E0
E0
ENDCHAR
STARTCHAR char954
ENCODING 954
SWIDTH 16 0
DWIDTH 16 0
BBX 14 17 2 0
BITMAP
E078
E0F0
E1E0
E3C0
E780
EF00
FF00
FF00
FB80
F380
E1C0
E1E0
E0E0
E070
E070
E038
E03C
ENDCHAR
STARTCHAR char955
ENCODING 955
SWIDTH 16 0
DWIDTH 16 0
BBX 14 23 1 0
BITMAP
1C00
1C00
0E00
0E00
0600
0700
0700
0780
0780
0780
0FC0
0FC0
1CC0
1CE0
1CE0
3870
3870
3070
7038
7038
6038
E01C
E01C
ENDCHAR
STARTCHAR char956
ENCODING 956
SWIDTH 22 0
DWIDTH 18 0
BBX 13 23 3 -6
BITMAP
C038
C038
C038
C038
C038
C038
C038
C038
C038
C038
C038
C038
C078
E078
FBF8
FFB8
DF00
C000
C000
C000
C000
C000
C000
ENDCHAR
STARTCHAR char957
ENCODING 957
SWIDTH 16 0
DWIDTH 16 0
BBX 14 17 1 0
BITMAP
E01C
E01C
E01C
7038
7038
7038
3870
3870
3860
1CE0
1CE0
1CC0
0FC0
0FC0
0F80
0780
0700
ENDCHAR
STARTCHAR char958
ENCODING 958
SWIDTH 10 0
DWIDTH 14 0
BBX 14 30 1 -7
BITMAP
FFF0
FFF0
0F00
3800
3800
7000
7000
7800
3800
1F00
0FF0
1FF0
3C00
7000
E000
E000
E000
E000
E000
F000
7E00
3FF0
0FF8
003C
001C
001C
0018
0038
0038
0030
ENDCHAR
STARTCHAR char959
ENCODING 959
SWIDTH 22 0
DWIDTH 18 0
BBX 15 17 1 0
BITMAP
07E0
1FF8
3FFC
781C
700E
700E
E00E
E006
E006
E006
E00E
700E
700E
781C
3FFC
1FF8
07E0
ENDCHAR
STARTCHAR char960
ENCODING 960
SWIDTH 4 0
DWIDTH 22 0
BBX 18 17 2 0
BITMAP
FFFFC0
FFFFC0
380700
380700
380700
380700
380700
380700
380700
380700
380700
380700
380700
380700
380700
380700
380700
ENDCHAR
STARTCHAR char961
ENCODING 961
SWIDTH 22 0
DWIDTH 18 0
BBX 15 23 2 -6
BITMAP
07C0
1FF0
3EF8
703C
F01C
E00C
E00E
E00E
E00E
E00E
E00E
E00E
F01C
F03C
FFF8
EFF0
E7C0
E000
E000
E000
E000
E000
E000
ENDCHAR
STARTCHAR char962
ENCODING 962
SWIDTH 13 0
DWIDTH 15 0
BBX 14 24 1 -7
BITMAP
07C0
1FF0
3EF8
783C
701C
E00C
E000
E000
E000
E000
E000
E000
7000
7C00
3F00
0FE0
03F8
007C
001C
001C
001C
0018
0038
0038
ENDCHAR
STARTCHAR char963
ENCODING 963
SWIDTH 27 0
DWIDTH 20 0
BBX 17 17 2 0
BITMAP
07FF80
1FFF80
3EF800
783C00
701C00
E00E00
E00E00
E00E00
E00E00
E00E00
E00E00
E00E00
701C00
783C00
3EF800
1FF000
0FE000
ENDCHAR
STARTCHAR char964
ENCODING 964
SWIDTH 8 0
DWIDTH 13 0
BBX 14 17 -1 0
BITMAP
FFFC
FFFC
0380
0380
0380
0380
0380
0380
0380
0380
0380
0380
0380
0380
0380
0380
0380
ENDCHAR
STARTCHAR char965
ENCODING 965
SWIDTH 22 0
DWIDTH 18 0
BBX 13 17 2 0
BITMAP
E018
E018
E018
E018
E018
E018
E018
E018
E018
E018
E018
E018
E038
F038
7DF8
3FF0
0FC0
ENDCHAR
STARTCHAR char966
ENCODING 966
SWIDTH 2 0
DWIDTH 21 0
BBX 18 24 1 -7
BITMAP
04F000
1CFE00
3CFF00
78E780
70E380
F0E1C0
E0E1C0
E0E1C0
E0E1C0
E0E1C0
E0E1C0
E0E1C0
70E1C0
70E380
78E780
3FFF00
1FFE00
07F800
00E000
00E000
00E000
00E000
00E000
00E000
ENDCHAR
STARTCHAR char967
ENCODING 967
SWIDTH 19 0
DWIDTH 17 0
BBX 15 24 1 -7
BITMAP
F01C
701C
7838
3838
3870
1C70
1CE0
0EE0
0FC0
07C0
0780
0380
0780
07C0
0FC0
0EE0
1CE0
1C70
3870
3838
7038
701C
601C
E00E
ENDCHAR
STARTCHAR char968
ENCODING 968
SWIDTH 7 0
DWIDTH 23 0
BBX 17 24 3 -7
BITMAP
E1C180
E1C180
E1C180
E1C180
E1C180
E1C180
E1C180
E1C180
E1C180
E1C180
E1C180
E1C180
E1C380
F1C380
79CF00
3FFF00
1FFC00
03E000
01C000
01C000
01C000
01C000
01C000
01C000
ENDCHAR
STARTCHAR char969
ENCODING 969
SWIDTH 13 0
DWIDTH 25 0
BBX 19 17 3 0
BITMAP
1C0700
380380
7001C0
7001C0
E0E0C0
E0E0E0
E0E0E0
E0E0E0
E0E0E0
E0E0E0
E0E0E0
E0E0E0
E0E0E0
70E1C0
7BBBC0
3FBF80
1E0F00
ENDCHAR
STARTCHAR char970
ENCODING 970
SWIDTH 19 0
DWIDTH 7 0
BBX 9 23 -1 0
BITMAP
E780
E780
E780
0000
0000
0000
1C00
1C00
1C00
1C00
1C00
1C00
1C00
1C00
1C00
1C00
1C00
1C00
1C00
1C00
1C00
1C00
1C00
ENDCHAR
STARTCHAR char971
ENCODING 971
SWIDTH 22 0
DWIDTH 18 0
BBX 13 23 2 0
BITMAP
3CE0
3CE0
3CE0
0000
0000
0000
E018
E018
E018
E018
E018
E018
E018
E018
E018
E018
E018
E018
E038
F038
7DF8
3FF0
0FC0
ENDCHAR
STARTCHAR char972
ENCODING 972
SWIDTH 22 0
DWIDTH 18 0
BBX 15 25 1 0
BITMAP
0180
0180
0180
0180
0180
0180
0100
0000
07E0
1FF8
3FFC
781C
700E
700E
E00E
E006
E006
E006
E00E
700E
700E
781C
3FFC
1FF8
07E0
ENDCHAR
STARTCHAR char973
ENCODING 973
SWIDTH 22 0
DWIDTH 18 0
BBX 13 25 2 0
BITMAP
0700
0700
0700
0300
0300
0200
0000
0000
E018
E018
E018
E018
E018
E018
E018
E018
E018
E018
E018
E018
E038
F038
7DF8
3FF0
0FC0
ENDCHAR
STARTCHAR char974
ENCODING 974
SWIDTH 13 0
DWIDTH 25 0
BBX 19 25 3 0
BITMAP
00E000
00E000
00E000
00E000
004000
004000
000000
000000
1C0700
380380
7001C0
7001C0
E0E0C0
E0E0E0
E0E0E0
E0E0E0
E0E0E0
E0E0E0
E0E0E0
E0E0E0
E0E0E0
70E1C0
7BBBC0
3FBF80
1E0F00
ENDCHAR
STARTCHAR char977
ENCODING 977
SWIDTH 22 0
DWIDTH 18 0
BBX 17 24 0 0
BITMAP
07E000
0FF800
1C3C00
181C00
380E00
380E00
180600
1C0600
1C0600
0F0700
07FF80
01FF80
001F00
000700
F00600
F00600
700600
300600
300E00
380E00
381C00
1F7C00
0FF800
07E000
ENDCHAR
STARTCHAR char981
ENCODING 981
SWIDTH 22 0
DWIDTH 18 0
BBX 18 28 0 -7
BITMAP
00C000
00C000
00C000
00C000
07F800
1FFE00
3CCF00
38C700
70C380
70C380
60C380
E0C180
E0C1C0
E0C180
E0C180
70C380
70C380
70C780
38CF00
1FFE00
0FFC00
03E000
00C000
00C000
00C000
00C000
00C000
00C000
ENDCHAR
STARTCHAR char982
ENCODING 982
SWIDTH 13 0
DWIDTH 25 0
BBX 20 17 2 0
BITMAP
FFF800
FFFF00
1C0F80
3803C0
7800E0
7000E0
700070
607070
607070
607070
607070
707070
707070
70F8E0
3FFDE0
1FDFC0
0F0F80
ENDCHAR
STARTCHAR char1024
ENCODING 1024
SWIDTH 2 0
DWIDTH 21 0
BBX 17 30 3 0
BITMAP
0F0000
070000
038000
01C000
00C000
000000
000000
FFFF00
FFFF00
FFFF00
E00000
E00000
E00000
E00000
E00000
E00000
E00000
FFFF00
FFFF00
FFFF00
E00000
E00000
E00000
E00000
E00000
E00000
E00000
FFFF80
FFFF80
FFFF80
ENDCHAR
STARTCHAR char1025
ENCODING 1025
SWIDTH 2 0
DWIDTH 21 0
BBX 16 29 3 0
BITMAP
0E70
0E70
0E70
0000
0000
0000
FFFF
FFFF
FFFF
E000
E000
E000
E000
E000
E000
E000
FFFE
FFFE
FFFE
E000
E000
E000
E000
E000
E000
E000
FFFF
FFFF
FFFF
ENDCHAR
STARTCHAR char1026
ENCODING 1026
SWIDTH 21 0
DWIDTH 28 0
BBX 24 23 1 0
BITMAP
FFFF00
FFFF00
FFFF00
01C000
01C000
01C000
01C000
01C3E0
01CFF8
01DFFE
01F81E
01E00F
01C007
01C007
01C007
01C007
01C007
01C007
01C007
01C00F
01C3FE
01C3FC
01C3F8
ENDCHAR
STARTCHAR char1027
ENCODING 1027
SWIDTH 19 0
DWIDTH 17 0
BBX 14 30 3 0
BITMAP
03C0
0380
0700
0600
0C00
0000
0000
FFFC
FFFC
FFFC
E000
E000
E000
E000
E000
E000
E000
E000
E000
E000
E000
E000
E000
E000
E000
E000
E000
E000
E000
E000
ENDCHAR
STARTCHAR char1028
ENCODING 1028
SWIDTH 7 0
DWIDTH 23 0
BBX 22 23 0 0
BITMAP
00FE00
03FFC0
0FFFE0
1F00F0
3C0078
38003C
78001C
700000
700000
700000
FFFC00
FFFC00
FFFC00
700000
700000
70001C
78001C
38003C
3C0078
1F00F0
0FFFE0
03FFC0
00FE00
ENDCHAR
STARTCHAR char1029
ENCODING 1029
SWIDTH 2 0
DWIDTH 21 0
BBX 18 23 2 0
BITMAP
07F000
1FFC00
3FFE00
780F00
700380
E00380
E00380
F00000
780000
7F0000
3FF000
0FFE00
007F00
000F80
0003C0
C001C0
C001C0
E001C0
F00380
780780
3FFF00
1FFE00
07F800
ENDCHAR
STARTCHAR char1030
ENCODING 1030
SWIDTH 25 0
DWIDTH 9 0
BBX 3 23 3 0
BITMAP
E0
E0
E0
E0
E0
E0
E0
E0
E0
E0
E0
E0
E0
E0
E0
E0
E0
E0
E0
E0
E0
E0
E0
ENDCHAR
STARTCHAR char1031
ENCODING 1031
SWIDTH 25 0
DWIDTH 9 0
BBX 9 29 0 0
BITMAP
F780
F780
F780
0000
0000
0000
1C00
1C00
1C00
1C00
1C00
1C00
1C00
1C00
1C00
1C00
1C00
1C00
1C00
1C00
1C00
1C00
1C00
1C00
1C00
1C00
1C00
1C00
1C00
ENDCHAR
STARTCHAR char1032
ENCODING 1032
SWIDTH 16 0
DWIDTH 16 0
BBX 14 23 0 0
BITMAP
001C
001C
001C
001C
001C
001C
001C
001C
001C
001C
001C
001C
001C
001C
001C
E01C
E01C
F03C
7038
7078
7FF0
3FE0
0FC0
ENDCHAR
STARTCHAR char1033
ENCODING 1033
SWIDTH 10 0
DWIDTH 34 0
BBX 32 23 1 0
BITMAP
0FFFC000
0FFFC000
0FFFC000
0E01C000
0E01C000
0E01C000
0E01C000
0E01C000
0E01C000
0E01C000
0E01FFF0
0E01FFFC
0E01FFFE
0E01C00E
0E01C00F
0E01C007
0E01C007
1C01C007
1C01C00F
3C01C00E
F801FFFE
F001FFFC
E001FFF0
ENDCHAR
STARTCHAR char1034
ENCODING 1034
SWIDTH 4 0
DWIDTH 32 0
BBX 30 23 2 0
BITMAP
E00E0000
E00E0000
E00E0000
E00E0000
E00E0000
E00E0000
E00E0000
E00E0000
E00E0000
E00E0000
FFFFFFC0
FFFFFFE0
FFFFFFF0
E00E0078
E00E0038
E00E0038
E00E001C
E00E0038
E00E0038
E00E0078
E00FFFF0
E00FFFE0
E00FFFC0
ENDCHAR
STARTCHAR char1035
ENCODING 1035
SWIDTH 18 0
DWIDTH 27 0
BBX 23 23 1 0
BITMAP
FFFF80
FFFF80
FFFF80
01C000
01C000
01C000
01C000
01C380
01CFF8
01FFFC
01F83C
01E00E
01C00E
01C00E
01C00E
01C00E
01C00E
01C00E
01C00E
01C00E
01C00E
01C00E
01C00E
ENDCHAR
STARTCHAR char1036
ENCODING 1036
SWIDTH 24 0
DWIDTH 19 0
BBX 15 30 2 0
BITMAP
00E0
01C0
0180
0300
0600
0000
0000
E03C
E038
E078
E070
E0E0
E1E0
E1C0
E3C0
E380
FF00
FF00
FF00
E780
E380
E1C0
E1E0
E0E0
E070
E078
E038
E01C
E01E
E00E
ENDCHAR
STARTCHAR char1037
ENCODING 1037
SWIDTH 7 0
DWIDTH 23 0
BBX 19 30 2 0
BITMAP
038000
01C000
00E000
006000
003000
000000
000000
E000E0
E000E0
E000E0
E001E0
E003E0
E007E0
E00FE0
E01EE0
E03CE0
E078E0
E0F0E0
E0E0E0
E1C0E0
E3C0E0
E780E0
EF00E0
FE00E0
FC00E0
F800E0
F000E0
E000E0
E000E0
E000E0
ENDCHAR
STARTCHAR char1038
ENCODING 1038
SWIDTH 27 0
DWIDTH 20 0
BBX 19 29 1 0
BITMAP
0C0C00
071C00
07F800
01F000
000000
000000
E001E0
F001C0
7001C0
7803C0
380380
3C0780
1C0700
1C0F00
0E0E00
0E0E00
071C00
071C00
07BC00
03B800
03F800
01F000
01F000
00E000
00E000
01C000
0FC000
0F8000
0F0000
ENDCHAR
STARTCHAR char1039
ENCODING 1039
SWIDTH 7 0
DWIDTH 23 0
BBX 18 28 3 -5
BITMAP
E003C0
E003C0
E003C0
E003C0
E003C0
E003C0
E003C0
E003C0
E003C0
E003C0
E003C0
E003C0
E003C0
E003C0
E003C0
E003C0
E003C0
E003C0
E003C0
E003C0
FFFFC0
FFFFC0
FFFFC0
01C000
01C000
01C000
01C000
01C000
ENDCHAR
STARTCHAR char1040
ENCODING 1040
SWIDTH 2 0
DWIDTH 21 0
BBX 20 23 1 0
BITMAP
00F000
01F000
01F800
01F800
03B800
039C00
071C00
071C00
070E00
0E0E00
0E0E00
0E0700
1C0700
1C0700
1FFF80
3FFF80
3803C0
7801C0
7001C0
7001E0
F000E0
E000E0
E000F0
ENDCHAR
STARTCHAR char1041
ENCODING 1041
SWIDTH 2 0
DWIDTH 21 0
BBX 18 23 2 0
BITMAP
FFFF00
FFFF00
FFFF00
E00000
E00000
E00000
E00000
E00000
E00000
E00000
FFFC00
FFFF00
FFFF80
E00780
E003C0
E001C0
E001C0
E001C0
E003C0
E00780
FFFF80
FFFF00
FFFC00
ENDCHAR
STARTCHAR char1042
ENCODING 1042
SWIDTH 2 0
DWIDTH 21 0
BBX 17 23 3 0
BITMAP
FFF000
FFFC00
FFFE00
E00E00
E00700
E00700
E00700
E00700
E00E00
E01E00
FFFC00
FFFC00
FFFE00
E00700
E00380
E00380
E00380
E00380
E00380
E00700
FFFF00
FFFE00
FFF800
ENDCHAR
STARTCHAR char1043
ENCODING 1043
SWIDTH 19 0
DWIDTH 17 0
BBX 14 23 3 0
BITMAP
FFFC
FFFC
FFFC
E000
E000
E000
E000
E000
E000
E000
E000
E000
E000
E000
E000
E000
E000
E000
E000
E000
E000
E000
E000
ENDCHAR
STARTCHAR char1044
ENCODING 1044
SWIDTH 4 0
DWIDTH 22 0
BBX 21 28 0 -5
BITMAP
03FFE0
03FFE0
03FFE0
0380E0
0380E0
0380E0
0380E0
0380E0
0380E0
0380E0
0380E0
0380E0
0380E0
0380E0
0380E0
0780E0
0700E0
0700E0
0E00E0
1C00E0
FFFFF8
FFFFF8
FFFFF8
E00038
E00038
E00038
E00038
E00038
ENDCHAR
STARTCHAR char1045
ENCODING 1045
SWIDTH 2 0
DWIDTH 21 0
BBX 16 23 3 0
BITMAP
FFFF
FFFF
FFFF
E000
E000
E000
E000
E000
E000
E000
FFFE
FFFE
FFFE
E000
E000
E000
E000
E000
E000
E000
FFFF
FFFF
FFFF
ENDCHAR
STARTCHAR char1046
ENCODING 1046
SWIDTH 27 0
DWIDTH 30 0
BBX 30 23 0 0
BITMAP
78070070
380700F0
1C0700E0
1E0701C0
0E0703C0
0F070380
07070700
03870F00
03C70E00
01FFFE00
01FFFC00
01FFFC00
03C70E00
03870F00
07870700
07070380
0E0703C0
1E0701C0
1C0700E0
380700F0
78070070
70070038
E007003C
ENDCHAR
STARTCHAR char1047
ENCODING 1047
SWIDTH 24 0
DWIDTH 19 0
BBX 15 23 2 0
BITMAP
07E0
1FF0
3FF8
783C
701C
700E
700E
001C
001C
0078
03F0
03F8
003C
001E
000E
E00E
E00E
E00E
F00E
701C
3FFC
1FF8
0FE0
ENDCHAR
STARTCHAR char1048
ENCODING 1048
SWIDTH 7 0
DWIDTH 23 0
BBX 19 23 2 0
BITMAP
E000E0
E000E0
E000E0
E001E0
E003E0
E007E0
E00FE0
E01EE0
E03CE0
E078E0
E0F0E0
E0E0E0
E1C0E0
E3C0E0
E780E0
EF00E0
FE00E0
FC00E0
F800E0
F000E0
E000E0
E000E0
E000E0
ENDCHAR
STARTCHAR char1049
ENCODING 1049
SWIDTH 7 0
DWIDTH 23 0
BBX 19 29 2 0
BITMAP
060C00
071C00
03F800
01F000
000000
000000
E001E0
E001E0
E001E0
E001E0
E003E0
E007E0
E00FE0
E01FE0
E03DE0
E079E0
E0F1E0
E0E1E0
E1C1E0
E3C1E0
E781E0
EF01E0
FE01E0
FC01E0
F801E0
F001E0
E001E0
E001E0
E001E0
ENDCHAR
STARTCHAR char1050
ENCODING 1050
SWIDTH 24 0
DWIDTH 19 0
BBX 15 23 2 0
BITMAP
E03C
E038
E078
E070
E0E0
E1E0
E1C0
E3C0
E380
FF00
FF00
FF00
E780
E380
E1C0
E1E0
E0E0
E070
E078
E038
E01C
E01E
E00E
ENDCHAR
STARTCHAR char1051
ENCODING 1051
SWIDTH 2 0
DWIDTH 21 0
BBX 19 23 0 0
BITMAP
0FFFE0
0FFFE0
0FFFE0
0E00E0
0E00E0
0E00E0
0E00E0
0E00E0
0E00E0
0E00E0
0E00E0
0E00E0
0E00E0
0E00E0
0E00E0
0E00E0
0E00E0
1E00E0
1C00E0
3C00E0
F800E0
F000E0
E000E0
ENDCHAR
STARTCHAR char1052
ENCODING 1052
SWIDTH 18 0
DWIDTH 27 0
BBX 22 23 2 0
BITMAP
F8003C
F8003C
F8007C
FC007C
FC007C
EC00FC
EE00FC
EE00DC
E601DC
E701DC
E7019C
E3039C
E3839C
E1831C
E1C71C
E1C61C
E0C61C
E0EE1C
E0EC1C
E06C1C
E07C1C
E0781C
E0381C
ENDCHAR
STARTCHAR char1053
ENCODING 1053
SWIDTH 7 0
DWIDTH 23 0
BBX 18 23 3 0
BITMAP
E001C0
E001C0
E001C0
E001C0
E001C0
E001C0
E001C0
E001C0
E001C0
E001C0
FFFFC0
FFFFC0
FFFFC0
E001C0
E001C0
E001C0
E001C0
E001C0
E001C0
E001C0
E001C0
E001C0
E001C0
ENDCHAR
STARTCHAR char1054
ENCODING 1054
SWIDTH 13 0
DWIDTH 25 0
BBX 23 23 1 0
BITMAP
00FE00
07FF80
0FFFE0
1F01F0
3C0078
380038
70003C
70001C
F0001C
E0000E
E0000E
E0000E
E0000E
E0000E
F0001C
70001C
70003C
380038
3C0078
1E01F0
0FFFE0
07FF80
00FE00
ENDCHAR
STARTCHAR char1055
ENCODING 1055
SWIDTH 7 0
DWIDTH 23 0
BBX 17 23 3 0
BITMAP
FFFF80
FFFF80
FFFF80
E00380
E00380
E00380
E00380
E00380
E00380
E00380
E00380
E00380
E00380
E00380
E00380
E00380
E00380
E00380
E00380
E00380
E00380
E00380
E00380
ENDCHAR
STARTCHAR char1056
ENCODING 1056
SWIDTH 2 0
DWIDTH 21 0
BBX 17 23 3 0
BITMAP
FFF800
FFFE00
FFFF00
E00F00
E00780
E00380
E00380
E00380
E00780
E00F00
FFFF00
FFFE00
FFF800
E00000
E00000
E00000
E00000
E00000
E00000
E00000
E00000
E00000
E00000
ENDCHAR
STARTCHAR char1057
ENCODING 1057
SWIDTH 7 0
DWIDTH 23 0
BBX 21 23 1 0
BITMAP
00FE00
07FF80
0FFFC0
1E01E0
3C00F0
380070
700070
700000
700000
E00000
E00000
E00000
E00000
F00000
700000
700038
700078
380070
3C00F0
1E01E0
0FFFC0
07FF80
00FC00
ENDCHAR
STARTCHAR char1058
ENCODING 1058
SWIDTH 27 0
DWIDTH 20 0
BBX 18 23 1 0
BITMAP
FFFFC0
FFFFC0
FFFFC0
01C000
01C000
01C000
01C000
01C000
01C000
01C000
01C000
01C000
01C000
01C000
01C000
01C000
01C000
01C000
01C000
01C000
01C000
01C000
01C000
ENDCHAR
STARTCHAR char1059
ENCODING 1059
SWIDTH 27 0
DWIDTH 20 0
BBX 19 23 1 0
BITMAP
E001E0
F001C0
7001C0
7803C0
380380
3C0780
1C0700
1C0F00
0E0E00
0E0E00
071C00
071C00
07BC00
03B800
03F800
01F000
01F000
00E000
00E000
01C000
0FC000
0F8000
0F0000
ENDCHAR
STARTCHAR char1060
ENCODING 1060
SWIDTH 10 0
DWIDTH 24 0
BBX 22 23 1 0
BITMAP
003800
003800
003800
03FF80
0FFFE0
3F3BF0
7C3878
70383C
F0381C
E0381C
E0381C
E0381C
E0381C
E0381C
F0381C
70383C
7C3878
3F3BF0
0FFFE0
03FF80
003800
003800
003800
ENDCHAR
STARTCHAR char1061
ENCODING 1061
SWIDTH 2 0
DWIDTH 21 0
BBX 19 23 1 0
BITMAP
F001E0
7801C0
3803C0
1C0780
1E0700
0E0E00
071E00
079C00
03B800
01F800
01F000
00F000
01F000
03F800
03BC00
071C00
0F0E00
1E0F00
1C0780
3C0380
7803C0
7001E0
F000E0
ENDCHAR
STARTCHAR char1062
ENCODING 1062
SWIDTH 10 0
DWIDTH 24 0
BBX 19 28 3 -5
BITMAP
E001C0
E001C0
E001C0
E001C0
E001C0
E001C0
E001C0
E001C0
E001C0
E001C0
E001C0
E001C0
E001C0
E001C0
E001C0
E001C0
E001C0
E001C0
E001C0
E001C0
FFFFE0
FFFFE0
FFFFE0
0000E0
0000E0
0000E0
0000E0
0000E0
ENDCHAR
STARTCHAR char1063
ENCODING 1063
SWIDTH 2 0
DWIDTH 21 0
BBX 18 23 1 0
BITMAP
F001C0
F001C0
F001C0
F001C0
F001C0
F001C0
F001C0
F001C0
F001C0
F001C0
7001C0
7801C0
3FFFC0
1FFFC0
07FDC0
0001C0
0001C0
0001C0
0001C0
0001C0
0001C0
0001C0
0001C0
ENDCHAR
STARTCHAR char1064
ENCODING 1064
SWIDTH 24 0
DWIDTH 29 0
BBX 26 23 2 0
BITMAP
E01C01C0
E01C01C0
E01C01C0
E01C01C0
E01C01C0
E01C01C0
E01C01C0
E01C01C0
E01C01C0
E01C01C0
E01C01C0
E01C01C0
E01C01C0
E01C01C0
E01C01C0
E01C01C0
E01C01C0
E01C01C0
E01C01C0
E01C01C0
FFFFFFC0
FFFFFFC0
FFFFFFC0
ENDCHAR
STARTCHAR char1065
ENCODING 1065
SWIDTH 27 0
DWIDTH 30 0
BBX 28 28 2 -5
BITMAP
E01C01C0
E01C01C0
E01C01C0
E01C01C0
E01C01C0
E01C01C0
E01C01C0
E01C01C0
E01C01C0
E01C01C0
E01C01C0
E01C01C0
E01C01C0
E01C01C0
E01C01C0
E01C01C0
E01C01C0
E01C01C0
E01C01C0
E01C01C0
FFFFFFF0
FFFFFFF0
FFFFFFF0
00000070
00000070
00000070
00000070
00000070
ENDCHAR
STARTCHAR char1066
ENCODING 1066
SWIDTH 13 0
DWIDTH 25 0
BBX 25 23 -1 0
BITMAP
FFF00000
FFF00000
FFF00000
00700000
00700000
00700000
00700000
00700000
00700000
00700000
007FF800
007FFE00
007FFF00
00700780
00700380
00700380
00700380
00700380
00700380
00700780
007FFF00
007FFE00
007FF800
ENDCHAR
STARTCHAR char1067
ENCODING 1067
SWIDTH 21 0
DWIDTH 28 0
BBX 23 23 3 0
BITMAP
E0000E
E0000E
E0000E
E0000E
E0000E
E0000E
E0000E
E0000E
E0000E
E0000E
FFF80E
FFFE0E
FFFF0E
E0070E
E0038E
E0038E
E0038E
E0038E
E0038E
E0078E
FFFF0E
FFFE0E
FFF80E
ENDCHAR
STARTCHAR char1068
ENCODING 1068
SWIDTH 2 0
DWIDTH 21 0
BBX 18 23 2 0
BITMAP
F00000
F00000
F00000
F00000
F00000
F00000
F00000
F00000
F00000
F00000
FFFC00
FFFF00
FFFF80
F00780
F003C0
F001C0
F001C0
F001C0
F003C0
F00780
FFFF80
FFFF00
FFFC00
ENDCHAR
STARTCHAR char1069
ENCODING 1069
SWIDTH 7 0
DWIDTH 23 0
BBX 22 23 1 0
BITMAP
01FC00
0FFF00
1FFFC0
3C03E0
7800E0
F00070
E00078
000038
000038
000038
00FFFC
00FFFC
00FFF8
000038
000038
E00038
E00078
F00070
7800F0
3C03E0
1FFFC0
0FFF00
01FC00
ENDCHAR
STARTCHAR char1070
ENCODING 1070
SWIDTH 4 0
DWIDTH 32 0
BBX 29 23 2 0
BITMAP
E001FC00
E007FF00
E00FFF80
E01E03C0
E03C01E0
E07800F0
E0700070
E0700070
E0E00038
E0E00038
FFE00038
FFE00038
FFE00038
E0E00038
E0E00038
E0700070
E0700070
E07800F0
E03C00E0
E01E03E0
E00FFFC0
E007FF00
E001FC00
ENDCHAR
STARTCHAR char1071
ENCODING 1071
SWIDTH 7 0
DWIDTH 23 0
BBX 18 23 2 0
BITMAP
0FFFC0
3FFFC0
7FFFC0
7801C0
7001C0
7001C0
7001C0
7001C0
7001C0
7801C0
3FFFC0
0FFFC0
3FFFC0
3801C0
7001C0
7001C0
7001C0
7001C0
7001C0
7001C0
7001C0
7001C0
E001C0
ENDCHAR
STARTCHAR char1072
ENCODING 1072
SWIDTH 22 0
DWIDTH 18 0
BBX 16 17 1 0
BITMAP
07E0
1FF8
3EFC
781C
701C
001C
001C
07FC
3FFC
7E1C
701C
E01C
E01C
F03C
79FE
3FCF
1F8F
ENDCHAR
STARTCHAR char1073
ENCODING 1073
SWIDTH 22 0
DWIDTH 18 0
BBX 15 25 2 0
BITMAP
0070
0070
0070
00E0
0FE0
1FC0
3C00
7000
67C0
FFF0
FFF8
F03C
E01C
E01C
E00E
C00E
C00E
C00E
E00E
E01C
E01C
703C
3FF8
3FF0
0FC0
ENDCHAR
STARTCHAR char1074
ENCODING 1074
SWIDTH 19 0
DWIDTH 17 0
BBX 14 17 2 0
BITMAP
FFE0
FFF0
E078
E038
E018
E038
E038
FFF0
FFF0
E078
E01C
E01C
E01C
E01C
E07C
FFF8
FFF0
ENDCHAR
STARTCHAR char1075
ENCODING 1075
SWIDTH 5 0
DWIDTH 12 0
BBX 10 17 2 0
BITMAP
FFC0
FFC0
E000
E000
E000
E000
E000
E000
E000
E000
E000
E000
E000
E000
E000
E000
E000
ENDCHAR
STARTCHAR char1076
ENCODING 1076
SWIDTH 24 0
DWIDTH 19 0
BBX 17 20 0 -3
BITMAP
07FF00
07FF00
070700
070700
070700
070700
070700
070700
060700
0E0700
0E0700
0E0700
1C0700
3C0700
780700
FFFF80
FFFF80
E00180
E00180
E00180
ENDCHAR
STARTCHAR char1077
ENCODING 1077
SWIDTH 22 0
DWIDTH 18 0
BBX 15 17 1 0
BITMAP
07E0
1FF8
3FFC
381C
700E
600E
E00E
FFFE
FFFE
E000
E000
6006
700E
781C
3FFC
1FF8
07E0
ENDCHAR
STARTCHAR char1078
ENCODING 1078
SWIDTH 2 0
DWIDTH 21 0
BBX 22 17 0 0
BITMAP
707070
387070
3870E0
1C70E0
1C71C0
0E71C0
0E7380
07FF80
0FFF80
0E73C0
1C71C0
1C70E0
3870E0
387070
707070
F07038
E0703C
ENDCHAR
STARTCHAR char1079
ENCODING 1079
SWIDTH 13 0
DWIDTH 15 0
BBX 12 17 1 0
BITMAP
0F80
3FC0
3DE0
7070
7070
7070
00E0
07C0
07C0
01E0
0070
E070
E070
7070
7DE0
3FE0
0F80
ENDCHAR
STARTCHAR char1080
ENCODING 1080
SWIDTH 22 0
DWIDTH 18 0
BBX 12 17 3 0
BITMAP
C030
C030
C070
C0F0
C1F0
C1F0
C3B0
C730
CE30
CE30
DC30
F830
F030
F030
E030
C030
C030
ENDCHAR
STARTCHAR char1081
ENCODING 1081
SWIDTH 22 0
DWIDTH 18 0
BBX 12 23 3 0
BITMAP
6060
71C0
3FC0
1F80
0000
0000
C030
C030
C070
C0F0
C1F0
C1F0
C3B0
C730
CE30
CE30
DC30
F830
F030
F030
E030
C030
C030
ENDCHAR
STARTCHAR char1082
ENCODING 1082
SWIDTH 10 0
DWIDTH 14 0
BBX 14 17 1 0
BITMAP
E070
E070
E0E0
E0E0
E1C0
E1C0
E380
FF80
FF80
E3C0
E1C0
E0E0
E0E0
E070
E078
E038
E01C
ENDCHAR
STARTCHAR char1083
ENCODING 1083
SWIDTH 24 0
DWIDTH 19 0
BBX 15 17 1 0
BITMAP
1FFE
1FFE
180E
180E
180E
180E
180E
180E
180E
180E
180E
380E
380E
380E
F00E
E00E
C00E
ENDCHAR
STARTCHAR char1084
ENCODING 1084
SWIDTH 4 0
DWIDTH 22 0
BBX 20 17 1 0
BITMAP
F801F0
F801F0
F801F0
FC03F0
EC0370
EE0770
E60670
E60670
E70E70
E30C70
E39C70
E39870
E19870
E1F870
E0F070
E0F070
E0F070
ENDCHAR
STARTCHAR char1085
ENCODING 1085
SWIDTH 22 0
DWIDTH 18 0
BBX 13 17 2 0
BITMAP
E018
E018
E018
E018
E018
E018
E018
FFF8
FFF8
E018
E018
E018
E018
E018
E018
E018
E018
ENDCHAR
STARTCHAR char1086
ENCODING 1086
SWIDTH 22 0
DWIDTH 18 0
BBX 15 17 1 0
BITMAP
07E0
1FF8
3FFC
781C
700E
700E
E00E
E006
E006
E006
E00E
700E
700E
781C
3FFC
1FF8
07E0
ENDCHAR
STARTCHAR char1087
ENCODING 1087
SWIDTH 19 0
DWIDTH 17 0
BBX 13 17 2 0
BITMAP
FFF8
FFF8
E038
E038
E038
E038
E038
E038
E038
E038
E038
E038
E038
E038
E038
E038
E038
ENDCHAR
STARTCHAR char1088
ENCODING 1088
SWIDTH 22 0
DWIDTH 18 0
BBX 15 23 2 -6
BITMAP
C7C0
CFF0
DFF8
F03C
F01C
E00C
E00E
E00E
E00E
E00E
E00E
E00C
F01C
F03C
FFF8
DFF0
C7C0
C000
C000
C000
C000
C000
C000
ENDCHAR
STARTCHAR char1089
ENCODING 1089
SWIDTH 16 0
DWIDTH 16 0
BBX 14 17 1 0
BITMAP
07C0
1FF0
3EF8
783C
701C
E01C
E000
E000
E000
E000
E000
E01C
701C
7038
3EF8
1FF0
07C0
ENDCHAR
STARTCHAR char1090
ENCODING 1090
SWIDTH 13 0
DWIDTH 15 0
BBX 13 17 1 0
BITMAP
FFF8
FFF8
0700
0700
0700
0700
0700
0700
0700
0700
0700
0700
0700
0700
0700
0700
0700
ENDCHAR
STARTCHAR char1091
ENCODING 1091
SWIDTH 16 0
DWIDTH 16 0
BBX 14 24 1 -7
BITMAP
E01C
E01C
6018
7038
7038
3030
3870
3870
1860
1CE0
1CE0
0DC0
0FC0
0F80
0780
0780
0700
0700
0700
0E00
0E00
7C00
7C00
7800
ENDCHAR
STARTCHAR char1092
ENCODING 1092
SWIDTH 16 0
DWIDTH 26 0
BBX 22 28 2 -7
BITMAP
003000
003000
003000
003000
03FF00
0FFFC0
1F33F0
3C3078
703038
70301C
60301C
E0301C
E0301C
E0301C
E0301C
70301C
703038
383078
3C30F0
1FFFE0
07FFC0
00FC00
003000
003000
003000
003000
003000
003000
ENDCHAR
STARTCHAR char1093
ENCODING 1093
SWIDTH 16 0
DWIDTH 16 0
BBX 14 17 1 0
BITMAP
E01C
7038
3870
3870
1CE0
0FC0
0FC0
0780
0780
0780
0FC0
1CE0
1CE0
3870
7038
7038
E01C
ENDCHAR
STARTCHAR char1094
ENCODING 1094
SWIDTH 22 0
DWIDTH 18 0
BBX 14 22 3 -5
BITMAP
C070
C070
C070
C070
C070
C070
C070
C070
C070
C070
C070
C070
C070
C070
C070
FFFC
FFFC
001C
001C
001C
001C
001C
ENDCHAR
STARTCHAR char1095
ENCODING 1095
SWIDTH 19 0
DWIDTH 17 0
BBX 12 17 2 0
BITMAP
E030
E030
E030
E030
E030
E030
E030
E030
F070
FFF0
7FF0
0030
0030
0030
0030
0030
0030
ENDCHAR
STARTCHAR char1096
ENCODING 1096
SWIDTH 16 0
DWIDTH 26 0
BBX 22 17 2 0
BITMAP
E0701C
E0701C
E0701C
E0701C
E0701C
E0701C
E0701C
E0701C
E0701C
E0701C
E0701C
E0701C
E0701C
E0701C
E0701C
FFFFFC
FFFFFC
ENDCHAR
STARTCHAR char1097
ENCODING 1097
SWIDTH 16 0
DWIDTH 26 0
BBX 23 22 2 -5
BITMAP
E0301C
E0301C
E0301C
E0301C
E0301C
E0301C
E0301C
E0301C
E0301C
E0301C
E0301C
E0301C
E0301C
E0301C
E0301C
FFFFFE
FFFFFE
00000E
00000E
00000E
00000E
00000E
ENDCHAR
STARTCHAR char1098
ENCODING 1098
SWIDTH 27 0
DWIDTH 20 0
BBX 20 17 -1 0
BITMAP
FFC000
FFC000
01C000
01C000
01C000
01C000
01C000
01FF80
01FFE0
01C0F0
01C070
01C030
01C030
01C070
01C0F0
01FFE0
01FFC0
ENDCHAR
STARTCHAR char1099
ENCODING 1099
SWIDTH 7 0
DWIDTH 23 0
BBX 17 17 3 0
BITMAP
C00180
C00180
C00180
C00180
C00180
C00180
C00180
FFC180
FFF180
C0F180
C03980
C03980
C03980
C03980
C0F180
FFF180
FFC180
ENDCHAR
STARTCHAR char1100
ENCODING 1100
SWIDTH 19 0
DWIDTH 17 0
BBX 14 17 2 0
BITMAP
E000
E000
E000
E000
E000
E000
E000
FFE0
FFF0
E078
E038
E01C
E01C
E038
E078
FFF0
FFE0
ENDCHAR
STARTCHAR char1101
ENCODING 1101
SWIDTH 16 0
DWIDTH 16 0
BBX 15 17 1 0
BITMAP
0FC0
3FF0
7FF8
7038
E01C
601C
000C
03FE
03FE
000E
000C
E01C
E01C
7038
7FF8
3FF0
0FC0
ENDCHAR
STARTCHAR char1102
ENCODING 1102
SWIDTH 10 0
DWIDTH 24 0
BBX 21 17 2 0
BITMAP
C01F80
C07FC0
C0FFE0
C1E070
C1C078
C38038
C38038
FF8038
FF8038
C38038
C38038
C38038
C1C078
C1E070
C0FBE0
C07FC0
C01F80
ENDCHAR
STARTCHAR char1103
ENCODING 1103
SWIDTH 19 0
DWIDTH 17 0
BBX 14 17 1 0
BITMAP
1FFC
3FFC
781C
701C
E01C
E01C
701C
781C
3FFC
0FFC
381C
301C
701C
701C
701C
701C
701C
ENDCHAR
STARTCHAR char1104
ENCODING 1104
SWIDTH 22 0
DWIDTH 18 0
BBX 15 23 1 0
BITMAP
0E00
0700
0380
0180
0040
0000
07E0
1FF8
3FFC
781C
700E
600E
E00E
FFFE
FFFE
E000
E000
600E
700E
781C
3FFC
1FF8
07E0
ENDCHAR
STARTCHAR char1105
ENCODING 1105
SWIDTH 22 0
DWIDTH 18 0
BBX 15 23 1 0
BITMAP
0E70
0E70
0E70
0000
0000
0000
07E0
1FF8
3FFC
381C
700E
700E
6006
FFFE
FFFE
E000
6000
6006
700E
381C
3FFC
1FF8
07E0
ENDCHAR
STARTCHAR char1106
ENCODING 1106
SWIDTH 22 0
DWIDTH 18 0
BBX 17 27 -1 -4
BITMAP
1C0000
1C0000
FFC000
FFC000
1C0000
1C0000
1C7C00
1CFE00
1DFF00
1F0700
1E0380
1C0380
1C0380
1C0380
1C0380
1C0380
1C0380
1C0380
1C0380
1C0380
1C0380
1C0380
1C0380
000700
000F00
01FE00
01FC00
ENDCHAR
STARTCHAR char1107
ENCODING 1107
SWIDTH 5 0
DWIDTH 12 0
BBX 10 23 2 0
BITMAP
0780
0E00
0C00
1800
0000
0000
FFC0
FFC0
E000
E000
E000
E000
E000
E000
E000
E000
E000
E000
E000
E000
E000
E000
E000
ENDCHAR
STARTCHAR char1108
ENCODING 1108
SWIDTH 16 0
DWIDTH 16 0
BBX 15 17 1 0
BITMAP
0FC0
1FF0
3FF8
703C
E01C
E008
E000
FF00
FF00
C000
E000
E00E
E01C
703C
3EF8
1FF0
0FC0
ENDCHAR
STARTCHAR char1109
ENCODING 1109
SWIDTH 16 0
DWIDTH 16 0
BBX 14 17 1 0
BITMAP
0FC0
3FF0
7FF0
7038
6038
6000
7800
7F80
1FF0
03F8
0038
001C
E01C
F038
7FF8
3FF0
1FC0
ENDCHAR
STARTCHAR char1110
ENCODING 1110
SWIDTH 19 0
DWIDTH 7 0
BBX 3 23 2 0
BITMAP
E0
E0
E0
00
00
00
E0
E0
E0
E0
E0
E0
E0
E0
E0
E0
E0
E0
E0
E0
E0
E0
E0
ENDCHAR
STARTCHAR char1111
ENCODING 1111
SWIDTH 25 0
DWIDTH 9 0
BBX 9 23 0 0
BITMAP
F780
F780
F780
0000
0000
0000
1C00
1C00
1C00
1C00
1C00
1C00
1C00
1C00
1C00
1C00
1C00
1C00
1C00
1C00
1C00
1C00
1C00
ENDCHAR
STARTCHAR char1112
ENCODING 1112
SWIDTH 19 0
DWIDTH 7 0
BBX 6 30 -1 -7
BITMAP
1C
1C
1C
00
00
00
1C
1C
1C
1C
1C
1C
1C
1C
1C
1C
1C
1C
1C
1C
1C
1C
1C
1C
1C
1C
1C
FC
F8
E0
ENDCHAR
STARTCHAR char1113
ENCODING 1113
SWIDTH 24 0
DWIDTH 29 0
BBX 26 17 1 0
BITMAP
1FFE0000
1FFE0000
18060000
18060000
18060000
18060000
18060000
1807FE00
1807FF80
18060780
180601C0
180601C0
380601C0
380601C0
F0060780
E007FF80
C007FE00
ENDCHAR
STARTCHAR char1114
ENCODING 1114
SWIDTH 16 0
DWIDTH 26 0
BBX 23 17 2 0
BITMAP
C03800
C03800
C03800
C03800
C03800
C03800
C03800
FFFFF8
FFFFFC
C0383E
C0380E
C03806
C03806
C0380E
C0381E
C03FFC
C03FF8
ENDCHAR
STARTCHAR char1115
ENCODING 1115
SWIDTH 22 0
DWIDTH 18 0
BBX 17 23 -1 0
BITMAP
1C0000
1C0000
FFC000
FFC000
1C0000
1C0000
1C7C00
1CFE00
1DFF00
1F0700
1E0380
1C0380
1C0380
1C0380
1C0380
1C0380
1C0380
1C0380
1C0380
1C0380
1C0380
1C0380
1C0380
ENDCHAR
STARTCHAR char1116
ENCODING 1116
SWIDTH 10 0
DWIDTH 14 0
BBX 14 23 1 0
BITMAP
03C0
0380
0700
0C00
0000
0000
E070
E070
E0E0
E0E0
E1C0
E1C0
E380
FF80
FF80
E3C0
E1C0
E0E0
E0E0
E070
E078
E038
E01C
ENDCHAR
STARTCHAR char1117
ENCODING 1117
SWIDTH 22 0
DWIDTH 18 0
BBX 12 23 3 0
BITMAP
7800
1C00
0C00
0600
0000
0000
C030
C030
C070
C0F0
C1F0
C1F0
C3B0
C730
CE30
CE30
DC30
F830
F030
F030
E030
C030
C030
ENDCHAR
STARTCHAR char1118
ENCODING 1118
SWIDTH 16 0
DWIDTH 16 0
BBX 14 30 1 -7
BITMAP
3030
3CE0
1FE0
0F80
0000
0000
E01C
E01C
6018
7038
7038
3030
3870
3870
1860
1CE0
1CE0
0DC0
0FC0
0F80
0780
0780
0700
0700
0700
0E00
0E00
7C00
7C00
7800
ENDCHAR
STARTCHAR char1119
ENCODING 1119
SWIDTH 22 0
DWIDTH 18 0
BBX 12 22 3 -5
BITMAP
C070
C070
C070
C070
C070
C070
C070
C070
C070
C070
C070
C070
C070
C070
C070
FFF0
FFF0
0600
0600
0600
0600
0600
ENDCHAR
STARTCHAR char1122
ENCODING 1122
SWIDTH 13 0
DWIDTH 25 0
BBX 23 23 0 0
BITMAP
038000
038000
038000
FFFE00
FFFE00
FFFE00
038000
038000
038000
038000
03FFE0
03FFF8
03FFFC
03801E
03800E
03800E
03800E
03800E
03800E
03801E
03FFFC
03FFF8
03FFF0
ENDCHAR
STARTCHAR char1123
ENCODING 1123
SWIDTH 27 0
DWIDTH 20 0
BBX 15 22 2 0
BITMAP
3800
3800
3800
3800
3800
FE00
FE00
3800
3800
3800
3800
3800
3FF0
3FFC
381E
380E
3806
3806
380E
381E
3FFC
3FF8
ENDCHAR
STARTCHAR char1138
ENCODING 1138
SWIDTH 13 0
DWIDTH 25 0
BBX 23 23 1 0
BITMAP
00FE00
07FF80
0FFFE0
1F01F0
3C0078
380038
70003C
70001C
F0001C
E0001E
EFF00E
FFFFFE
F03FFE
E00F9E
F0001C
70001C
70003C
380038
3C0078
1F01F0
0FFFE0
07FF80
00FE00
ENDCHAR
STARTCHAR char1139
ENCODING 1139
SWIDTH 22 0
DWIDTH 18 0
BBX 15 17 1 0
BITMAP
07E0
1FF8
3FFC
781C
700E
700E
E00E
FF8E
FFFE
F1FE
E006
700E
700E
781C
3EFC
1FF8
07E0
ENDCHAR
STARTCHAR char1140
ENCODING 1140
SWIDTH 16 0
DWIDTH 26 0
BBX 21 23 3 0
BITMAP
E00078
E000F8
7001F8
7001C0
700380
380380
380380
380700
1C0700
1C0700
0E0600
0E0E00
0E0E00
070C00
071C00
071C00
039800
039800
03B800
01F000
01F000
00F000
00E000
ENDCHAR
STARTCHAR char1141
ENCODING 1141
SWIDTH 27 0
DWIDTH 20 0
BBX 15 17 3 0
BITMAP
E01E
E03E
E038
7070
7070
7070
3860
3860
38E0
1CC0
1CC0
1CC0
0FC0
0F80
0780
0780
0700
ENDCHAR
STARTCHAR char1168
ENCODING 1168
SWIDTH 16 0
DWIDTH 16 0
BBX 18 28 2 0
BITMAP
0001C0
000380
000700
000600
000C00
FFFC00
FFFC00
FFFC00
E00000
E00000
E00000
E00000
E00000
E00000
E00000
E00000
E00000
E00000
E00000
E00000
E00000
E00000
E00000
E00000
E00000
E00000
E00000
E00000
ENDCHAR
STARTCHAR char1169
ENCODING 1169
SWIDTH 8 0
DWIDTH 13 0
BBX 14 22 3 0
BITMAP
001C
0038
0030
0060
00C0
FFC0
FFC0
C000
C000
C000
C000
C000
C000
C000
C000
C000
C000
C000
C000
C000
C000
C000
ENDCHAR
STARTCHAR char1170
ENCODING 1170
SWIDTH 19 0
DWIDTH 17 0
BBX 16 23 1 0
BITMAP
3FFF
3FFF
3FFF
3800
3800
3800
3800
3800
3800
3800
FFF8
FFF8
FFF8
3800
3800
3800
3800
3800
3800
3800
3800
3800
3800
ENDCHAR
STARTCHAR char1171
ENCODING 1171
SWIDTH 5 0
DWIDTH 12 0
BBX 11 17 1 0
BITMAP
7FE0
7FE0
7000
7000
7000
7000
7000
FF80
FF80
7000
7000
7000
7000
7000
7000
7000
7000
ENDCHAR
STARTCHAR char1174
ENCODING 1174
SWIDTH 7 0
DWIDTH 33 0
BBX 33 28 0 -5
BITMAP
3803803800
3C03807800
1C03807000
0E0380F000
0F0380E000
070381C000
078383C000
0383838000
01C3878000
01FFFF0000
00FFFE0000
00FFFF0000
01C3870000
03C3838000
038383C000
070381C000
0F0380E000
0E0380F000
1C03807000
3C03803800
3803803F80
7003801F80
F003800F80
0000000380
0000000380
0000000380
0000000380
0000000380
ENDCHAR
STARTCHAR char1175
ENCODING 1175
SWIDTH 16 0
DWIDTH 26 0
BBX 26 22 0 -5
BITMAP
381C0E00
381C0E00
1C1C1C00
1C1C1C00
0E1C3800
0E1C3800
071C7000
07FFF000
07FFF000
0F1C7800
0E1C3800
1C1C1C00
1C1C1C00
381C0E00
381C0F00
701C07C0
E01C03C0
000001C0
000001C0
000001C0
000001C0
000001C0
ENDCHAR
STARTCHAR char1176
ENCODING 1176
SWIDTH 24 0
DWIDTH 19 0
BBX 16 30 2 -7
BITMAP
07E0
1FF0
3FFC
783C
701E
700E
700E
700E
001C
003C
03F8
03F0
03FC
001E
000E
000E
E00F
E00E
E00E
F00E
781C
3FFC
1FF8
07C0
0300
03C0
00E0
00E0
19C0
0F80
ENDCHAR
STARTCHAR char1177
ENCODING 1177
SWIDTH 13 0
DWIDTH 15 0
BBX 12 24 1 -7
BITMAP
0F80
3FC0
3DE0
7070
7070
7070
0070
01E0
07C0
07E0
00F0
0070
E070
E070
7070
7FE0
3FC0
0F00
0400
0780
01C0
01C0
3380
1F00
ENDCHAR
STARTCHAR char1178
ENCODING 1178
SWIDTH 2 0
DWIDTH 21 0
BBX 17 28 3 -5
BITMAP
E03C00
E03800
E07000
E0F000
E0E000
E1E000
E1C000
E38000
E78000
FF0000
FF0000
FF0000
E78000
E38000
E1C000
E1C000
E0E000
E0F000
E07000
E03800
E03F80
E01F80
E00F80
000380
000380
000380
000380
000380
ENDCHAR
STARTCHAR char1179
ENCODING 1179
SWIDTH 19 0
DWIDTH 17 0
BBX 15 22 2 -5
BITMAP
E078
E070
E0E0
E0E0
E1C0
E1C0
E380
FF80
FF80
E1C0
E1C0
E0E0
E0F0
E070
E078
E03E
E01E
0006
0006
0006
0006
0006
ENDCHAR
STARTCHAR char1180
ENCODING 1180
SWIDTH 27 0
DWIDTH 20 0
BBX 16 23 3 0
BITMAP
E00E
E01C
E03C
E038
EC70
EC70
ECE0
EDE0
EDC0
FF80
FF80
FF80
EDC0
EDC0
ECE0
ECF0
EC70
EC38
E03C
E01C
E00E
E00F
E007
ENDCHAR
STARTCHAR char1181
ENCODING 1181
SWIDTH 16 0
DWIDTH 16 0
BBX 14 17 2 0
BITMAP
E078
E070
E4E0
E4E0
E5C0
E5C0
E780
FF80
FF80
E5C0
E5C0
E4E0
E4F0
E070
E038
E038
E01C
ENDCHAR
STARTCHAR char1184
ENCODING 1184
SWIDTH 24 0
DWIDTH 19 0
BBX 24 23 -7 0
BITMAP
FFF01E
FFF01C
FFF03C
007038
007070
0070F0
0070E0
0071E0
0071C0
007F80
007F80
007F80
0073C0
0071C0
0070E0
0070F0
007070
007038
00703C
00701C
00700E
00700F
007007
ENDCHAR
STARTCHAR char1185
ENCODING 1185
SWIDTH 10 0
DWIDTH 14 0
BBX 21 17 -6 0
BITMAP
FFC0E0
FFC0E0
01C1C0
01C1C0
01C380
01C380
01C700
01FF00
01FF00
01C780
01C380
01C1C0
01C1C0
01C0E0
01C0F0
01C070
01C038
ENDCHAR
STARTCHAR char1186
ENCODING 1186
SWIDTH 7 0
DWIDTH 23 0
BBX 19 28 3 -5
BITMAP
E001C0
E001C0
E001C0
E001C0
E001C0
E001C0
E001C0
E001C0
E001C0
E001C0
FFFFC0
FFFFC0
FFFFC0
E001C0
E001C0
E001C0
E001C0
E001C0
E001C0
E001C0
E001E0
E001E0
E001E0
0000E0
0000E0
0000E0
0000E0
0000E0
ENDCHAR
STARTCHAR char1187
ENCODING 1187
SWIDTH 22 0
DWIDTH 18 0
BBX 14 22 2 -5
BITMAP
E018
E018
E018
E018
E018
E018
E018
FFF8
FFF8
E018
E018
E018
E018
E018
E018
E01C
E01C
000C
000C
000C
000C
000C
ENDCHAR
STARTCHAR char1194
ENCODING 1194
SWIDTH 7 0
DWIDTH 23 0
BBX 20 30 2 -7
BITMAP
01FC00
0FFF00
1FFF80
3C03C0
3801C0
7001E0
7000E0
E00000
E00000
E00000
E00000
E00000
E00000
E00000
E00000
E000F0
E000E0
7000E0
7001E0
3801C0
3E07C0
1FFF80
07FF00
01F800
004000
00F800
001800
001800
033800
01F000
ENDCHAR
STARTCHAR char1195
ENCODING 1195
SWIDTH 16 0
DWIDTH 16 0
BBX 14 24 1 -7
BITMAP
07C0
1FF0
3EF8
7838
701C
E01C
E000
E000
E000
E000
E000
E00C
E01C
701C
7838
3FF8
1FF0
07C0
0300
03C0
00E0
00E0
1DC0
0F80
ENDCHAR
STARTCHAR char1198
ENCODING 1198
SWIDTH 4 0
DWIDTH 22 0
BBX 20 23 1 0
BITMAP
E000F0
F000E0
7801E0
3801C0
3C0380
1C0780
0E0700
0F0E00
070E00
079C00
03FC00
01F800
01F000
00F000
00E000
00E000
00E000
00E000
00E000
00E000
00E000
00E000
00E000
ENDCHAR
STARTCHAR char1199
ENCODING 1199
SWIDTH 16 0
DWIDTH 16 0
BBX 14 24 1 -7
BITMAP
E01C
E01C
6018
7038
7038
3030
3870
3870
1860
1CE0
1CE0
0CC0
0FC0
0FC0
0780
0780
0780
0300
0300
0300
0300
0300
0300
0300
ENDCHAR
STARTCHAR char1200
ENCODING 1200
SWIDTH 4 0
DWIDTH 22 0
BBX 20 23 1 0
BITMAP
E000F0
F000E0
7801E0
3801C0
3C0380
1C0780
0E0700
0F0E00
070E00
079C00
03FC00
01F800
01F000
00F000
00E000
00E000
1FFF00
1FFF00
1FFF00
00E000
00E000
00E000
00E000
ENDCHAR
STARTCHAR char1201
ENCODING 1201
SWIDTH 16 0
DWIDTH 16 0
BBX 14 24 1 -7
BITMAP
E01C
E01C
6018
7038
7038
3030
3870
3870
1860
1CE0
1CE0
0CC0
0FC0
0FC0
0780
0780
0780
3FF0
3FF0
0300
0300
0300
0300
0300
ENDCHAR
STARTCHAR char1202
ENCODING 1202
SWIDTH 7 0
DWIDTH 23 0
BBX 21 28 1 -5
BITMAP
F001E0
7801C0
3803C0
1C0780
1E0700
0E0E00
071E00
079C00
03B800
01F800
01F000
00F000
01F000
03F800
03BC00
071C00
0F0E00
1E0F00
1C0780
3C0380
7803F8
7001F8
F000F8
000038
000038
000038
000038
000038
ENDCHAR
STARTCHAR char1203
ENCODING 1203
SWIDTH 19 0
DWIDTH 17 0
BBX 15 22 1 -5
BITMAP
E01C
7038
7870
3870
1CE0
0DC0
0FC0
0780
0780
0780
0FC0
1CE0
1CE0
3870
7070
703E
E01E
000E
000E
000E
000E
000E
ENDCHAR
STARTCHAR char1206
ENCODING 1206
SWIDTH 4 0
DWIDTH 22 0
BBX 19 28 2 -5
BITMAP
E001C0
E001C0
E001C0
E001C0
E001C0
E001C0
E001C0
E001C0
E001C0
E001C0
E001C0
F001C0
7FFFC0
3FFFC0
0FF9C0
0001C0
0001C0
0001C0
0001C0
0001C0
0001E0
0001E0
0001E0
0000E0
0000E0
0000E0
0000E0
0000E0
ENDCHAR
STARTCHAR char1207
ENCODING 1207
SWIDTH 16 0
DWIDTH 16 0
BBX 13 22 2 -5
BITMAP
C070
C070
C070
C070
C070
C070
C070
E070
E070
FFF0
7FF0
0070
0070
0070
0070
0078
0078
0038
0038
0038
0038
0038
ENDCHAR
STARTCHAR char1208
ENCODING 1208
SWIDTH 4 0
DWIDTH 22 0
BBX 18 23 2 0
BITMAP
E001C0
E001C0
E001C0
E001C0
E001C0
E0C1C0
E0C1C0
E0C1C0
E0C1C0
E0C1C0
E0C1C0
F0C1C0
7FFFC0
3FFFC0
0FFDC0
00C1C0
00C1C0
00C1C0
00C1C0
00C1C0
0001C0
0001C0
0001C0
ENDCHAR
STARTCHAR char1209
ENCODING 1209
SWIDTH 16 0
DWIDTH 16 0
BBX 12 17 2 0
BITMAP
C070
C070
C070
C070
C070
C670
C670
E670
F670
FFF0
7FF0
0670
0670
0670
0070
0070
0070
ENDCHAR
STARTCHAR char1210
ENCODING 1210
SWIDTH 4 0
DWIDTH 22 0
BBX 18 23 2 0
BITMAP
E00000
E00000
E00000
E00000
E00000
E00000
E00000
E00000
E7F800
FFFE00
FFFF80
E00780
E003C0
E001C0
E001C0
E001C0
E001C0
E001C0
E001C0
E001C0
E001C0
E001C0
E001C0
ENDCHAR
STARTCHAR char1211
ENCODING 1211
SWIDTH 22 0
DWIDTH 18 0
BBX 13 23 3 0
BITMAP
C000
C000
C000
C000
C000
C000
C7C0
CFF0
DFF0
F838
E038
E038
C038
C038
C038
C038
C038
C038
C038
C038
C038
C038
C038
ENDCHAR
STARTCHAR char1216
ENCODING 1216
SWIDTH 25 0
DWIDTH 9 0
BBX 3 23 3 0
BITMAP
E0
E0
E0
E0
E0
E0
E0
E0
E0
E0
E0
E0
E0
E0
E0
E0
E0
E0
E0
E0
E0
E0
E0
ENDCHAR
STARTCHAR char1227
ENCODING 1227
SWIDTH 2 0
DWIDTH 21 0
BBX 18 28 1 -5
BITMAP
F001C0
F001C0
F001C0
F001C0
F001C0
F001C0
F001C0
F001C0
F001C0
F001C0
7001C0
7801C0
3FFFC0
1FFFC0
07FDC0
0001C0
0001C0
0001C0
0001C0
0001C0
0007C0
0007C0
0007C0
000700
000700
000700
000700
000700
ENDCHAR
STARTCHAR char1228
ENCODING 1228
SWIDTH 19 0
DWIDTH 17 0
BBX 12 22 2 -5
BITMAP
E030
E030
E030
E030
E030
E030
E030
E030
F070
FFF0
7FF0
0030
0030
0030
0030
00F0
00F0
00C0
00C0
00C0
00C0
00C0
ENDCHAR
STARTCHAR char1231
ENCODING 1231
SWIDTH 25 0
DWIDTH 9 0
BBX 3 23 3 0
BITMAP
E0
E0
E0
E0
E0
E0
E0
E0
E0
E0
E0
E0
E0
E0
E0
E0
E0
E0
E0
E0
E0
E0
E0
ENDCHAR
STARTCHAR char1240
ENCODING 1240
SWIDTH 13 0
DWIDTH 25 0
BBX 23 23 1 0
BITMAP
00FE00
07FF80
0FFFE0
1E01F0
3C0078
380038
70001C
00001C
00001C
00000E
FFFFFE
FFFFFE
FFFFFE
E0000E
F0001C
70001C
70003C
380038
3C0078
1E01F0
0FFFE0
03FF80
00FE00
ENDCHAR
STARTCHAR char1241
ENCODING 1241
SWIDTH 22 0
DWIDTH 18 0
BBX 15 17 1 0
BITMAP
07E0
1FF8
3EFC
781C
700E
600E
0006
0006
FFFE
FFFE
E006
600E
700E
781C
3FF8
1FF0
07E0
ENDCHAR
STARTCHAR char1250
ENCODING 1250
SWIDTH 7 0
DWIDTH 23 0
BBX 19 26 2 0
BITMAP
03FC00
03FC00
000000
E000E0
E000E0
E000E0
E001E0
E003E0
E007E0
E00FE0
E01EE0
E03CE0
E078E0
E0F0E0
E0E0E0
E1C0E0
E3C0E0
E780E0
EF00E0
FE00E0
FC00E0
F800E0
F000E0
E000E0
E000E0
E000E0
ENDCHAR
STARTCHAR char1251
ENCODING 1251
SWIDTH 22 0
DWIDTH 18 0
BBX 12 21 3 0
BITMAP
7FC0
7FC0
0000
0000
C030
C030
C070
C0F0
C1F0
C1F0
C3B0
C730
CE30
CE30
DC30
F830
F030
F030
E030
C030
C030
ENDCHAR
STARTCHAR char1256
ENCODING 1256
SWIDTH 13 0
DWIDTH 25 0
BBX 23 23 1 0
BITMAP
00FE00
07FF80
0FFFE0
1F01F0
3C0078
380038
70001C
70001C
E0001C
E0000E
FFFFFE
FFFFFE
FFFFFE
E0000E
F0001C
70001C
70003C
380038
3C0078
1E01F0
0FFFE0
03FF80
00FE00
ENDCHAR
STARTCHAR char1257
ENCODING 1257
SWIDTH 22 0
DWIDTH 18 0
BBX 15 17 1 0
BITMAP
07E0
1FF8
3FFC
781C
700E
700E
E00E
E006
FFFE
FFFE
E006
600E
700E
781C
3FFC
1FF8
07E0
ENDCHAR
STARTCHAR char1262
ENCODING 1262
SWIDTH 27 0
DWIDTH 20 0
BBX 19 28 1 0
BITMAP
07FC00
07FC00
000000
000000
000000
E001E0
F001C0
7001C0
7803C0
380380
3C0780
1C0700
1C0F00
0E0E00
0E0E00
071C00
071C00
07BC00
03B800
03F800
01F000
01F000
00E000
00E000
01C000
0FC000
0F8000
0F0000
ENDCHAR
STARTCHAR char1263
ENCODING 1263
SWIDTH 16 0
DWIDTH 16 0
BBX 14 28 1 -7
BITMAP
3FE0
3FE0
0000
0000
E01C
E01C
6018
7038
7038
3030
3870
3870
1860
1CE0
1CE0
0DC0
0FC0
0F80
0780
0780
0700
0700
0700
0E00
0E00
7C00
7C00
7800
ENDCHAR
STARTCHAR char7808
ENCODING 7808
SWIDTH 27 0
DWIDTH 30 0
BBX 29 30 1 0
BITMAP
003C0000
001E0000
000E0000
00070000
00030000
00000000
00000000
E00F0078
E00F0070
F00F8070
700F8070
701F80F0
701D80E0
781DC0E0
3819C0E0
3839C1E0
3838E1C0
3C30E1C0
1C70E1C0
1C7061C0
1C707380
1C607380
0EE07380
0EE03B00
0EC03F00
0FC03F00
07C01F00
07C01E00
07801E00
03801E00
ENDCHAR
STARTCHAR char7809
ENCODING 7809
SWIDTH 7 0
DWIDTH 23 0
BBX 22 23 0 0
BITMAP
00E000
007000
003000
001800
000000
000000
E0380C
70781C
707C1C
707C1C
707C18
38EC38
38EE38
38CE30
18CE30
1DC670
1DC770
1D8760
0D83E0
0F83E0
0F83C0
0703C0
0701C0
ENDCHAR
STARTCHAR char7810
ENCODING 7810
SWIDTH 27 0
DWIDTH 30 0
BBX 29 30 1 0
BITMAP
0000F000
0000E000
0001C000
00038000
00030000
00000000
00000000
E00F0078
E00F0070
F00F8070
700F8070
701F80F0
701D80E0
781DC0E0
3819C0E0
3839C1E0
3838E1C0
3C30E1C0
1C70E1C0
1C7061C0
1C707380
1C607380
0EE07380
0EE03B00
0EC03F00
0FC03F00
07C01F00
07C01E00
07801E00
03801E00
ENDCHAR
STARTCHAR char7811
ENCODING 7811
SWIDTH 7 0
DWIDTH 23 0
BBX 22 23 0 0
BITMAP
001E00
001C00
003000
006000
000000
000000
E0380C
70781C
707C1C
707C1C
707C18
38EC38
38EE38
38CE30
18CE30
1DC670
1DC770
1D8760
0D83E0
0F83E0
0F83C0
0703C0
0701C0
ENDCHAR
STARTCHAR char7812
ENCODING 7812
SWIDTH 27 0
DWIDTH 30 0
BBX 29 29 1 0
BITMAP
0039C000
0039C000
0039C000
00000000
00000000
00000000
E00F0078
E00F0070
F00F8070
700F8070
701F80F0
701D80E0
781DC0E0
3819C0E0
3839C1E0
3838E1C0
3C30E1C0
1C70E1C0
1C7061C0
1C707380
1C607380
0EE07380
0EE03B00
0EC03F00
0FC03F00
07C01F00
07C01E00
07801E00
03801E00
ENDCHAR
STARTCHAR char7813
ENCODING 7813
SWIDTH 7 0
DWIDTH 23 0
BBX 22 23 0 0
BITMAP
01CE00
01CE00
01CE00
000000
000000
000000
E0380C
70781C
707C1C
707C1C
707C18
38EC38
38EE38
38CE30
18CE30
1DC670
1DC770
1D8760
0D83E0
0F83E0
0F83C0
0703C0
0701C0
ENDCHAR
STARTCHAR char7922
ENCODING 7922
SWIDTH 2 0
DWIDTH 21 0
BBX 20 30 1 0
BITMAP
078000
038000
01C000
00E000
006000
000000
000000
E000F0
F000E0
7801E0
3801C0
3C0380
1C0780
0E0700
0F0E00
070E00
039C00
03FC00
01F800
01F000
00F000
00E000
00E000
00E000
00E000
00E000
00E000
00E000
00E000
00E000
ENDCHAR
STARTCHAR char7923
ENCODING 7923
SWIDTH 16 0
DWIDTH 16 0
BBX 14 30 1 -7
BITMAP
1C00
0E00
0700
0300
0000
0000
E01C
E01C
E018
7038
7038
7070
3870
3870
38E0
1CE0
1CC0
1DC0
0FC0
0F80
0F80
0780
0700
0700
0700
0E00
0E00
7C00
7C00
7800
ENDCHAR
STARTCHAR char8194
ENCODING 8194
SWIDTH 16 0
DWIDTH 16 0
BBX 0 0 0 0
BITMAP
ENDCHAR
STARTCHAR char8211
ENCODING 8211
SWIDTH 22 0
DWIDTH 18 0
BBX 18 2 0 8
BITMAP
FFFFC0
FFFFC0
ENDCHAR
STARTCHAR char8212
ENCODING 8212
SWIDTH 4 0
DWIDTH 32 0
BBX 32 2 0 8
BITMAP
FFFFFFFF
FFFFFFFF
ENDCHAR
STARTCHAR char8213
ENCODING 8213
SWIDTH 4 0
DWIDTH 32 0
BBX 32 2 0 8
BITMAP
FFFFFFFF
FFFFFFFF
ENDCHAR
STARTCHAR char8215
ENCODING 8215
SWIDTH 22 0
DWIDTH 18 0
BBX 19 6 -1 -8
BITMAP
FFFFE0
FFFFE0
000000
000000
FFFFE0
FFFFE0
ENDCHAR
STARTCHAR char8216
ENCODING 8216
SWIDTH 19 0
DWIDTH 7 0
BBX 3 7 2 15
BITMAP
60
C0
C0
C0
E0
E0
E0
ENDCHAR
STARTCHAR char8217
ENCODING 8217
SWIDTH 19 0
DWIDTH 7 0
BBX 3 7 2 16
BITMAP
E0
E0
E0
20
20
60
C0
ENDCHAR
STARTCHAR char8218
ENCODING 8218
SWIDTH 19 0
DWIDTH 7 0
BBX 3 7 2 -4
BITMAP
E0
E0
E0
20
60
60
C0
ENDCHAR
STARTCHAR char8219
ENCODING 8219
SWIDTH 19 0
DWIDTH 7 0
BBX 3 7 2 16
BITMAP
E0
E0
E0
C0
C0
C0
60
ENDCHAR
STARTCHAR char8220
ENCODING 8220
SWIDTH 2 0
DWIDTH 11 0
BBX 8 7 2 15
BITMAP
63
84
84
84
E7
E7
E7
ENDCHAR
STARTCHAR char8221
ENCODING 8221
SWIDTH 2 0
DWIDTH 11 0
BBX 8 7 2 16
BITMAP
E7
E7
E7
63
43
42
C6
ENDCHAR
STARTCHAR char8222
ENCODING 8222
SWIDTH 2 0
DWIDTH 11 0
BBX 9 7 1 -4
BITMAP
E380
E380
E380
2180
2100
6300
C200
ENDCHAR
STARTCHAR char8224
ENCODING 8224
SWIDTH 22 0
DWIDTH 18 0
BBX 15 29 1 -6
BITMAP
0380
0380
0380
0380
0380
0380
0380
FFFE
FFFE
FFFE
0380
0380
0380
0380
0380
0380
0380
0380
0380
0380
0380
0380
0380
0380
0380
0380
0380
0380
0380
ENDCHAR
STARTCHAR char8225
ENCODING 8225
SWIDTH 22 0
DWIDTH 18 0
BBX 15 29 1 -6
BITMAP
0380
0380
0380
0380
0380
0380
0380
FFFE
FFFE
FFFE
0380
0380
0380
0380
0380
0380
0380
0380
0380
FFFE
FFFE
FFFE
0380
0380
0380
0380
0380
0380
0380
ENDCHAR
STARTCHAR char8226
ENCODING 8226
SWIDTH 2 0
DWIDTH 11 0
BBX 8 8 2 7
BITMAP
3C
FE
FE
FF
FF
FE
FE
3C
ENDCHAR
STARTCHAR char8230
ENCODING 8230
SWIDTH 4 0
DWIDTH 32 0
BBX 24 3 4 0
BITMAP
E03C07
E03C07
E03C07
ENDCHAR
STARTCHAR char8240
ENCODING 8240
SWIDTH 4 0
DWIDTH 32 0
BBX 32 23 0 0
BITMAP
1E01C000
3F818000
61830000
C0C30000
C0C60000
C0C60000
618C0000
3F8C0000
1E180000
00380000
00300000
00600000
00600000
00C00000
00C7C078
018FE1FC
019C7186
03183303
03183303
06183303
0E1C7186
0C0FE1FE
1807C078
ENDCHAR
STARTCHAR char8242
ENCODING 8242
SWIDTH 16 0
DWIDTH 6 0
BBX 4 9 1 13
BITMAP
30
30
70
60
60
60
40
C0
C0
ENDCHAR
STARTCHAR char8243
ENCODING 8243
SWIDTH 2 0
DWIDTH 11 0
BBX 8 9 2 13
BITMAP
73
67
66
66
E6
C6
CC
CC
8C
ENDCHAR
STARTCHAR char8249
ENCODING 8249
SWIDTH 2 0
DWIDTH 11 0
BBX 5 10 3 3
BITMAP
08
18
38
F0
C0
C0
E0
70
38
18
ENDCHAR
STARTCHAR char8250
ENCODING 8250
SWIDTH 2 0
DWIDTH 11 0
BBX 5 10 3 3
BITMAP
80
C0
E0
70
38
18
38
F0
C0
80
ENDCHAR
STARTCHAR char8252
ENCODING 8252
SWIDTH 16 0
DWIDTH 16 0
BBX 10 23 4 0
BITMAP
C0C0
C0C0
C0C0
C0C0
C0C0
C0C0
C0C0
C0C0
C0C0
C0C0
C0C0
C0C0
C0C0
C0C0
C0C0
C0C0
C0C0
C0C0
0000
0000
C0C0
C0C0
C0C0
ENDCHAR
STARTCHAR char8254
ENCODING 8254
SWIDTH 2 0
DWIDTH 11 0
BBX 19 2 -4 27
BITMAP
FFFFE0
FFFFE0
ENDCHAR
STARTCHAR char8260
ENCODING 8260
SWIDTH 25 0
DWIDTH 9 0
BBX 16 23 -4 0
BITMAP
0003
0002
0006
000C
000C
0018
0030
0030
0060
0040
00C0
0180
0180
0300
0600
0600
0C00
0800
1800
3000
3000
6000
C000
ENDCHAR
STARTCHAR char8304
ENCODING 8304
SWIDTH 2 0
DWIDTH 11 0
BBX 10 14 0 9
BITMAP
1E00
3F80
7180
60C0
60C0
60C0
C0C0
C0C0
60C0
60C0
60C0
6180
3F80
1E00
ENDCHAR
STARTCHAR char8308
ENCODING 8308
SWIDTH 2 0
DWIDTH 11 0
BBX 10 14 0 9
BITMAP
0100
0300
0700
0F00
1B00
1B00
3300
6300
C300
FFC0
FFC0
0300
0300
0300
ENDCHAR
STARTCHAR char8309
ENCODING 8309
SWIDTH 2 0
DWIDTH 11 0
BBX 10 14 0 9
BITMAP
3F80
3F80
6000
6000
6C00
7F80
61C0
00C0
00C0
00C0
C0C0
61C0
7F80
1F00
ENDCHAR
STARTCHAR char8310
ENCODING 8310
SWIDTH 2 0
DWIDTH 11 0
BBX 10 14 0 9
BITMAP
1F00
3F80
71C0
60C0
6000
6F00
FF80
E1C0
E0C0
60C0
60C0
61C0
3F80
1F00
ENDCHAR
STARTCHAR char8311
ENCODING 8311
SWIDTH 2 0
DWIDTH 11 0
BBX 9 14 1 9
BITMAP
FF80
FF80
0180
0300
0600
0600
0C00
0800
1800
1800
3000
3000
3000
7000
ENDCHAR
STARTCHAR char8312
ENCODING 8312
SWIDTH 2 0
DWIDTH 11 0
BBX 10 15 0 8
BITMAP
1F00
3F80
6180
60C0
60C0
7180
3F00
3F80
61C0
C0C0
C0C0
E0C0
61C0
3F80
0E00
ENDCHAR
STARTCHAR char8313
ENCODING 8313
SWIDTH 2 0
DWIDTH 11 0
BBX 10 14 0 9
BITMAP
1E00
3F80
6180
E0C0
C0C0
E0C0
61C0
7FC0
1EC0
00C0
61C0
6180
3F00
1E00
ENDCHAR
STARTCHAR char8319
ENCODING 8319
SWIDTH 5 0
DWIDTH 12 0
BBX 8 10 2 9
BITMAP
9E
F7
C3
C3
83
83
83
83
83
83
ENDCHAR
STARTCHAR char8355
ENCODING 8355
SWIDTH 22 0
DWIDTH 18 0
BBX 17 23 1 0
BITMAP
FFFF00
FFFF00
FFFF00
E00000
E00000
E00000
E06380
E06F80
E06C00
FF7800
FF7000
FF7000
E06000
E06000
E06000
E06000
E06000
E06000
E06000
E06000
E06000
E06000
E06000
ENDCHAR
STARTCHAR char8356
ENCODING 8356
SWIDTH 22 0
DWIDTH 18 0
BBX 16 23 1 0
BITMAP
07E0
1FF8
3FFC
381E
700E
700E
700E
7000
7000
3800
FFE0
FFE0
0E00
FFE0
FFE0
0E00
0C00
1C00
3800
7F82
FFFF
7FFF
007C
ENDCHAR
STARTCHAR char8359
ENCODING 8359
SWIDTH 12 0
DWIDTH 35 0
BBX 28 23 4 0
BITMAP
FE000000
FF800000
FFC00000
E3C00000
E1E00000
E0E00000
E0E00000
E0E00000
E1E00000
E3C00000
FFC60000
FF860000
FE060000
E01F07E0
E0060C60
E0060C30
E0060C00
E00607C0
E00600F0
E0060030
E0060C30
E0060FF0
E00707C0
ENDCHAR
STARTCHAR char8364
ENCODING 8364
SWIDTH 22 0
DWIDTH 18 0
BBX 17 23 0 0
BITMAP
00FC00
03FF00
07FF80
070180
0E0000
0E0000
1C0000
1C0000
7FFE00
FFFC00
180000
180000
7FF800
FFF800
1C0000
1C0000
1C0000
0E0000
0E0000
070100
07FF00
03FF00
00FC00
ENDCHAR
STARTCHAR char8367
ENCODING 8367
SWIDTH 24 0
DWIDTH 29 0
BBX 25 26 2 -6
BITMAP
07F00000
1FF80000
731C0000
630E0000
C60E0000
C6061F00
C6063F80
06067380
06066180
0E06C180
0C06C180
0C0EC180
0C0CC180
0C0CC180
181D8300
18398300
18318300
30E18600
FFC1FC00
FF03F800
00030000
00030000
00030000
00030000
00070000
00060000
ENDCHAR
STARTCHAR char8413
ENCODING 8413
SWIDTH 4 0
DWIDTH 32 0
BBX 23 23 4 0
BITMAP
007E00
03FFC0
0701E0
0E0070
180018
30001C
30000C
600006
600006
600006
400006
C00002
400006
600006
600006
600006
30000C
30001C
180018
0E0070
0701E0
03FFC0
00FE00
ENDCHAR
STARTCHAR char8453
ENCODING 8453
SWIDTH 21 0
DWIDTH 28 0
BBX 24 24 2 0
BITMAP
1E0000
7F8060
7380C0
E1C0C0
C00180
C00180
C00300
C00300
C0C600
C1CE00
E38C00
7F9C78
3F19FE
0033CF
003387
006303
006303
00C303
00C303
018303
038387
0303CF
0701FE
0600F8
ENDCHAR
STARTCHAR char8463
ENCODING 8463
SWIDTH 22 0
DWIDTH 18 0
BBX 16 23 1 0
BITMAP
07C0
03C0
0384
0398
03F0
03C0
0700
1F0E
363F
4E7F
0EC7
0E86
0D0E
1E0E
1E0C
1C1C
381C
381C
3838
7039
703A
703C
E038
ENDCHAR
STARTCHAR char8465
ENCODING 8465
SWIDTH 7 0
DWIDTH 23 0
BBX 19 24 2 -2
BITMAP
07C000
1FF000
30F800
607840
403C40
C01CC0
C01F80
C00F00
400000
600000
300F80
1C1CC0
061C60
001C20
001C00
001C00
E01E00
780E00
3C0F00
1E0700
0E0E00
0F0E00
07F800
01E000
ENDCHAR
STARTCHAR char8466
ENCODING 8466
SWIDTH 18 0
DWIDTH 27 0
BBX 24 25 1 0
BITMAP
00603C
038062
0600C1
0C0181
080181
080381
080383
080302
080304
040708
020730
0187E0
007F00
000700
000700
000700
000600
000600
000E00
000C00
3C1C02
439802
807004
40FC18
3F83F0
ENDCHAR
STARTCHAR char8467
ENCODING 8467
SWIDTH 28 0
DWIDTH 10 0
BBX 11 23 -1 0
BITMAP
00E0
01A0
0320
0220
0620
0620
0E40
0C40
0C80
1D80
1D00
1E00
1C00
1800
3800
7800
B800
3000
3000
3100
3200
3E00
1C00
ENDCHAR
STARTCHAR char8470
ENCODING 8470
SWIDTH 10 0
DWIDTH 34 0
BBX 31 23 2 0
BITMAP
E00603C0
E0060FF0
F0061FF8
F0063C1C
F806381C
D806300E
DC06700E
CC067006
CE067006
C7067006
C706700E
C386700E
C386381C
C1C63C1C
C0C61FF8
C0E60FF0
C06603E0
C0760000
C03E0000
C03E0000
C01E7FFE
C01E7FFE
C00E7FFE
ENDCHAR
STARTCHAR char8472
ENCODING 8472
SWIDTH 2 0
DWIDTH 21 0
BBX 17 18 2 -5
BITMAP
020000
040E00
083300
10C380
310180
320380
340380
780300
308300
39C600
390400
590800
5CF000
8C0000
8C0000
8C0000
880000
700000
ENDCHAR
STARTCHAR char8476
ENCODING 8476
SWIDTH 13 0
DWIDTH 25 0
BBX 20 19 2 0
BITMAP
1F0F80
3FFFC0
63E1E0
41E0E0
C0E0E0
C0E0E0
C0E1C0
70E380
78FE00
3CE700
0CE780
04E380
08E380
00E380
00C3C0
19C1C0
3F81F0
7F81E0
0E00C0
ENDCHAR
STARTCHAR char8478
ENCODING 8478
SWIDTH 10 0
DWIDTH 24 0
BBX 16 21 5 0
BITMAP
FFF8
FFFC
E01E
E00E
E00E
E006
E006
E00E
E00E
E07C
FFFC
FFF0
E1C7
E0E7
E07E
E07C
E038
E03C
E07C
E0EE
E0E7
ENDCHAR
STARTCHAR char8480
ENCODING 8480
SWIDTH 24 0
DWIDTH 19 0
BBX 17 10 1 12
BITMAP
78E380
ECE280
C6F280
C0F280
78D280
0ED480
82D480
82DC80
EECC80
7CCC80
ENDCHAR
STARTCHAR char8482
ENCODING 8482
SWIDTH 4 0
DWIDTH 32 0
BBX 28 14 2 9
BITMAP
FFF38070
FFF38070
0603C0F0
0603C0F0
0603C1B0
060361B0
060361B0
06036330
06033330
06033330
06033E30
06031E30
06031C30
06030C30
ENDCHAR
STARTCHAR char8486
ENCODING 8486
SWIDTH 13 0
DWIDTH 25 0
BBX 23 23 1 0
BITMAP
00FE00
03FF80
0FFFC0
1F01F0
3C00F0
780078
70003C
70001C
E0001C
E0001C
E0001C
E0001C
E0001C
E0001C
70001C
700038
380038
180070
0C00E0
0701C0
FF87FE
FFC7FE
FFC7FE
ENDCHAR
STARTCHAR char8488
ENCODING 8488
SWIDTH 24 0
DWIDTH 19 0
BBX 19 28 0 -6
BITMAP
007C00
01FF00
060780
000380
0001C0
0001C0
0001C0
0001C0
018180
038380
018300
018600
00FC00
00FC00
03FF00
060780
0C03C0
0801C0
0000C0
0000E0
0000E0
7800E0
CE00C0
8780C0
8701C0
478380
01C700
007E00
ENDCHAR
STARTCHAR char8493
ENCODING 8493
SWIDTH 2 0
DWIDTH 21 0
BBX 19 25 2 -3
BITMAP
078780
1C7FE0
3833C0
306100
604000
60C000
60C000
E0E000
E07000
E07800
E03C00
E01C00
E21E00
E20E00
E20600
E20600
F30E00
719C20
78F820
3C0040
3E00C0
1F8380
0FFF00
03FE00
00F000
ENDCHAR
STARTCHAR char8494
ENCODING 8494
SWIDTH 24 0
DWIDTH 19 0
BBX 15 17 2 0
BITMAP
07C0
1FF0
3838
701C
E00C
E00E
E00E
FFFE
FFFE
E000
E000
E000
E00C
700C
3838
1FF0
0FC0
ENDCHAR
STARTCHAR char8495
ENCODING 8495
SWIDTH 16 0
DWIDTH 16 0
BBX 12 16 2 0
BITMAP
01E0
0730
0E30
1C30
3870
3860
71C0
7780
FC00
E000
E000
E000
E020
F0C0
7F80
3E00
ENDCHAR
STARTCHAR char8501
ENCODING 8501
SWIDTH 16 0
DWIDTH 16 0
BBX 14 19 1 1
BITMAP
8180
C1FC
E1FC
71FC
30FC
3830
1C20
3E20
2740
6340
63C0
F1C0
F0E0
7870
7C30
3C38
3E1C
FC0C
FC04
ENDCHAR
STARTCHAR char8502
ENCODING 8502
SWIDTH 10 0
DWIDTH 14 0
BBX 13 16 1 1
BITMAP
FF80
FFE0
FFF0
7FF0
0038
0018
0018
0018
0018
0018
0010
0010
7FF8
7FF8
7FF8
FFF0
ENDCHAR
STARTCHAR char8503
ENCODING 8503
SWIDTH 2 0
DWIDTH 11 0
BBX 8 17 2 0
BITMAP
40
7C
7E
3E
3E
02
02
02
02
02
02
02
03
7F
7F
F9
F8
ENDCHAR
STARTCHAR char8539
ENCODING 8539
SWIDTH 18 0
DWIDTH 27 0
BBX 24 23 2 0
BITMAP
180040
1800C0
780180
F80180
180300
180600
180600
180C00
180800
181878
1831FC
182186
186186
00C186
00C0DC
0180FC
030186
030106
060303
040302
0C0186
1801FE
180078
ENDCHAR
STARTCHAR char8540
ENCODING 8540
SWIDTH 18 0
DWIDTH 27 0
BBX 25 23 1 0
BITMAP
1E003000
7F803000
61806000
C1804000
C180C000
03818000
0F018000
03830000
00C60000
C0C63C00
C0CC7E00
E1C8C300
7F98C300
3F30C300
00307E00
00607E00
00C0C300
00C08100
01818180
01018100
0300C300
0600FF00
06003C00
ENDCHAR
STARTCHAR char8541
ENCODING 8541
SWIDTH 18 0
DWIDTH 27 0
BBX 25 23 1 0
BITMAP
3F801800
7F803000
60006000
60006000
6000C000
7F008000
63818000
01830000
00820000
00860000
C18C7E00
618CC300
3F18C300
0030C300
0030C700
00603C00
00C0EE00
00C0C300
01818180
01018180
0300C300
0600FF00
06003C00
ENDCHAR
STARTCHAR char8542
ENCODING 8542
SWIDTH 18 0
DWIDTH 27 0
BBX 23 23 2 0
BITMAP
FF80C0
FF8180
030300
020300
060600
040400
0C0C00
181800
181800
103020
3060FC
30618C
20C106
018106
01818C
0300F8
0201DC
060306
0C0306
080306
180306
3001FC
3000F8
ENDCHAR
STARTCHAR char8592
ENCODING 8592
SWIDTH 4 0
DWIDTH 32 0
BBX 26 10 3 5
BITMAP
06000000
0E000000
1C000000
38000000
FFFFFFC0
FFFFFFC0
38000000
1C000000
0C000000
06000000
ENDCHAR
STARTCHAR char8593
ENCODING 8593
SWIDTH 16 0
DWIDTH 16 0
BBX 11 26 2 -3
BITMAP
0400
0E00
0E00
1F00
3F80
77C0
E660
0600
0600
0600
0600
0600
0600
0600
0600
0600
0600
0600
0600
0600
0600
0600
0600
0600
0600
0600
ENDCHAR
STARTCHAR char8594
ENCODING 8594
SWIDTH 4 0
DWIDTH 32 0
BBX 26 10 3 5
BITMAP
00001800
00001800
00000E00
00000F00
FFFFFFC0
FFFFFFC0
00000F00
00000E00
00001C00
00001800
ENDCHAR
STARTCHAR char8595
ENCODING 8595
SWIDTH 16 0
DWIDTH 16 0
BBX 11 26 2 -3
BITMAP
0600
0600
0600
0600
0600
0600
0600
0600
0600
0600
0600
0600
0600
0600
0600
0600
0600
0600
0600
C660
77C0
3F80
1F80
0F00
0E00
0600
ENDCHAR
STARTCHAR char8596
ENCODING 8596
SWIDTH 4 0
DWIDTH 32 0
BBX 24 10 4 5
BITMAP
020040
060060
1C0038
3C003C
FFFFFF
FFFFFF
38003C
1C0038
060060
060040
ENDCHAR
STARTCHAR char8597
ENCODING 8597
SWIDTH 16 0
DWIDTH 16 0
BBX 10 24 3 -1
BITMAP
0C00
0C00
1E00
3E00
3F00
7F80
CCC0
0C00
0C00
0C00
0C00
0C00
0C00
0C00
0C00
0C00
0C00
CCC0
EFC0
7F00
3F00
1E00
0C00
0C00
ENDCHAR
STARTCHAR char8598
ENCODING 8598
SWIDTH 7 0
DWIDTH 23 0
BBX 23 23 0 -2
BITMAP
600000
F80000
FF0000
FBC000
7CE000
6E0000
370000
338000
11C000
18E000
087000
003800
001C00
000E00
000700
000380
0001C0
0000E0
000070
000038
00001C
00000E
000004
ENDCHAR
STARTCHAR char8599
ENCODING 8599
SWIDTH 7 0
DWIDTH 23 0
BBX 23 22 0 -2
BITMAP
00000C
00007E
0001FE
0007BC
000C7C
0000F8
0001D8
000310
000630
000C20
001820
003000
006000
00C000
018000
030000
060000
0C0000
180000
300000
600000
C00000
ENDCHAR
STARTCHAR char8600
ENCODING 8600
SWIDTH 7 0
DWIDTH 23 0
BBX 23 22 0 -2
BITMAP
C00000
E00000
700000
380000
1C0000
0E0000
070000
038000
01C000
00E000
007000
003800
001C60
000E30
000730
000398
0001D8
0008E8
000E7C
0003FC
0000FE
00003C
ENDCHAR
STARTCHAR char8601
ENCODING 8601
SWIDTH 7 0
DWIDTH 23 0
BBX 22 23 0 -2
BITMAP
000004
00000C
000018
000030
000060
0000C0
000180
000300
000600
000C00
001800
003000
186000
18C000
318000
330000
260000
6C0000
79E000
F78000
FE0000
F00000
400000
ENDCHAR
STARTCHAR char8616
ENCODING 8616
SWIDTH 16 0
DWIDTH 16 0
BBX 10 28 3 -3
BITMAP
0C00
0C00
1E00
3F00
7F80
EDC0
8CC0
0C00
0C00
0C00
0C00
0C00
0C00
0C00
0C00
0C00
0C00
CCC0
7F80
3F00
1E00
1E00
0C00
0800
0000
0000
0000
7F80
ENDCHAR
STARTCHAR char8629
ENCODING 8629
SWIDTH 4 0
DWIDTH 32 0
BBX 23 12 5 5
BITMAP
000006
000006
00C006
07C006
1E0006
780006
FFFFFE
FFFFFE
700000
1E0000
07C000
01C000
ENDCHAR
STARTCHAR char8644
ENCODING 8644
SWIDTH 4 0
DWIDTH 32 0
BBX 24 19 4 2
BITMAP
000040
000060
000030
000038
00001E
FFFFFF
FFFFFF
00001C
020038
060070
0C0040
1C0000
780000
FFFFFF
FFFFFF
380000
1C0000
0C0000
060000
ENDCHAR
STARTCHAR char8646
ENCODING 8646
SWIDTH 4 0
DWIDTH 32 0
BBX 24 19 4 2
BITMAP
020000
060000
0C0000
1C0000
780000
FFFFFF
FFFFFF
380000
1C0040
0C0060
060030
000038
00001E
FFFFFF
FFFFFE
00001C
000038
000070
000060
ENDCHAR
STARTCHAR char8656
ENCODING 8656
SWIDTH 7 0
DWIDTH 23 0
BBX 23 14 0 3
BITMAP
018000
030000
060000
0FFFFE
180000
300000
E00000
600000
380000
0FFFFE
060000
030000
018000
008000
ENDCHAR
STARTCHAR char8657
ENCODING 8657
SWIDTH 7 0
DWIDTH 23 0
BBX 14 21 5 0
BITMAP
0200
0700
0700
0D80
18C0
3060
7070
D058
904C
1040
1040
1040
1040
1040
1040
1040
1040
1040
1040
1040
1040
ENDCHAR
STARTCHAR char8658
ENCODING 8658
SWIDTH 7 0
DWIDTH 23 0
BBX 23 14 0 3
BITMAP
000300
000180
0000C0
FFFFE0
000030
000018
00000E
00000C
000038
FFFFF0
0000C0
000180
000300
000200
ENDCHAR
STARTCHAR char8659
ENCODING 8659
SWIDTH 7 0
DWIDTH 23 0
BBX 13 21 5 0
BITMAP
1040
1040
1040
1040
1040
1040
1040
1040
1040
1040
1040
1040
1040
D058
7070
3060
18C0
08C0
0D80
0700
0200
ENDCHAR
STARTCHAR char8660
ENCODING 8660
SWIDTH 7 0
DWIDTH 23 0
BBX 23 13 0 3
BITMAP
010100
030180
0600C0
0FFFE0
180030
70001C
E00006
60000C
300018
1FFFF0
0E00E0
030180
010100
ENDCHAR
STARTCHAR char8661
ENCODING 8661
SWIDTH 7 0
DWIDTH 23 0
BBX 15 24 4 -2
BITMAP
0100
0380
07C0
0FE0
1C70
3C78
EC6C
8C62
0C60
0C60
0C60
0C60
0C60
0C60
0C60
0C60
8C62
EC6E
3C78
1C70
0EE0
07C0
0380
0100
ENDCHAR
STARTCHAR char8704
ENCODING 8704
SWIDTH 24 0
DWIDTH 19 0
BBX 17 18 1 0
BITMAP
E00380
F00700
700700
700700
380E00
3FFE00
3FFC00
1FFC00
1C1C00
0E3800
0E3800
077000
077000
077000
03E000
03E000
01C000
01C000
ENDCHAR
STARTCHAR char8706
ENCODING 8706
SWIDTH 13 0
DWIDTH 15 0
BBX 14 24 1 1
BITMAP
7F80
30C0
0060
0030
0030
0018
0018
0018
0018
001C
001C
1F9C
385C
7038
F038
E038
E038
E038
C030
E070
E060
60E0
31C0
1F00
ENDCHAR
STARTCHAR char8707
ENCODING 8707
SWIDTH 10 0
DWIDTH 14 0
BBX 10 19 2 0
BITMAP
FFC0
FFC0
FFC0
01C0
01C0
01C0
01C0
01C0
FFC0
FFC0
FFC0
01C0
01C0
01C0
01C0
01C0
FFC0
FFC0
FFC0
ENDCHAR
STARTCHAR char8709
ENCODING 8709
SWIDTH 4 0
DWIDTH 32 0
BBX 25 23 3 0
BITMAP
003F0080
00FFC180
03C0F380
07003F00
0E001E00
0C003E00
1C007600
1800E700
1801C300
30038300
30070300
301E0300
30380300
30700300
38E00300
19C00700
1F800600
0E000E00
1E001C00
3F003800
73C0F000
E0FFE000
403F8000
ENDCHAR
STARTCHAR char8710
ENCODING 8710
SWIDTH 27 0
DWIDTH 20 0
BBX 19 20 0 0
BITMAP
00E000
00F000
01F000
01F800
03B800
039C00
031C00
070C00
070E00
0E0E00
0E0700
0C0700
1C0300
1C0380
380380
3801C0
3001C0
7000C0
7FFFE0
FFFFE0
ENDCHAR
STARTCHAR char8711
ENCODING 8711
SWIDTH 10 0
DWIDTH 24 0
BBX 19 20 2 0
BITMAP
FFFFE0
7FFFE0
7000E0
3001C0
3801C0
380380
1C0380
1C0300
0E0700
0E0700
060E00
070E00
070C00
039C00
039C00
01B800
01F800
01F000
00F000
00E000
ENDCHAR
STARTCHAR char8712
ENCODING 8712
SWIDTH 4 0
DWIDTH 32 0
BBX 18 16 7 0
BITMAP
07FFC0
1FFFC0
380000
700000
600000
600000
600000
FFFFC0
FFFFC0
600000
600000
600000
700000
380000
1FFFC0
07FFC0
ENDCHAR
STARTCHAR char8713
ENCODING 8713
SWIDTH 4 0
DWIDTH 32 0
BBX 18 20 7 -1
BITMAP
000300
000600
07FFC0
1FFFC0
380C00
701800
601000
603000
602000
FFFFC0
FFFFC0
60C000
618000
618000
730000
3A0000
1FFFC0
0FFFC0
0C0000
080000
ENDCHAR
STARTCHAR char8715
ENCODING 8715
SWIDTH 4 0
DWIDTH 32 0
BBX 18 16 7 0
BITMAP
FFF800
FFFE00
000700
000380
000180
000180
000180
FFFFC0
FFFFC0
000180
000180
000180
000380
000700
FFFE00
FFF800
ENDCHAR
STARTCHAR char8717
ENCODING 8717
SWIDTH 19 0
DWIDTH 17 0
BBX 13 15 3 0
BITMAP
FF00
FFC0
0070
0030
0018
0018
0018
FFF8
FFF8
0018
0018
0038
0070
FFE0
FF80
ENDCHAR
STARTCHAR char8719
ENCODING 8719
SWIDTH 4 0
DWIDTH 32 0
BBX 24 31 4 -8
BITMAP
FFFFFF
FFFFFF
FFFFFF
1C0038
1C0038
1C0038
1C0038
1C0038
1C0038
1C0038
1C0038
1C0038
1C0038
1C0038
1C0038
1C0038
1C0038
1C0038
1C0038
1C0038
1C0038
1C0038
1C0038
1C0038
1C0038
1C0038
1C0038
1C0038
7F80FE
7F80FE
7F80FE
ENDCHAR
STARTCHAR char8721
ENCODING 8721
SWIDTH 4 0
DWIDTH 32 0
BBX 16 28 7 -4
BITMAP
FFFF
FFFF
E003
7003
7003
3803
1C03
1C00
0E00
0E00
0700
0300
0380
01C0
0380
0380
0700
0700
0E00
0E00
1C00
1803
3803
7003
7003
E003
FFFF
FFFF
ENDCHAR
STARTCHAR char8722
ENCODING 8722
SWIDTH 24 0
DWIDTH 19 0
BBX 16 2 1 6
BITMAP
FFFF
FFFF
ENDCHAR
STARTCHAR char8723
ENCODING 8723
SWIDTH 4 0
DWIDTH 32 0
BBX 16 20 8 0
BITMAP
FFFF
FFFF
0000
0000
0000
0180
0180
0180
0180
0180
0180
FFFF
FFFF
0180
0180
0180
0180
0180
0180
0180
ENDCHAR
STARTCHAR char8725
ENCODING 8725
SWIDTH 25 0
DWIDTH 9 0
BBX 16 23 -4 0
BITMAP
0003
0002
0006
000C
000C
0018
0030
0030
0060
0040
00C0
0180
0180
0300
0600
0600
0C00
0800
1800
3000
3000
6000
C000
ENDCHAR
STARTCHAR char8727
ENCODING 8727
SWIDTH 4 0
DWIDTH 32 0
BBX 10 9 11 3
BITMAP
0C00
4C80
6D80
3F00
1E00
FFC0
6D80
0C00
0C00
ENDCHAR
STARTCHAR char8729
ENCODING 8729
SWIDTH 25 0
DWIDTH 9 0
BBX 3 3 4 7
BITMAP
E0
E0
E0
ENDCHAR
STARTCHAR char8730
ENCODING 8730
SWIDTH 13 0
DWIDTH 15 0
BBX 16 29 -1 -1
BITMAP
0001
0001
0003
0002
0002
0002
0002
0002
0006
0004
0004
0004
0804
3804
EC0C
8C08
0E08
0608
0708
0308
0398
0198
01D0
00D0
00D0
0070
0070
0030
0020
ENDCHAR
STARTCHAR char8733
ENCODING 8733
SWIDTH 4 0
DWIDTH 32 0
BBX 16 9 6 3
BITMAP
3E07
7F0F
639C
C1F0
C0F0
C1F8
639C
7F0F
1E07
ENDCHAR
STARTCHAR char8734
ENCODING 8734
SWIDTH 7 0
DWIDTH 23 0
BBX 21 9 1 4
BITMAP
3C03E0
7F07F0
C19C38
C0F818
807018
C0F818
C19C18
7F07F0
3E03E0
ENDCHAR
STARTCHAR char8735
ENCODING 8735
SWIDTH 1 0
DWIDTH 31 0
BBX 28 28 2 0
BITMAP
C0000000
C0000000
C0000000
C0000000
C0000000
C0000000
C0000000
C0000000
C0000000
C0000000
C0000000
C0000000
C0000000
C0000000
C0000000
C0000000
C0000000
C0000000
C0000000
C0000000
C0000000
C0000000
C0000000
C0000000
C0000000
C0000000
FFFFFFF0
FFFFFFF0
ENDCHAR
STARTCHAR char8736
ENCODING 8736
SWIDTH 4 0
DWIDTH 32 0
BBX 18 13 7 0
BITMAP
000400
000C00
001800
003000
006000
00C000
038000
070000
0C0000
180000
300000
600000
FFFFC0
ENDCHAR
STARTCHAR char8739
ENCODING 8739
SWIDTH 7 0
DWIDTH 23 0
BBX 3 32 10 -8
BITMAP
E0
E0
E0
E0
E0
E0
E0
E0
E0
E0
E0
E0
E0
E0
E0
E0
E0
E0
E0
E0
E0
E0
E0
E0
E0
E0
E0
E0
E0
E0
E0
E0
ENDCHAR
STARTCHAR char8741
ENCODING 8741
SWIDTH 7 0
DWIDTH 23 0
BBX 7 36 8 -8
BITMAP
C6
C6
C6
C6
C6
C6
C6
C6
C6
C6
C6
C6
C6
C6
C6
C6
C6
C6
C6
C6
C6
C6
C6
C6
C6
C6
C6
C6
C6
C6
C6
C6
C6
C6
C6
C6
ENDCHAR
STARTCHAR char8743
ENCODING 8743
SWIDTH 4 0
DWIDTH 32 0
BBX 16 16 8 0
BITMAP
0180
03C0
03C0
07E0
0660
0E70
0C30
1C38
1C38
1818
381C
300C
700E
6006
E007
E007
ENDCHAR
STARTCHAR char8744
ENCODING 8744
SWIDTH 4 0
DWIDTH 32 0
BBX 16 16 8 0
BITMAP
E007
6006
700E
700E
300C
381C
1818
1C38
0C30
0E70
0660
0660
07E0
03C0
03C0
0180
ENDCHAR
STARTCHAR char8745
ENCODING 8745
SWIDTH 7 0
DWIDTH 23 0
BBX 15 20 4 0
BITMAP
07C0
1FF0
3838
701C
E00E
C00E
C006
C006
C006
C006
C006
C006
C006
C006
C006
C006
C006
C006
C006
C006
ENDCHAR
STARTCHAR char8746
ENCODING 8746
SWIDTH 7 0
DWIDTH 23 0
BBX 15 20 4 0
BITMAP
C006
C006
C006
C006
C006
C006
C006
C006
C006
C006
C006
C006
C006
C006
C006
E00E
701C
3838
1FF0
07E0
ENDCHAR
STARTCHAR char8747
ENCODING 8747
SWIDTH 25 0
DWIDTH 9 0
BBX 9 32 0 -3
BITMAP
0780
0780
0980
0800
0800
0C00
0C00
0C00
0C00
0C00
0C00
0C00
0C00
0C00
0C00
0C00
0C00
0C00
0C00
0C00
0C00
0C00
0C00
0C00
0C00
0C00
0C00
0C00
0C00
6800
F800
7000
ENDCHAR
STARTCHAR char8750
ENCODING 8750
SWIDTH 4 0
DWIDTH 32 0
BBX 14 39 9 -8
BITMAP
00F0
0178
0278
0270
0600
0600
0600
0600
0600
0600
0600
0700
0700
0F80
1FE0
6730
4718
C708
8788
878C
8788
C788
4798
67B0
3BE0
0F80
0380
0380
0380
0380
0380
0380
0300
0100
0100
7100
7200
7200
3C00
ENDCHAR
STARTCHAR char8756
ENCODING 8756
SWIDTH 4 0
DWIDTH 32 0
BBX 20 20 6 0
BITMAP
006000
00F000
00F000
00E000
000000
000000
000000
000000
000000
000000
000000
000000
000000
000000
000000
000000
7000E0
F000F0
F000F0
6000E0
ENDCHAR
STARTCHAR char8757
ENCODING 8757
SWIDTH 4 0
DWIDTH 32 0
BBX 20 20 6 0
BITMAP
6000E0
F000F0
F000F0
F000E0
000000
000000
000000
000000
000000
000000
000000
000000
000000
000000
000000
000000
00E000
00F000
00F000
006000
ENDCHAR
STARTCHAR char8759
ENCODING 8759
SWIDTH 4 0
DWIDTH 32 0
BBX 20 20 6 0
BITMAP
6000E0
F000F0
F000F0
7000E0
000000
000000
000000
000000
000000
000000
000000
000000
000000
000000
000000
000000
7000E0
F000F0
F000F0
6000E0
ENDCHAR
STARTCHAR char8773
ENCODING 8773
SWIDTH 4 0
DWIDTH 32 0
BBX 16 11 8 3
BITMAP
0C02
3F86
61FC
4038
0000
FFFF
FFFF
0000
0000
FFFF
FFFF
ENDCHAR
STARTCHAR char8776
ENCODING 8776
SWIDTH 22 0
DWIDTH 18 0
BBX 15 9 1 2
BITMAP
3E02
7F86
E3FC
C07C
0000
1C02
3F86
77FC
C0FC
ENDCHAR
STARTCHAR char8800
ENCODING 8800
SWIDTH 22 0
DWIDTH 18 0
BBX 16 15 1 -1
BITMAP
0030
0030
0060
00E0
FFFF
FFFF
0180
0300
0300
FFFF
FFFF
0C00
1800
1800
3000
ENDCHAR
STARTCHAR char8801
ENCODING 8801
SWIDTH 24 0
DWIDTH 19 0
BBX 15 13 2 1
BITMAP
FFFE
FFFE
0000
0000
0000
0000
FFFE
FFFE
0000
0000
0000
FFFE
FFFE
ENDCHAR
STARTCHAR char8802
ENCODING 8802
SWIDTH 4 0
DWIDTH 32 0
BBX 16 18 8 0
BITMAP
0010
0018
0030
FFFF
FFFF
0060
00C0
01C0
FFFF
FFFF
0300
0600
0C00
FFFF
FFFF
1800
3000
1000
ENDCHAR
STARTCHAR char8804
ENCODING 8804
SWIDTH 22 0
DWIDTH 18 0
BBX 16 21 1 0
BITMAP
0001
000F
003F
00FC
07E0
1F80
7C00
F000
F000
7E00
1F80
03F0
00FC
003F
0007
0001
0000
0000
0000
FFFF
FFFF
ENDCHAR
STARTCHAR char8805
ENCODING 8805
SWIDTH 22 0
DWIDTH 18 0
BBX 16 21 1 0
BITMAP
8000
E000
F800
3F00
0FC0
01F0
007E
001F
001F
007C
03F0
0FC0
7E00
F800
E000
0000
0000
0000
0000
FFFF
FFFF
ENDCHAR
STARTCHAR char8810
ENCODING 8810
SWIDTH 4 0
DWIDTH 32 0
BBX 21 19 5 0
BITMAP
000018
0000F8
0003F0
000F80
003E08
01F878
07E1F8
1F07C0
7C1F00
F07C00
7E1F80
0F87E0
03E0F8
00FC38
003F08
0007C0
0001F0
000078
000018
ENDCHAR
STARTCHAR char8811
ENCODING 8811
SWIDTH 4 0
DWIDTH 32 0
BBX 21 20 5 -1
BITMAP
800000
E00000
F80000
3E0000
0FC000
C1F000
F07C00
7E1F00
1F87E0
03E0F8
01F878
07E1F0
1F07C0
FC3F00
F0FC00
83E000
0F8000
7E0000
F80000
C00000
ENDCHAR
STARTCHAR char8834
ENCODING 8834
SWIDTH 4 0
DWIDTH 32 0
BBX 18 16 7 0
BITMAP
07FFC0
1FFFC0
380000
700000
600000
600000
600000
E00000
E00000
600000
600000
600000
700000
380000
1FFFC0
07FFC0
ENDCHAR
STARTCHAR char8835
ENCODING 8835
SWIDTH 4 0
DWIDTH 32 0
BBX 18 16 7 0
BITMAP
FFF800
FFFE00
000700
000380
000180
000180
000180
0001C0
0001C0
000180
000180
000180
000380
000700
FFFE00
FFF800
ENDCHAR
STARTCHAR char8836
ENCODING 8836
SWIDTH 4 0
DWIDTH 32 0
BBX 18 20 7 -2
BITMAP
000180
000300
07FFC0
1FFFC0
380400
700C00
601800
601800
603000
E02000
E06000
604000
60C000
618000
718000
3B0000
1FFFC0
07FFC0
0C0000
040000
ENDCHAR
STARTCHAR char8837
ENCODING 8837
SWIDTH 4 0
DWIDTH 32 0
BBX 18 20 7 -2
BITMAP
600000
300000
FFF800
FFFE00
080700
0C0380
060180
060180
030180
0301C0
0181C0
008180
00C180
006180
006380
003700
FFFE00
FFF800
000C00
000800
ENDCHAR
STARTCHAR char8838
ENCODING 8838
SWIDTH 4 0
DWIDTH 32 0
BBX 18 19 7 0
BITMAP
07FFC0
1FFFC0
380000
700000
600000
600000
600000
E00000
E00000
600000
600000
600000
700000
380000
1FFFC0
07FFC0
000000
FFFFC0
FFFFC0
ENDCHAR
STARTCHAR char8839
ENCODING 8839
SWIDTH 4 0
DWIDTH 32 0
BBX 18 19 7 0
BITMAP
FFF800
FFFE00
000700
000380
000180
000180
000180
0001C0
0001C0
000180
000180
000180
000380
000700
FFFE00
FFF800
000000
FFFFC0
FFFFC0
ENDCHAR
STARTCHAR char8853
ENCODING 8853
SWIDTH 4 0
DWIDTH 32 0
BBX 23 23 4 0
BITMAP
00FF00
03FFC0
0F18F0
1C1838
181818
30180C
60180E
601806
601806
401806
FFFFFE
FFFFFE
401802
601806
601806
601806
30180C
38181C
181818
0E1870
0719E0
03FFC0
007E00
ENDCHAR
STARTCHAR char8854
ENCODING 8854
SWIDTH 4 0
DWIDTH 32 0
BBX 23 23 4 -1
BITMAP
007E00
03FFC0
0781E0
0E0070
180018
30000C
70000C
600006
600006
400006
FFFFFE
FFFFFE
C00006
600006
600006
600006
30000C
38001C
1C0038
0E0070
0781E0
03FF80
007E00
ENDCHAR
STARTCHAR char8855
ENCODING 8855
SWIDTH 4 0
DWIDTH 32 0
BBX 23 23 4 0
BITMAP
007E00
03FFC0
0781E0
0E0070
1C0038
3E007C
3300CC
618186
60C306
606606
403C02
C01802
403C02
606606
60C306
618186
3300CC
36007C
1C0038
0E0070
0781E0
03FFC0
007E00
ENDCHAR
STARTCHAR char8856
ENCODING 8856
SWIDTH 4 0
DWIDTH 32 0
BBX 23 23 4 0
BITMAP
007E00
03FFC0
0781E0
0E0070
180038
30007C
3000CC
600186
600306
600606
C00C06
C01802
C03006
406006
61C006
638006
37000C
3E001C
1C0038
0E0070
0781E0
03FFC0
00FE00
ENDCHAR
STARTCHAR char8857
ENCODING 8857
SWIDTH 4 0
DWIDTH 32 0
BBX 23 23 4 -1
BITMAP
007E00
03FFC0
0781E0
0E0070
180018
30000C
70000C
600006
600006
401806
C03C02
C03C02
C01806
600006
600006
600006
30000C
38001C
1C0038
0E0070
0781E0
03FF80
007E00
ENDCHAR
STARTCHAR char8866
ENCODING 8866
SWIDTH 4 0
DWIDTH 32 0
BBX 20 18 6 0
BITMAP
C00000
C00000
C00000
C00000
C00000
C00000
C00000
C00000
FFFFF0
FFFFF0
C00000
C00000
C00000
C00000
C00000
C00000
C00000
C00000
ENDCHAR
STARTCHAR char8867
ENCODING 8867
SWIDTH 4 0
DWIDTH 32 0
BBX 20 18 6 0
BITMAP
000030
000030
000030
000030
000030
000030
000030
000030
FFFFF0
FFFFF0
000030
000030
000030
000030
000030
000030
000030
000030
ENDCHAR
STARTCHAR char8868
ENCODING 8868
SWIDTH 4 0
DWIDTH 32 0
BBX 18 20 7 0
BITMAP
FFFFC0
FFFFC0
00C000
00C000
00C000
00C000
00C000
00C000
00C000
00C000
00C000
00C000
00C000
00C000
00C000
00C000
00C000
00C000
00C000
00C000
ENDCHAR
STARTCHAR char8869
ENCODING 8869
SWIDTH 4 0
DWIDTH 32 0
BBX 20 19 6 0
BITMAP
006000
006000
006000
006000
006000
006000
006000
006000
006000
006000
006000
006000
006000
006000
006000
006000
006000
FFFFF0
FFFFF0
ENDCHAR
STARTCHAR char8891
ENCODING 8891
SWIDTH 4 0
DWIDTH 32 0
BBX 18 24 7 -5
BITMAP
C001C0
E00180
600180
700380
300300
300700
380600
180600
1C0C00
0C0C00
0C1C00
061800
063800
073000
033000
03E000
01E000
01E000
00C000
000000
000000
000000
FFFFC0
FFFFC0
ENDCHAR
STARTCHAR char8962
ENCODING 8962
SWIDTH 24 0
DWIDTH 19 0
BBX 17 23 1 0
BITMAP
008000
01C000
01E000
036000
063000
0C1800
1C0C00
180600
300700
600300
C00180
C00180
C00180
C00180
C00180
C00180
C00180
C00180
C00180
C00180
C00180
FFFF80
FFFF80
ENDCHAR
STARTCHAR char8976
ENCODING 8976
SWIDTH 24 0
DWIDTH 19 0
BBX 16 9 1 3
BITMAP
FFFF
FFFF
E000
E000
E000
E000
E000
E000
E000
ENDCHAR
STARTCHAR char8992
ENCODING 8992
SWIDTH 24 0
DWIDTH 19 0
BBX 6 36 8 -7
BITMAP
38
3C
7C
40
40
40
40
60
60
E0
E0
E0
E0
E0
E0
E0
E0
E0
E0
E0
E0
E0
E0
E0
E0
E0
E0
E0
E0
E0
E0
E0
E0
E0
E0
E0
ENDCHAR
STARTCHAR char8993
ENCODING 8993
SWIDTH 24 0
DWIDTH 19 0
BBX 6 36 5 -7
BITMAP
1C
1C
1C
1C
1C
1C
1C
1C
1C
1C
1C
1C
1C
1C
1C
1C
1C
1C
1C
1C
1C
1C
1C
1C
1C
0C
0C
0C
0C
0C
0C
08
08
F8
F8
70
ENDCHAR
STARTCHAR char9001
ENCODING 9001
SWIDTH 2 0
DWIDTH 11 0
BBX 7 23 2 -4
BITMAP
06
04
0C
0C
18
18
30
30
70
60
E0
C0
E0
60
70
30
30
18
18
0C
04
04
02
ENDCHAR
STARTCHAR char9002
ENCODING 9002
SWIDTH 2 0
DWIDTH 11 0
BBX 7 23 2 -4
BITMAP
80
C0
40
60
60
30
30
18
18
1C
0C
0E
0C
1C
18
18
30
30
60
60
40
C0
80
ENDCHAR
STARTCHAR char9472
ENCODING 9472
SWIDTH 4 0
DWIDTH 32 0
BBX 32 2 0 7
BITMAP
FFFFFFFF
FFFFFFFF
ENDCHAR
STARTCHAR char9474
ENCODING 9474
SWIDTH 4 0
DWIDTH 32 0
BBX 2 32 15 -8
BITMAP
C0
C0
C0
C0
C0
C0
C0
C0
C0
C0
C0
C0
C0
C0
C0
C0
C0
C0
C0
C0
C0
C0
C0
C0
C0
C0
C0
C0
C0
C0
C0
C0
ENDCHAR
STARTCHAR char9484
ENCODING 9484
SWIDTH 4 0
DWIDTH 32 0
BBX 17 17 15 -8
BITMAP
FFFF80
FFFF80
C00000
C00000
C00000
C00000
C00000
C00000
C00000
C00000
C00000
C00000
C00000
C00000
C00000
C00000
C00000
ENDCHAR
STARTCHAR char9488
ENCODING 9488
SWIDTH 4 0
DWIDTH 32 0
BBX 17 17 0 -8
BITMAP
FFFF80
FFFF80
000180
000180
000180
000180
000180
000180
000180
000180
000180
000180
000180
000180
000180
000180
000180
ENDCHAR
STARTCHAR char9492
ENCODING 9492
SWIDTH 4 0
DWIDTH 32 0
BBX 17 17 15 7
BITMAP
C00000
C00000
C00000
C00000
C00000
C00000
C00000
C00000
C00000
C00000
C00000
C00000
C00000
C00000
C00000
FFFF80
FFFF80
ENDCHAR
STARTCHAR char9496
ENCODING 9496
SWIDTH 4 0
DWIDTH 32 0
BBX 17 17 0 7
BITMAP
000180
000180
000180
000180
000180
000180
000180
000180
000180
000180
000180
000180
000180
000180
000180
FFFF80
FFFF80
ENDCHAR
STARTCHAR char9500
ENCODING 9500
SWIDTH 4 0
DWIDTH 32 0
BBX 17 32 15 -8
BITMAP
C00000
C00000
C00000
C00000
C00000
C00000
C00000
C00000
C00000
C00000
C00000
C00000
C00000
C00000
C00000
FFFF80
FFFF80
C00000
C00000
C00000
C00000
C00000
C00000
C00000
C00000
C00000
C00000
C00000
C00000
C00000
C00000
C00000
ENDCHAR
STARTCHAR char9508
ENCODING 9508
SWIDTH 4 0
DWIDTH 32 0
BBX 17 32 0 -8
BITMAP
000180
000180
000180
000180
000180
000180
000180
000180
000180
000180
000180
000180
000180
000180
000180
FFFF80
FFFF80
000180
000180
000180
000180
000180
000180
000180
000180
000180
000180
000180
000180
000180
000180
000180
ENDCHAR
STARTCHAR char9516
ENCODING 9516
SWIDTH 4 0
DWIDTH 32 0
BBX 32 17 0 -8
BITMAP
FFFFFFFF
FFFFFFFF
00018000
00018000
00018000
00018000
00018000
00018000
00018000
00018000
00018000
00018000
00018000
00018000
00018000
00018000
00018000
ENDCHAR
STARTCHAR char9524
ENCODING 9524
SWIDTH 4 0
DWIDTH 32 0
BBX 32 17 0 7
BITMAP
00018000
00018000
00018000
00018000
00018000
00018000
00018000
00018000
00018000
00018000
00018000
00018000
00018000
00018000
00018000
FFFFFFFF
FFFFFFFF
ENDCHAR
STARTCHAR char9532
ENCODING 9532
SWIDTH 4 0
DWIDTH 32 0
BBX 32 32 0 -8
BITMAP
00018000
00018000
00018000
00018000
00018000
00018000
00018000
00018000
00018000
00018000
00018000
00018000
00018000
00018000
00018000
FFFFFFFF
FFFFFFFF
00018000
00018000
00018000
00018000
00018000
00018000
00018000
00018000
00018000
00018000
00018000
00018000
00018000
00018000
00018000
ENDCHAR
STARTCHAR char9552
ENCODING 9552
SWIDTH 4 0
DWIDTH 32 0
BBX 32 6 0 5
BITMAP
FFFFFFFF
FFFFFFFF
00000000
00000000
FFFFFFFF
FFFFFFFF
ENDCHAR
STARTCHAR char9553
ENCODING 9553
SWIDTH 4 0
DWIDTH 32 0
BBX 6 32 13 -8
BITMAP
CC
CC
CC
CC
CC
CC
CC
CC
CC
CC
CC
CC
CC
CC
CC
CC
CC
CC
CC
CC
CC
CC
CC
CC
CC
CC
CC
CC
CC
CC
CC
CC
ENDCHAR
STARTCHAR char9554
ENCODING 9554
SWIDTH 4 0
DWIDTH 32 0
BBX 17 19 15 -8
BITMAP
FFFF80
FFFF80
C00000
C00000
FFFF80
FFFF80
C00000
C00000
C00000
C00000
C00000
C00000
C00000
C00000
C00000
C00000
C00000
C00000
C00000
ENDCHAR
STARTCHAR char9555
ENCODING 9555
SWIDTH 4 0
DWIDTH 32 0
BBX 19 17 13 -8
BITMAP
FFFFE0
FFFFE0
CC0000
CC0000
CC0000
CC0000
CC0000
CC0000
CC0000
CC0000
CC0000
CC0000
CC0000
CC0000
CC0000
CC0000
CC0000
ENDCHAR
STARTCHAR char9556
ENCODING 9556
SWIDTH 4 0
DWIDTH 32 0
BBX 19 19 13 -8
BITMAP
FFFFE0
FFFFE0
C00000
C00000
CFFFE0
CFFFE0
CC0000
CC0000
CC0000
CC0000
CC0000
CC0000
CC0000
CC0000
CC0000
CC0000
CC0000
CC0000
CC0000
ENDCHAR
STARTCHAR char9557
ENCODING 9557
SWIDTH 4 0
DWIDTH 32 0
BBX 17 19 0 -8
BITMAP
FFFF80
FFFF80
000180
000180
FFFF80
FFFF80
000180
000180
000180
000180
000180
000180
000180
000180
000180
000180
000180
000180
000180
ENDCHAR
STARTCHAR char9558
ENCODING 9558
SWIDTH 4 0
DWIDTH 32 0
BBX 19 17 0 -8
BITMAP
FFFFE0
FFFFE0
000660
000660
000660
000660
000660
000660
000660
000660
000660
000660
000660
000660
000660
000660
000660
ENDCHAR
STARTCHAR char9559
ENCODING 9559
SWIDTH 4 0
DWIDTH 32 0
BBX 19 19 0 -8
BITMAP
FFFFE0
FFFFE0
000060
000060
FFFE60
FFFE60
000660
000660
000660
000660
000660
000660
000660
000660
000660
000660
000660
000660
000660
ENDCHAR
STARTCHAR char9560
ENCODING 9560
SWIDTH 4 0
DWIDTH 32 0
BBX 17 19 15 5
BITMAP
C00000
C00000
C00000
C00000
C00000
C00000
C00000
C00000
C00000
C00000
C00000
C00000
C00000
FFFF80
FFFF80
C00000
C00000
FFFF80
FFFF80
ENDCHAR
STARTCHAR char9561
ENCODING 9561
SWIDTH 4 0
DWIDTH 32 0
BBX 19 17 13 7
BITMAP
CC0000
CC0000
CC0000
CC0000
CC0000
CC0000
CC0000
CC0000
CC0000
CC0000
CC0000
CC0000
CC0000
CC0000
CC0000
FFFFE0
FFFFE0
ENDCHAR
STARTCHAR char9562
ENCODING 9562
SWIDTH 4 0
DWIDTH 32 0
BBX 19 19 13 5
BITMAP
CC0000
CC0000
CC0000
CC0000
CC0000
CC0000
CC0000
CC0000
CC0000
CC0000
CC0000
CC0000
CC0000
CFFFE0
CFFFE0
C00000
C00000
FFFFE0
FFFFE0
ENDCHAR
STARTCHAR char9563
ENCODING 9563
SWIDTH 4 0
DWIDTH 32 0
BBX 17 19 0 5
BITMAP
000180
000180
000180
000180
000180
000180
000180
000180
000180
000180
000180
000180
000180
FFFF80
FFFF80
000180
000180
FFFF80
FFFF80
ENDCHAR
STARTCHAR char9564
ENCODING 9564
SWIDTH 4 0
DWIDTH 32 0
BBX 19 17 0 7
BITMAP
000660
000660
000660
000660
000660
000660
000660
000660
000660
000660
000660
000660
000660
000660
000660
FFFFE0
FFFFE0
ENDCHAR
STARTCHAR char9565
ENCODING 9565
SWIDTH 4 0
DWIDTH 32 0
BBX 19 19 0 5
BITMAP
000660
000660
000660
000660
000660
000660
000660
000660
000660
000660
000660
000660
000660
FFFE60
FFFE60
000060
000060
FFFFE0
FFFFE0
ENDCHAR
STARTCHAR char9566
ENCODING 9566
SWIDTH 4 0
DWIDTH 32 0
BBX 17 32 15 -8
BITMAP
C00000
C00000
C00000
C00000
C00000
C00000
C00000
C00000
C00000
C00000
C00000
C00000
C00000
FFFF80
FFFF80
C00000
C00000
FFFF80
FFFF80
C00000
C00000
C00000
C00000
C00000
C00000
C00000
C00000
C00000
C00000
C00000
C00000
C00000
ENDCHAR
STARTCHAR char9567
ENCODING 9567
SWIDTH 4 0
DWIDTH 32 0
BBX 19 32 13 -8
BITMAP
CC0000
CC0000
CC0000
CC0000
CC0000
CC0000
CC0000
CC0000
CC0000
CC0000
CC0000
CC0000
CC0000
CC0000
CC0000
CFFFE0
CFFFE0
CC0000
CC0000
CC0000
CC0000
CC0000
CC0000
CC0000
CC0000
CC0000
CC0000
CC0000
CC0000
CC0000
CC0000
CC0000
ENDCHAR
STARTCHAR char9568
ENCODING 9568
SWIDTH 4 0
DWIDTH 32 0
BBX 19 32 13 -8
BITMAP
CC0000
CC0000
CC0000
CC0000
CC0000
CC0000
CC0000
CC0000
CC0000
CC0000
CC0000
CC0000
CC0000
CFFFE0
CFFFE0
C00000
C00000
CFFFE0
CFFFE0
CC0000
CC0000
CC0000
CC0000
CC0000
CC0000
CC0000
CC0000
CC0000
CC0000
CC0000
CC0000
CC0000
ENDCHAR
STARTCHAR char9569
ENCODING 9569
SWIDTH 4 0
DWIDTH 32 0
BBX 17 32 0 -8
BITMAP
000180
000180
000180
000180
000180
000180
000180
000180
000180
000180
000180
000180
000180
FFFF80
FFFF80
000180
000180
FFFF80
FFFF80
000180
000180
000180
000180
000180
000180
000180
000180
000180
000180
000180
000180
000180
ENDCHAR
STARTCHAR char9570
ENCODING 9570
SWIDTH 4 0
DWIDTH 32 0
BBX 19 32 0 -8
BITMAP
000660
000660
000660
000660
000660
000660
000660
000660
000660
000660
000660
000660
000660
000660
000660
FFFE60
FFFE60
000660
000660
000660
000660
000660
000660
000660
000660
000660
000660
000660
000660
000660
000660
000660
ENDCHAR
STARTCHAR char9571
ENCODING 9571
SWIDTH 4 0
DWIDTH 32 0
BBX 19 32 0 -8
BITMAP
000660
000660
000660
000660
000660
000660
000660
000660
000660
000660
000660
000660
000660
FFFE60
FFFE60
000060
000060
FFFE60
FFFE60
000660
000660
000660
000660
000660
000660
000660
000660
000660
000660
000660
000660
000660
ENDCHAR
STARTCHAR char9572
ENCODING 9572
SWIDTH 4 0
DWIDTH 32 0
BBX 32 19 0 -8
BITMAP
FFFFFFFF
FFFFFFFF
00000000
00000000
FFFFFFFF
FFFFFFFF
00018000
00018000
00018000
00018000
00018000
00018000
00018000
00018000
00018000
00018000
00018000
00018000
00018000
ENDCHAR
STARTCHAR char9573
ENCODING 9573
SWIDTH 4 0
DWIDTH 32 0
BBX 32 17 0 -8
BITMAP
FFFFFFFF
FFFFFFFF
00066000
00066000
00066000
00066000
00066000
00066000
00066000
00066000
00066000
00066000
00066000
00066000
00066000
00066000
00066000
ENDCHAR
STARTCHAR char9574
ENCODING 9574
SWIDTH 4 0
DWIDTH 32 0
BBX 32 19 0 -8
BITMAP
FFFFFFFF
FFFFFFFF
00000000
00000000
FFFE7FFF
FFFE7FFF
00066000
00066000
00066000
00066000
00066000
00066000
00066000
00066000
00066000
00066000
00066000
00066000
00066000
ENDCHAR
STARTCHAR char9575
ENCODING 9575
SWIDTH 4 0
DWIDTH 32 0
BBX 32 19 0 5
BITMAP
00018000
00018000
00018000
00018000
00018000
00018000
00018000
00018000
00018000
00018000
00018000
00018000
00018000
FFFFFFFF
FFFFFFFF
00000000
00000000
FFFFFFFF
FFFFFFFF
ENDCHAR
STARTCHAR char9576
ENCODING 9576
SWIDTH 4 0
DWIDTH 32 0
BBX 32 17 0 7
BITMAP
00066000
00066000
00066000
00066000
00066000
00066000
00066000
00066000
00066000
00066000
00066000
00066000
00066000
00066000
00066000
FFFFFFFF
FFFFFFFF
ENDCHAR
STARTCHAR char9577
ENCODING 9577
SWIDTH 4 0
DWIDTH 32 0
BBX 32 19 0 5
BITMAP
00066000
00066000
00066000
00066000
00066000
00066000
00066000
00066000
00066000
00066000
00066000
00066000
00066000
FFFE7FFF
FFFE7FFF
00000000
00000000
FFFFFFFF
FFFFFFFF
ENDCHAR
STARTCHAR char9578
ENCODING 9578
SWIDTH 4 0
DWIDTH 32 0
BBX 32 32 0 -8
BITMAP
00018000
00018000
00018000
00018000
00018000
00018000
00018000
00018000
00018000
00018000
00018000
00018000
00018000
FFFFFFFF
FFFFFFFF
00018000
00018000
FFFFFFFF
FFFFFFFF
00018000
00018000
00018000
00018000
00018000
00018000
00018000
00018000
00018000
00018000
00018000
00018000
00018000
ENDCHAR
STARTCHAR char9579
ENCODING 9579
SWIDTH 4 0
DWIDTH 32 0
BBX 32 32 0 -8
BITMAP
00066000
00066000
00066000
00066000
00066000
00066000
00066000
00066000
00066000
00066000
00066000
00066000
00066000
00066000
00066000
FFFFFFFF
FFFFFFFF
00066000
00066000
00066000
00066000
00066000
00066000
00066000
00066000
00066000
00066000
00066000
00066000
00066000
00066000
00066000
ENDCHAR
STARTCHAR char9580
ENCODING 9580
SWIDTH 4 0
DWIDTH 32 0
BBX 32 32 0 -8
BITMAP
00066000
00066000
00066000
00066000
00066000
00066000
00066000
00066000
00066000
00066000
00066000
00066000
00066000
FFFE7FFF
FFFE7FFF
00000000
00000000
FFFE7FFF
FFFE7FFF
00066000
00066000
00066000
00066000
00066000
00066000
00066000
00066000
00066000
00066000
00066000
00066000
00066000
ENDCHAR
STARTCHAR char9581
ENCODING 9581
SWIDTH 4 0
DWIDTH 32 0
BBX 17 17 15 -8
BITMAP
003F80
01FF80
07E000
0F0000
1C0000
380000
700000
600000
600000
E00000
C00000
C00000
C00000
C00000
C00000
C00000
C00000
ENDCHAR
STARTCHAR char9582
ENCODING 9582
SWIDTH 4 0
DWIDTH 32 0
BBX 17 17 0 -8
BITMAP
FE0000
FFC000
03F000
007800
001C00
000E00
000600
000700
000300
000300
000380
000180
000180
000180
000180
000180
000180
ENDCHAR
STARTCHAR char9583
ENCODING 9583
SWIDTH 4 0
DWIDTH 32 0
BBX 17 17 0 7
BITMAP
000180
000180
000180
000180
000180
000180
000380
000300
000300
000700
000600
000E00
001C00
007800
03F000
FFC000
FE0000
ENDCHAR
STARTCHAR char9584
ENCODING 9584
SWIDTH 4 0
DWIDTH 32 0
BBX 17 17 15 7
BITMAP
C00000
C00000
C00000
C00000
C00000
C00000
C00000
E00000
600000
600000
700000
380000
1C0000
0F0000
07E000
01FF80
003F80
ENDCHAR
STARTCHAR char9600
ENCODING 9600
SWIDTH 4 0
DWIDTH 32 0
BBX 32 16 0 8
BITMAP
FFFFFFFF
FFFFFFFF
FFFFFFFF
FFFFFFFF
FFFFFFFF
FFFFFFFF
FFFFFFFF
FFFFFFFF
FFFFFFFF
FFFFFFFF
FFFFFFFF
FFFFFFFF
FFFFFFFF
FFFFFFFF
FFFFFFFF
FFFFFFFF
ENDCHAR
STARTCHAR char9604
ENCODING 9604
SWIDTH 4 0
DWIDTH 32 0
BBX 32 16 0 -8
BITMAP
FFFFFFFF
FFFFFFFF
FFFFFFFF
FFFFFFFF
FFFFFFFF
FFFFFFFF
FFFFFFFF
FFFFFFFF
FFFFFFFF
FFFFFFFF
FFFFFFFF
FFFFFFFF
FFFFFFFF
FFFFFFFF
FFFFFFFF
FFFFFFFF
ENDCHAR
STARTCHAR char9608
ENCODING 9608
SWIDTH 4 0
DWIDTH 32 0
BBX 32 32 0 -8
BITMAP
FFFFFFFF
FFFFFFFF
FFFFFFFF
FFFFFFFF
FFFFFFFF
FFFFFFFF
FFFFFFFF
FFFFFFFF
FFFFFFFF
FFFFFFFF
FFFFFFFF
FFFFFFFF
FFFFFFFF
FFFFFFFF
FFFFFFFF
FFFFFFFF
FFFFFFFF
FFFFFFFF
FFFFFFFF
FFFFFFFF
FFFFFFFF
FFFFFFFF
FFFFFFFF
FFFFFFFF
FFFFFFFF
FFFFFFFF
FFFFFFFF
FFFFFFFF
FFFFFFFF
FFFFFFFF
FFFFFFFF
FFFFFFFF
ENDCHAR
STARTCHAR char9612
ENCODING 9612
SWIDTH 4 0
DWIDTH 32 0
BBX 16 32 0 -8
BITMAP
FFFF
FFFF
FFFF
FFFF
FFFF
FFFF
FFFF
FFFF
FFFF
FFFF
FFFF
FFFF
FFFF
FFFF
FFFF
FFFF
FFFF
FFFF
FFFF
FFFF
FFFF
FFFF
FFFF
FFFF
FFFF
FFFF
FFFF
FFFF
FFFF
FFFF
FFFF
FFFF
ENDCHAR
STARTCHAR char9616
ENCODING 9616
SWIDTH 4 0
DWIDTH 32 0
BBX 16 32 16 -8
BITMAP
FFFF
FFFF
FFFF
FFFF
FFFF
FFFF
FFFF
FFFF
FFFF
FFFF
FFFF
FFFF
FFFF
FFFF
FFFF
FFFF
FFFF
FFFF
FFFF
FFFF
FFFF
FFFF
FFFF
FFFF
FFFF
FFFF
FFFF
FFFF
FFFF
FFFF
FFFF
FFFF
ENDCHAR
STARTCHAR char9617
ENCODING 9617
SWIDTH 4 0
DWIDTH 32 0
BBX 27 26 1 -2
BITMAP
F81F07E0
F81F07E0
F81F07E0
F81F07E0
F81F07E0
00000000
00000000
00000000
00000000
00000000
00000000
F81F07E0
F81F07E0
F81F07E0
F81F07E0
F81F07E0
00000000
00000000
00000000
00000000
00000000
F81F07E0
F81F07E0
F81F07E0
F81F07E0
F81F07E0
ENDCHAR
STARTCHAR char9618
ENCODING 9618
SWIDTH 4 0
DWIDTH 32 0
BBX 32 32 0 -8
BITMAP
F81F07E0
F81F07E0
F81F07E0
F81F07E0
F81F07E0
07E0F81F
07E0F81F
07E0F81F
07E0F81F
07E0F81F
07E0F81F
F81F07E0
F81F07E0
F81F07E0
F81F07E0
F81F07E0
07E0F81F
07E0F81F
07E0F81F
07E0F81F
07E0F81F
F81F07E0
F81F07E0
F81F07E0
F81F07E0
F81F07E0
F81F07E0
07E0F81F
07E0F81F
07E0F81F
07E0F81F
07E0F81F
ENDCHAR
STARTCHAR char9619
ENCODING 9619
SWIDTH 4 0
DWIDTH 32 0
BBX 32 32 0 -8
BITMAP
FFFFFFFF
FFFFFFFF
FFFFFFFF
FFFFFFFF
FFFFFFFF
F81F07E0
F81F07E0
F81F07E0
F81F07E0
F81F07E0
F81F07E0
FFFFFFFF
FFFFFFFF
FFFFFFFF
FFFFFFFF
FFFFFFFF
F81F07E0
F81F07E0
F81F07E0
F81F07E0
F81F07E0
FFFFFFFF
FFFFFFFF
FFFFFFFF
FFFFFFFF
FFFFFFFF
F81F07E0
F81F07E0
F81F07E0
F81F07E0
F81F07E0
F81F07E0
ENDCHAR
STARTCHAR char9632
ENCODING 9632
SWIDTH 24 0
DWIDTH 19 0
BBX 23 23 -2 0
BITMAP
FFFFFE
FFFFFE
FFFFFE
FFFFFE
FFFFFE
FFFFFE
FFFFFE
FFFFFE
FFFFFE
FFFFFE
FFFFFE
FFFFFE
FFFFFE
FFFFFE
FFFFFE
FFFFFE
FFFFFE
FFFFFE
FFFFFE
FFFFFE
FFFFFE
FFFFFE
FFFFFE
ENDCHAR
STARTCHAR char9633
ENCODING 9633
SWIDTH 24 0
DWIDTH 19 0
BBX 17 17 1 0
BITMAP
FFFF80
FFFF80
C00180
C00180
C00180
C00180
C00180
C00180
C00180
C00180
C00180
C00180
C00180
C00180
C00180
FFFF80
FFFF80
ENDCHAR
STARTCHAR char9642
ENCODING 9642
SWIDTH 2 0
DWIDTH 11 0
BBX 8 8 2 4
BITMAP
FF
FF
FF
FF
FF
FF
FF
FF
ENDCHAR
STARTCHAR char9643
ENCODING 9643
SWIDTH 2 0
DWIDTH 11 0
BBX 8 9 2 4
BITMAP
FF
FF
83
83
83
83
83
FF
FF
ENDCHAR
STARTCHAR char9644
ENCODING 9644
SWIDTH 4 0
DWIDTH 32 0
BBX 24 12 4 0
BITMAP
FFFFFF
FFFFFF
FFFFFF
FFFFFF
FFFFFF
FFFFFF
FFFFFF
FFFFFF
FFFFFF
FFFFFF
FFFFFF
FFFFFF
ENDCHAR
STARTCHAR char9650
ENCODING 9650
SWIDTH 4 0
DWIDTH 32 0
BBX 19 18 6 2
BITMAP
004000
006000
00E000
00F000
01F000
01F800
03F800
03FC00
07FC00
07FE00
0FFF00
0FFF00
1FFF80
1FFF80
3FFFC0
7FFFC0
7FFFE0
FFFFE0
ENDCHAR
STARTCHAR char9653
ENCODING 9653
SWIDTH 7 0
DWIDTH 23 0
BBX 15 15 4 1
BITMAP
0100
0100
0380
0380
06C0
06C0
0C60
0C60
1830
1830
3018
3018
600C
7FFC
FFFE
ENDCHAR
STARTCHAR char9657
ENCODING 9657
SWIDTH 7 0
DWIDTH 23 0
BBX 15 15 4 1
BITMAP
C000
F000
FC00
CF00
C3C0
C0E0
C038
C01E
C078
C1E0
C780
DE00
F800
E000
8000
ENDCHAR
STARTCHAR char9658
ENCODING 9658
SWIDTH 4 0
DWIDTH 32 0
BBX 18 13 7 4
BITMAP
C00000
F80000
FF0000
FFC000
FFF800
FFFF00
FFFFC0
FFFE00
FFF800
FFC000
FE0000
F00000
800000
ENDCHAR
STARTCHAR char9660
ENCODING 9660
SWIDTH 4 0
DWIDTH 32 0
BBX 18 17 7 1
BITMAP
FFFFC0
FFFFC0
7FFF80
7FFF00
3FFF00
3FFE00
1FFE00
1FFC00
0FFC00
0FF800
07F800
07F000
03F000
01E000
01E000
00C000
00C000
ENDCHAR
STARTCHAR char9663
ENCODING 9663
SWIDTH 7 0
DWIDTH 23 0
BBX 15 15 4 1
BITMAP
FFFE
7FFC
600C
3018
3018
1830
1830
0C60
0C60
06C0
06C0
0380
0380
0100
0100
ENDCHAR
STARTCHAR char9667
ENCODING 9667
SWIDTH 7 0
DWIDTH 23 0
BBX 15 15 4 1
BITMAP
0006
001E
007E
01E6
0786
0E06
3806
F006
3C06
0F06
03C6
00FE
003E
000E
0002
ENDCHAR
STARTCHAR char9668
ENCODING 9668
SWIDTH 4 0
DWIDTH 32 0
BBX 18 13 6 4
BITMAP
000040
0003C0
001FC0
00FFC0
03FFC0
1FFFC0
FFFFC0
1FFFC0
03FFC0
007FC0
000FC0
0001C0
000040
ENDCHAR
STARTCHAR char9670
ENCODING 9670
SWIDTH 4 0
DWIDTH 32 0
BBX 17 17 8 2
BITMAP
018000
03C000
07E000
0FF000
1FF800
3FFC00
7FFE00
7FFF00
FFFF80
7FFF00
3FFE00
3FFC00
1FF800
0FF000
07E000
03C000
018000
ENDCHAR
STARTCHAR char9671
ENCODING 9671
SWIDTH 4 0
DWIDTH 32 0
BBX 20 21 6 1
BITMAP
006000
009000
010800
020400
060600
0C0300
180180
3000C0
600060
400020
C00030
600060
3000C0
180180
0C0300
040600
020400
010800
009000
006000
004000
ENDCHAR
STARTCHAR char9674
ENCODING 9674
SWIDTH 13 0
DWIDTH 15 0
BBX 14 24 0 0
BITMAP
0300
0380
0680
06C0
0C60
0C60
1830
1830
3018
3018
600C
600C
C00C
600C
6018
3018
3030
1830
1C60
0C60
06C0
06C0
0380
0380
ENDCHAR
STARTCHAR char9675
ENCODING 9675
SWIDTH 24 0
DWIDTH 19 0
BBX 18 18 1 3
BITMAP
008000
0FF800
1C1C00
300600
600300
400180
C00180
800080
8000C0
8000C0
800080
C00080
C00180
600100
300300
380E00
0FFC00
03F000
ENDCHAR
STARTCHAR char9679
ENCODING 9679
SWIDTH 24 0
DWIDTH 19 0
BBX 17 17 1 0
BITMAP
00C000
07F800
1FFC00
3FFE00
7FFF00
7FFF00
7FFF80
FFFF80
FFFF80
FFFF80
7FFF80
7FFF00
7FFF00
3FFE00
1FFE00
0FF800
03E000
ENDCHAR
STARTCHAR char9688
ENCODING 9688
SWIDTH 24 0
DWIDTH 19 0
BBX 20 20 0 0
BITMAP
FFFFF0
FFFFF0
FFFFF0
FFFFF0
FFFFF0
FFFFF0
FF0FF0
FE07F0
FC07F0
FC03F0
FC03F0
FC07F0
FC07F0
FE0FF0
FFFFF0
FFFFF0
FFFFF0
FFFFF0
FFFFF0
FFFFF0
ENDCHAR
STARTCHAR char9689
ENCODING 9689
SWIDTH 24 0
DWIDTH 19 0
BBX 23 23 -2 0
BITMAP
FFFFFE
FFFFFE
FFFFFE
FF00FE
FC7C7E
F9FF3E
F3FF9E
F7FFCE
E7FFCE
E7FFEE
EFFFE6
EFFFE6
EFFFEE
E7FFEE
E7FFCE
F3FFCE
F3FF9E
F8FF3E
FC387E
FF01FE
FFFFFE
FFFFFE
FFFFFE
ENDCHAR
STARTCHAR char9702
ENCODING 9702
SWIDTH 16 0
DWIDTH 16 0
BBX 12 12 2 3
BITMAP
0F00
3FC0
70E0
E060
C030
C030
C030
C030
C060
70E0
3FC0
1F00
ENDCHAR
STARTCHAR char9786
ENCODING 9786
SWIDTH 7 0
DWIDTH 33 0
BBX 23 23 5 0
BITMAP
00FE00
03FF80
0E00E0
180070
300038
600018
60000C
C18304
C38706
818306
800006
900026
880026
880046
C400C6
C70384
63FF8C
61FF18
303818
180070
0E00E0
07FF80
00FE00
ENDCHAR
STARTCHAR char9787
ENCODING 9787
SWIDTH 10 0
DWIDTH 34 0
BBX 24 23 5 0
BITMAP
00FE00
03FFC0
07FFE0
1FFFF0
1FFFF8
3FFFFC
7FFFFC
7E3C7E
7E3C7E
FE3C7E
FFFFFE
F7FFFF
FFFFFE
FBFFDE
79FFBE
7C7E3E
7E007C
3F00FC
1FFFF8
1FFFF0
07FFE0
03FFC0
00FE00
ENDCHAR
STARTCHAR char9788
ENCODING 9788
SWIDTH 24 0
DWIDTH 29 0
BBX 25 24 2 0
BITMAP
000C0000
000C0000
000C0000
080C0800
0C7F1C00
06FFF800
03C1F000
03807000
07003000
06003800
0E003800
FE001F80
FE001F80
0E003800
06003800
07007000
0380F000
03F7F000
06FFF800
0C7F1C00
080C0800
000C0000
000C0000
000C0000
ENDCHAR
STARTCHAR char9792
ENCODING 9792
SWIDTH 10 0
DWIDTH 24 0
BBX 12 21 6 2
BITMAP
0F00
3FC0
70E0
6060
C030
C030
C030
C030
6060
39C0
1F80
0600
0600
0600
0600
FFF0
0600
0600
0600
0600
0600
ENDCHAR
STARTCHAR char9794
ENCODING 9794
SWIDTH 10 0
DWIDTH 24 0
BBX 18 18 3 5
BITMAP
003FC0
001F80
000380
000780
000D80
001880
0030C0
1FE000
30E000
606000
403000
C03000
C03000
C03000
602000
606000
3FC000
0F0000
ENDCHAR
STARTCHAR char9824
ENCODING 9824
SWIDTH 19 0
DWIDTH 17 0
BBX 19 24 0 0
BITMAP
004000
004000
006000
00E000
01F000
01F800
03FC00
07FE00
1FFF00
3FFF80
7FFFC0
7FFFC0
FFFFE0
FFFFE0
FFFFE0
FFBFE0
7FDFE0
3F4FC0
184000
006000
00E000
01F000
03FC00
3FFF80
ENDCHAR
STARTCHAR char9827
ENCODING 9827
SWIDTH 2 0
DWIDTH 21 0
BBX 23 23 -1 0
BITMAP
007C00
00FE00
01FF00
03FF00
03FF80
03FF80
03FF00
01FF20
3FFFF8
7FFFFC
FFFFFE
FFFFFE
FFFFFE
FFFFFE
FFFFFE
7FD7FC
7F93FC
1E10F0
003800
007C00
007E00
01FF00
0FFFF0
ENDCHAR
STARTCHAR char9829
ENCODING 9829
SWIDTH 24 0
DWIDTH 19 0
BBX 21 24 -1 -1
BITMAP
1E03C0
3F8FE0
7F9FF0
FFDFF8
FFDFF8
FFFFF8
FFFFF8
7FFFF0
7FFFF0
3FFFE0
3FFFE0
1FFFC0
0FFF80
0FFF80
07FF00
03FE00
01FC00
01FC00
00F800
00F000
007000
002000
002000
002000
ENDCHAR
STARTCHAR char9830
ENCODING 9830
SWIDTH 16 0
DWIDTH 16 0
BBX 17 25 0 -1
BITMAP
008000
00C000
01C000
03E000
03F000
07F000
0FF800
1FFC00
1FFC00
3FFE00
7FFF00
FFFF80
FFFF80
7FFF80
7FFF00
3FFE00
1FFC00
0FF800
0FF800
07F000
03E000
03E000
01C000
008000
008000
ENDCHAR
STARTCHAR char9834
ENCODING 9834
SWIDTH 16 0
DWIDTH 16 0
BBX 12 23 2 0
BITMAP
0200
0200
0200
0300
0380
03C0
03E0
02E0
0270
0230
0230
0230
0210
0210
0230
0230
0220
7E20
FE00
FE00
FC00
F800
6000
ENDCHAR
STARTCHAR char9835
ENCODING 9835
SWIDTH 10 0
DWIDTH 24 0
BBX 17 22 3 -1
BITMAP
040000
07F800
07FF80
07FF80
060780
060080
060080
060080
060080
060080
060080
060080
060080
060080
060080
7E0080
FC0780
FC1F80
F81F80
F03F80
003F00
001E00
ENDCHAR
STARTCHAR char12314
ENCODING 12314
SWIDTH 7 0
DWIDTH 23 0
BBX 9 31 7 -5
BITMAP
FF80
FF80
CC00
CC00
CC00
CC00
CC00
CC00
CC00
CC00
CC00
CC00
CC00
CC00
CC00
CC00
CC00
CC00
CC00
CC00
CC00
CC00
CC00
CC00
CC00
CC00
CC00
CC00
CC00
FF80
FF80
ENDCHAR
STARTCHAR char12315
ENCODING 12315
SWIDTH 7 0
DWIDTH 23 0
BBX 9 31 7 -5
BITMAP
FF80
FF80
1980
1980
1980
1980
1980
1980
1980
1980
1980
1980
1980
1980
1980
1980
1980
1980
1980
1980
1980
1980
1980
1980
1980
1980
1980
1980
1980
FF80
FF80
ENDCHAR
STARTCHAR char61375
ENCODING 61375
SWIDTH 7 0
DWIDTH 23 0
BBX 29 27 -5 0
BITMAP
00000010
00000038
00000078
00000070
000000E0
000001C0
000001C0
00000380
00000700
00000E00
02000E00
0E001C00
3F003800
E7007000
03007000
0380E000
0381C000
0183C000
01C38000
01C70000
00CE0000
00CE0000
00FC0000
00F80000
00700000
00700000
00600000
ENDCHAR
STARTCHAR char61376
ENCODING 61376
SWIDTH 7 0
DWIDTH 23 0
BBX 15 34 0 -6
BITMAP
00C6
00C6
00C6
00C6
00C6
00C6
00C6
00C6
00C6
00C6
00C6
00C6
00C6
00C6
00C6
00C6
00C6
00C6
00C6
00C6
00C6
00C6
00C6
00C6
00C6
00C6
00C6
00C6
00C6
00C6
00C6
FFFE
FFFE
FFFE
ENDCHAR
STARTCHAR char61377
ENCODING 61377
SWIDTH 7 0
DWIDTH 23 0
BBX 15 35 0 -6
BITMAP
FFFE
FFFE
FFFE
00C6
00C6
00C6
00C6
00C6
00C6
00C6
00C6
00C6
00C6
00C6
00C6
00C6
00C6
00C6
00C6
00C6
00C6
00C6
00C6
00C6
00C6
00C6
00C6
00C6
00C6
00C6
00C6
00C6
00C6
00C6
00C6
ENDCHAR
STARTCHAR char61378
ENCODING 61378
SWIDTH 7 0
DWIDTH 23 0
BBX 23 32 0 -8
BITMAP
FFFFFE
FFFFFE
70001C
70001C
70001C
70001C
70001C
70001C
70001C
70001C
70001C
70001C
70001C
70001C
70001C
70001C
70001C
70001C
70001C
70001C
70001C
70001C
70001C
70001C
70001C
70001C
70001C
70001C
70001C
70001C
70001C
70001C
ENDCHAR
STARTCHAR char61379
ENCODING 61379
SWIDTH 7 0
DWIDTH 23 0
BBX 23 32 0 -8
BITMAP
70001C
70001C
70001C
70001C
70001C
70001C
70001C
70001C
70001C
70001C
70001C
70001C
70001C
70001C
70001C
70001C
70001C
70001C
70001C
70001C
70001C
70001C
70001C
70001C
70001C
70001C
70001C
70001C
70001C
70001C
FFFFFE
FFFFFE
ENDCHAR
STARTCHAR char61380
ENCODING 61380
SWIDTH 7 0
DWIDTH 23 0
BBX 15 34 8 -6
BITMAP
C600
C600
C600
C600
C600
C600
C600
C600
C600
C600
C600
C600
C600
C600
C600
C600
C600
C600
C600
C600
C600
C600
C600
C600
C600
C600
C600
C600
C600
C600
C600
FFFE
FFFE
FFFE
ENDCHAR
STARTCHAR char61381
ENCODING 61381
SWIDTH 7 0
DWIDTH 23 0
BBX 15 35 8 -6
BITMAP
FFFE
FFFE
FFFE
C600
C600
C600
C600
C600
C600
C600
C600
C600
C600
C600
C600
C600
C600
C600
C600
C600
C600
C600
C600
C600
C600
C600
C600
C600
C600
C600
C600
C600
C600
C600
C600
ENDCHAR
STARTCHAR char61382
ENCODING 61382
SWIDTH 7 0
DWIDTH 23 0
BBX 21 32 1 -8
BITMAP
01FC00
07FF00
1F07C0
3C01E0
3800E0
700070
600030
600030
600038
E00038
E00038
E00038
E00038
E00038
E00038
E00038
E00038
E00038
E00038
E00038
E00038
E00038
E00038
E00038
E00038
E00038
E00038
E00038
E00038
E00038
E00038
E00038
ENDCHAR
STARTCHAR char61383
ENCODING 61383
SWIDTH 7 0
DWIDTH 23 0
BBX 21 32 1 -8
BITMAP
E00038
E00038
E00038
E00038
E00038
E00038
E00038
E00038
E00038
E00038
E00038
E00038
E00038
E00038
E00038
E00038
E00038
E00038
E00038
E00038
E00038
E00038
E00038
E00038
600030
600030
700070
300060
3C00E0
1F07C0
07FF80
01FC00
ENDCHAR
STARTCHAR char61384
ENCODING 61384
SWIDTH 7 0
DWIDTH 23 0
BBX 21 32 1 -8
BITMAP
E00038
E00038
E00038
E00038
E00038
E00038
E00038
E00038
E00038
E00038
E00038
E00038
E00038
E00038
E00038
E00038
E00038
E00038
E00038
E00038
E00038
E00038
E00038
E00038
E00038
E00038
E00038
E00038
E00038
E00038
E00038
E00038
ENDCHAR
STARTCHAR char61385
ENCODING 61385
SWIDTH 7 0
DWIDTH 23 0
BBX 7 34 8 -6
BITMAP
C6
C6
C6
C6
C6
C6
C6
C6
C6
C6
C6
C6
C6
C6
C6
C6
C6
C6
C6
C6
C6
C6
C6
C6
C6
C6
C6
C6
C6
C6
C6
C6
C6
C6
ENDCHAR
STARTCHAR char61386
ENCODING 61386
SWIDTH 7 0
DWIDTH 23 0
BBX 15 20 4 -3
BITMAP
0100
0100
0380
0380
06C0
06C0
0C60
0C60
1830
1830
3018
3018
601C
7FFC
FFFE
0000
0000
0000
FFFE
FFFE
ENDCHAR
STARTCHAR char61387
ENCODING 61387
SWIDTH 7 0
DWIDTH 23 0
BBX 23 7 0 6
BITMAP
FFFFFE
FFFFFE
000000
000000
000000
FFFFFE
FFFFFE
ENDCHAR
STARTCHAR char61388
ENCODING 61388
SWIDTH 7 0
DWIDTH 23 0
BBX 14 34 10 -6
BITMAP
0008
001C
003C
0038
0070
00E0
00E0
01C0
0380
0700
0700
0E00
1C00
3800
3800
7000
E000
E000
7000
3800
1C00
1C00
0E00
0700
0780
0380
01C0
00E0
00E0
0070
0038
003C
001C
0008
ENDCHAR
STARTCHAR char61389
ENCODING 61389
SWIDTH 7 0
DWIDTH 23 0
BBX 25 34 -1 -6
BITMAP
40000000
E0000000
70000000
38000000
38000000
1C000000
0E000000
0E000000
07000000
03800000
01C00000
01C00000
00E00000
00700000
00780000
00380000
001C0000
000E0000
000E0000
00070000
00038000
0003C000
0001C000
0000E000
00007000
00007000
00003800
00001C00
00000E00
00000E00
00000700
00000380
00000380
00000100
ENDCHAR
STARTCHAR char61390
ENCODING 61390
SWIDTH 7 0
DWIDTH 23 0
BBX 21 12 0 -6
BITMAP
000018
000018
000038
000038
000078
000078
0000F0
0001F0
0007F0
FFFFF0
FFFFF0
FFFFE0
ENDCHAR
STARTCHAR char61391
ENCODING 61391
SWIDTH 7 0
DWIDTH 23 0
BBX 14 34 -1 -6
BITMAP
4000
E000
7000
7000
3800
1C00
1E00
0E00
0700
0380
0380
01C0
00E0
0070
0070
0038
001C
001C
0038
0070
0060
00E0
01C0
0380
0380
0700
0E00
1C00
1C00
3800
7000
F000
E000
4000
ENDCHAR
STARTCHAR char61392
ENCODING 61392
SWIDTH 7 0
DWIDTH 23 0
BBX 20 12 0 17
BITMAP
FFFE00
FFFFC0
FFFFE0
001FE0
0007E0
0001E0
0001F0
0000F0
000070
000070
000030
000030
ENDCHAR
STARTCHAR char61393
ENCODING 61393
SWIDTH 7 0
DWIDTH 23 0
BBX 25 34 -1 -6
BITMAP
00000100
00000380
00000780
00000700
00000E00
00001C00
00001C00
00003800
00007000
0000E000
0000E000
0001C000
00038000
00038000
00070000
000E0000
001C0000
001C0000
00380000
00700000
00E00000
00E00000
01C00000
03800000
03800000
07000000
0E000000
1C000000
1C000000
38000000
70000000
F0000000
E0000000
40000000
ENDCHAR
STARTCHAR char61394
ENCODING 61394
SWIDTH 7 0
DWIDTH 23 0
BBX 25 34 -1 -6
BITMAP
00000100
00000380
00000700
00000700
00000E00
00001C00
00003800
00003800
00007000
0000E000
0000E000
0001C000
00038000
00070000
00070000
000E0000
001C0000
00380000
00380000
00700000
00E00000
00E00000
01C00000
03800000
07000000
07000000
0E000000
1C000000
18000000
38000000
70000000
FFFFFF00
7FFFFF00
3FFFFF00
ENDCHAR
STARTCHAR char61395
ENCODING 61395
SWIDTH 7 0
DWIDTH 23 0
BBX 25 35 -1 -6
BITMAP
7FFFFF00
7FFFFF00
FFFFFF00
70000000
70000000
38000000
1C000000
0E000000
0E000000
07000000
03800000
03800000
01C00000
00E00000
00700000
00700000
00380000
001C0000
001C0000
000E0000
00070000
00038000
00038000
0001C000
0000E000
0000F000
00007000
00003800
00001C00
00001C00
00000E00
00000700
00000700
00000380
00000100
ENDCHAR
STARTCHAR char61396
ENCODING 61396
SWIDTH 7 0
DWIDTH 23 0
BBX 15 32 4 -8
BITMAP
0380
0380
0380
0380
0380
0380
0380
0380
0380
0FF0
3398
638C
4384
4386
C382
8382
8382
C382
4386
6384
3388
1BB0
07E0
0380
0380
0380
0380
0380
0380
0380
0380
0380
ENDCHAR
STARTCHAR char61397
ENCODING 61397
SWIDTH 22 0
DWIDTH 18 0
BBX 17 24 1 -8
BITMAP
003F00
01FF80
030F00
060000
040000
0C0000
0C0000
1C0000
1C0000
180000
1FF000
19F000
380000
380000
300000
300000
700000
700000
700000
600000
E00000
E00000
E00000
E00000
ENDCHAR
STARTCHAR char61398
ENCODING 61398
SWIDTH 4 0
DWIDTH 32 0
BBX 24 12 3 10
BITMAP
FF9E1F
FF9E1F
0C1B1F
0C1B1F
0C1B37
0C1B37
0C19B7
0C19B7
0C19E7
0C18E7
0C18E7
0C18C7
ENDCHAR
STARTCHAR char61399
ENCODING 61399
SWIDTH 4 0
DWIDTH 32 0
BBX 24 24 4 -1
BITMAP
00FE00
03C3C0
060060
180010
300008
200004
403E06
40FF02
C1E383
818081
838001
830001
830001
838001
818081
C1E383
40FF02
403E06
200004
30000C
180018
060060
0383C0
007F00
ENDCHAR
STARTCHAR char61400
ENCODING 61400
SWIDTH 4 0
DWIDTH 32 0
BBX 24 24 4 -1
BITMAP
00FE00
03C3C0
0E0060
180018
300008
200004
40FE06
40FF02
80C383
80C181
80C381
80FF01
80FE01
80C601
80C701
C0C303
40C302
40C186
200004
300008
180018
060060
0383C0
007F00
ENDCHAR
STARTCHAR char61401
ENCODING 61401
SWIDTH 4 0
DWIDTH 32 0
BBX 30 12 1 9
BITMAP
FFF7E0FC
C631E0F0
863170F0
86117170
86117170
06013970
06013A70
06011A70
06011E70
06011C70
0E010C70
3FC7CDFC
ENDCHAR
STARTCHAR char61402
ENCODING 61402
SWIDTH 4 0
DWIDTH 32 0
BBX 24 24 4 -1
BITMAP
00FE00
0381C0
0E0060
180018
30000C
203C84
406386
C0C182
81C183
818081
818001
838001
838001
818001
81C101
C0C103
40E302
403C06
200004
30000C
180018
060060
0383C0
007F00
ENDCHAR
STARTCHAR char61403
ENCODING 61403
SWIDTH 4 0
DWIDTH 32 0
BBX 24 24 4 -1
BITMAP
00FE00
03C3C0
060060
180010
100008
200004
61FF06
40E382
C0E183
80E181
80E381
80FF01
80E601
80E701
80E321
C0E3A3
41FBC2
4001C6
200004
30000C
180018
060060
0383C0
007F00
ENDCHAR
STARTCHAR char61404
ENCODING 61404
SWIDTH 7 0
DWIDTH 23 0
BBX 10 34 3 -6
BITMAP
01C0
01C0
01C0
01C0
01C0
01C0
01C0
01C0
01C0
01C0
01C0
01C0
01C0
01C0
01C0
01C0
01C0
01C0
01C0
01C0
01C0
01C0
01C0
21C0
E1C0
71C0
39C0
19C0
1DC0
0FC0
07C0
07C0
03C0
01C0
ENDCHAR
STARTCHAR char61405
ENCODING 61405
SWIDTH 7 0
DWIDTH 23 0
BBX 3 36 10 -8
BITMAP
E0
E0
E0
E0
E0
E0
E0
E0
E0
E0
E0
E0
E0
E0
E0
E0
E0
E0
E0
E0
E0
E0
E0
E0
E0
E0
E0
E0
E0
E0
E0
E0
E0
E0
E0
E0
ENDCHAR
STARTCHAR char61406
ENCODING 61406
SWIDTH 7 0
DWIDTH 23 0
BBX 8 32 5 -8
BITMAP
07
07
07
07
07
07
07
07
07
07
07
07
07
07
07
07
07
07
07
07
07
07
07
07
07
07
07
0E
0E
1C
78
C0
ENDCHAR
STARTCHAR char61407
ENCODING 61407
SWIDTH 7 0
DWIDTH 23 0
BBX 9 32 10 -8
BITMAP
F000
F000
F000
F000
F000
F000
F000
F000
F000
F000
F000
7000
7000
3800
1E00
0380
0380
0E00
3800
7000
7000
F000
F000
E000
E000
F000
F000
F000
F000
F000
F000
F000
ENDCHAR
STARTCHAR char61408
ENCODING 61408
SWIDTH 7 0
DWIDTH 23 0
BBX 8 32 5 -8
BITMAP
E0
38
1C
0E
0E
07
07
07
07
07
07
07
07
07
07
07
07
07
07
07
07
07
07
07
07
07
07
07
07
07
07
07
ENDCHAR
STARTCHAR char61409
ENCODING 61409
SWIDTH 7 0
DWIDTH 23 0
BBX 9 32 10 -8
BITMAP
E000
E000
E000
E000
E000
E000
E000
E000
E000
E000
E000
E000
E000
E000
E000
E000
E000
E000
E000
E000
E000
E000
E000
E000
E000
E000
F000
7000
7000
3800
1E00
0380
ENDCHAR
STARTCHAR char61410
ENCODING 61410
SWIDTH 7 0
DWIDTH 23 0
BBX 9 32 4 -8
BITMAP
0380
0380
0380
0380
0380
0380
0380
0380
0380
0380
0380
0380
0700
0E00
1C00
F000
E000
1C00
0E00
0700
0380
0380
0380
0380
0380
0380
0380
0380
0380
0380
0380
0380
ENDCHAR
STARTCHAR char61411
ENCODING 61411
SWIDTH 7 0
DWIDTH 23 0
BBX 9 32 10 -8
BITMAP
0380
1E00
3800
7800
7000
7000
F000
F000
F000
F000
F000
F000
F000
F000
F000
F000
F000
F000
F000
F000
F000
F000
F000
F000
F000
F000
F000
F000
F000
F000
F000
F000
ENDCHAR
STARTCHAR char61412
ENCODING 61412
SWIDTH 7 0
DWIDTH 23 0
BBX 13 34 0 -6
BITMAP
0038
0038
0038
0038
0038
0038
0038
0038
0038
0038
0038
0038
0038
0038
0038
0038
0038
0038
0038
0038
0038
0038
0038
0038
0038
0038
0038
0038
0038
0038
0038
FFF8
FFF8
FFF8
ENDCHAR
STARTCHAR char61413
ENCODING 61413
SWIDTH 7 0
DWIDTH 23 0
BBX 13 35 0 -6
BITMAP
FFF8
FFF8
FFF8
0038
0038
0038
0038
0038
0038
0038
0038
0038
0038
0038
0038
0038
0038
0038
0038
0038
0038
0038
0038
0038
0038
0038
0038
0038
0038
0038
0038
0038
0038
0038
0038
ENDCHAR
STARTCHAR char61414
ENCODING 61414
SWIDTH 7 0
DWIDTH 23 0
BBX 13 34 10 -6
BITMAP
E000
E000
E000
E000
E000
E000
E000
E000
E000
E000
E000
E000
E000
E000
E000
E000
E000
E000
E000
E000
E000
E000
E000
E000
E000
E000
E000
E000
E000
E000
E000
FFF8
FFF8
FFF8
ENDCHAR
STARTCHAR char61415
ENCODING 61415
SWIDTH 7 0
DWIDTH 23 0
BBX 13 35 10 -6
BITMAP
FFF8
FFF8
FFF8
E000
E000
E000
E000
E000
E000
E000
E000
E000
E000
E000
E000
E000
E000
E000
E000
E000
E000
E000
E000
E000
E000
E000
E000
E000
E000
E000
E000
E000
E000
E000
E000
ENDCHAR
STARTCHAR char61416
ENCODING 61416
SWIDTH 7 0
DWIDTH 23 0
BBX 23 2 0 8
BITMAP
FFFFFE
FFFFFE
ENDCHAR
STARTCHAR char61417
ENCODING 61417
SWIDTH 7 0
DWIDTH 23 0
BBX 23 5 0 26
BITMAP
000180
0000E0
FFFFF8
FFFFFE
FFFFFE
ENDCHAR
STARTCHAR char61418
ENCODING 61418
SWIDTH 7 0
DWIDTH 23 0
BBX 23 3 0 26
BITMAP
FFFFFE
FFFFFE
FFFFFE
ENDCHAR
STARTCHAR char61419
ENCODING 61419
SWIDTH 7 0
DWIDTH 23 0
BBX 23 3 0 -6
BITMAP
FFFFFE
FFFFFE
FFFFFE
ENDCHAR
STARTCHAR char61420
ENCODING 61420
SWIDTH 19 0
DWIDTH 17 0
BBX 15 16 1 0
BITMAP
07F8
0FFC
1E1E
1C0E
1C0C
1C00
0FC0
3FC0
7800
7000
E000
F01E
701C
7EF8
3FF0
0FE0
ENDCHAR
STARTCHAR char61434
ENCODING 61434
SWIDTH 4 0
DWIDTH 32 0
BBX 22 23 5 0
BITMAP
00F800
03FF00
0FFFC0
1FFFE0
3FFFF0
7FFFF8
7FFFF8
FFFFFC
FFFFFC
FFFFFC
FFFFFC
FFFFFC
FFFFFC
FFFFFC
FFFFFC
FFFFFC
7FFFF8
7FFFF8
3FFFF0
1FFFE0
0FFFC0
07FF80
00FC00
ENDCHAR
STARTCHAR char61435
ENCODING 61435
SWIDTH 4 0
DWIDTH 32 0
BBX 22 23 5 0
BITMAP
FFFFFC
FFFFFC
FFFFFC
FFFFFC
FFFFFC
FFFFFC
FFFFFC
FFFFFC
FFFFFC
FFFFFC
FFFFFC
FFFFFC
FFFFFC
FFFFFC
FFFFFC
FFFFFC
FFFFFC
FFFFFC
FFFFFC
FFFFFC
FFFFFC
FFFFFC
FFFFFC
ENDCHAR
STARTCHAR char61436
ENCODING 61436
SWIDTH 4 0
DWIDTH 32 0
BBX 22 23 5 0
BITMAP
FFFFFC
800004
800004
800004
800004
800004
800004
800004
800004
800004
800004
800004
800004
800004
800004
800004
800004
800004
800004
800004
800004
800004
FFFFFC
ENDCHAR
STARTCHAR char61437
ENCODING 61437
SWIDTH 4 0
DWIDTH 32 0
BBX 22 23 5 0
BITMAP
00FC00
078780
0C00C0
180060
300030
600018
400008
C0000C
800004
800004
800004
800004
800004
800004
800004
C0000C
400008
600018
300030
180060
0C00C0
078780
00FE00
ENDCHAR
STARTCHAR char61438
ENCODING 61438
SWIDTH 13 0
DWIDTH 25 0
BBX 21 22 2 0
BITMAP
00FF80
03E1E0
0760F0
1CE078
18E078
39E078
71E078
61E078
E1F070
E0F0F0
E0F1E0
E0FF80
E07C00
E07800
E07800
E03800
E03800
603800
703800
387000
1FE000
07C000
ENDCHAR
STARTCHAR char61439
ENCODING 61439
SWIDTH 16 0
DWIDTH 16 0
BBX 14 14 1 9
BITMAP
0FC0
3860
6018
5CC8
9CC4
9CC4
9CC4
9FC4
9B44
9B44
DB4C
6018
3030
0FC0
ENDCHAR
STARTCHAR char64256
ENCODING 64256
SWIDTH 22 0
DWIDTH 18 0
BBX 16 23 1 0
BITMAP
0E0F
3E1F
3C1C
3838
3838
3838
FEFF
FEFF
3838
3838
3838
3838
3838
3838
3838
3838
3838
3838
3838
3838
3838
3838
3838
ENDCHAR
STARTCHAR char64257
ENCODING 64257
SWIDTH 16 0
DWIDTH 16 0
BBX 14 23 0 0
BITMAP
0F1C
1F1C
1E1C
1800
1800
1800
FF1C
FF1C
181C
181C
181C
181C
181C
181C
181C
181C
181C
181C
181C
181C
181C
181C
181C
ENDCHAR
STARTCHAR char64258
ENCODING 64258
SWIDTH 16 0
DWIDTH 16 0
BBX 13 23 1 0
BITMAP
1E38
3E38
3C38
3038
3038
3038
FE38
FE38
3038
3038
3038
3038
3038
3038
3038
3038
3038
3038
3038
3038
3038
3038
3038
ENDCHAR
STARTCHAR char64259
ENCODING 64259
SWIDTH 13 0
DWIDTH 25 0
BBX 22 23 1 0
BITMAP
0E0F1C
3E1F1C
3C1E1C
301800
301800
301800
FEFF1C
FEFF1C
30181C
30181C
30181C
30181C
30181C
30181C
30181C
30181C
30181C
30181C
30181C
30181C
30181C
30181C
30181C
ENDCHAR
STARTCHAR char64260
ENCODING 64260
SWIDTH 13 0
DWIDTH 25 0
BBX 22 23 1 0
BITMAP
0E0F1C
3E1F1C
3C1E1C
30181C
30181C
30181C
FEFF1C
FEFF1C
30181C
30181C
30181C
30181C
30181C
30181C
30181C
30181C
30181C
30181C
30181C
30181C
30181C
30181C
30181C
ENDCHAR
ENDFONT
